<svg width="36" height="64" viewBox="0 0 36 64" fill="none" xmlns="http://www.w3.org/2000/svg">
<path d="M27.6553 22.4328V46.1241V58.8247H2.81398V50.7933C2.81398 49.1985 2.47196 47.622 1.8111 46.1705L1.08418 44.574C0.423319 43.1224 0.0812988 41.546 0.0812988 39.9512V29.1846C0.0812988 27.6438 0.302917 26.1109 0.739456 24.6333L1.79771 21.0502L27.6553 22.4328Z" fill="#FFCEBF"/>
<path d="M24.4186 46.1241H27.6554V58.8247H24.4186V46.1241Z" fill="#FFB09E"/>
<path d="M24.2087 0C26.1122 0 27.6554 1.54308 27.6554 3.44673V25.0975H20.762V3.44673C20.762 1.54308 22.305 0 24.2087 0V0Z" fill="#FFB09E"/>
<path d="M24.2088 0C23.6237 0 23.073 0.146286 22.5903 0.403445C23.6779 0.98305 24.4186 2.12823 24.4186 3.44673V25.0975H27.6555V3.44673C27.6555 1.54308 26.1123 0 24.2088 0V0Z" fill="#F99E8A"/>
<path d="M2.02942 63.9999H28.3551C29.2656 63.9999 30.0039 63.2618 30.0039 62.3511V57.2399C30.0039 56.3293 29.2657 55.5911 28.3551 55.5911H2.02942C1.11887 55.5911 0.380615 56.3292 0.380615 57.2399V62.3511C0.380615 63.2618 1.11887 63.9999 2.02942 63.9999Z" fill="#CF1124"/>
<path d="M28.3551 55.5913H25.1183C26.0288 55.5913 26.7671 56.3294 26.7671 57.2401V62.3513C26.7671 63.2619 26.029 64.0001 25.1183 64.0001H28.3551C29.2657 64.0001 30.0038 63.262 30.0038 62.3513V57.2401C30.0038 56.3294 29.2657 55.5913 28.3551 55.5913Z" fill="#A61B1B"/>
<path d="M7.65682 29.9924C7.32845 30.0903 6.99622 30.1379 6.66914 30.1379C5.30157 30.1379 4.03188 29.3176 3.49232 28.0196C3.44467 27.9076 3.40347 27.793 3.3687 27.6745L1.88009 22.6807C1.40363 21.0813 2.14278 19.4073 3.56314 18.654C3.56314 18.654 3.56443 18.654 3.56443 18.6527C3.76274 18.5484 3.97393 18.4608 4.19799 18.3939C6.0227 17.8491 7.9427 18.8871 8.48612 20.7118L9.97473 25.7056C10.5182 27.529 9.48025 29.449 7.65682 29.9924Z" fill="#FFCEBF"/>
<path d="M7.65694 29.9924C7.32857 30.0903 6.99634 30.1379 6.66925 30.1379C5.30169 30.1379 4.03199 29.3176 3.49243 28.0196C4.62306 29.2211 6.99634 28.4227 6.87529 26.4782C6.85984 26.2207 6.81477 25.9618 6.7375 25.7056L5.24889 20.7118C4.97461 19.791 4.35006 19.0712 3.56326 18.654C3.56326 18.654 3.56454 18.654 3.56454 18.6527C3.76285 18.5484 3.97404 18.4608 4.19811 18.3939C6.02282 17.8491 7.94282 18.8871 8.48624 20.7118L9.97485 25.7056C10.5183 27.529 9.48036 29.449 7.65694 29.9924Z" fill="#FFB09E"/>
<path d="M14.9559 30.3505C14.6275 30.4484 14.2966 30.4947 13.9708 30.4947C12.6071 30.4947 11.3399 29.6796 10.7978 28.3893C10.7489 28.2747 10.7051 28.1549 10.669 28.0326L8.04465 19.2284C7.5669 17.6278 8.30734 15.955 9.72771 15.2004C9.92602 15.0948 10.1385 15.0072 10.3626 14.9403C12.186 14.3969 14.106 15.4348 14.6507 17.2595L17.2751 26.0624C17.8185 27.8871 16.7806 29.8071 14.9559 30.3505Z" fill="#FFCEBF"/>
<path d="M14.9558 30.3505C14.6275 30.4484 14.2965 30.4947 13.9707 30.4947C12.607 30.4947 11.3399 29.6796 10.7978 28.3893C11.9258 29.583 14.2914 28.7898 14.1755 26.8453C14.1613 26.5852 14.1149 26.3225 14.0377 26.0624L11.4133 17.2595C11.139 16.3387 10.5132 15.6189 9.72766 15.2004C9.92597 15.0948 10.1384 15.0072 10.3625 14.9403C12.1859 14.3969 14.1059 15.4348 14.6506 17.2595L17.275 26.0624C17.8184 27.8871 16.7805 29.8071 14.9558 30.3505Z" fill="#FFB09E"/>
<path d="M21.1586 27.0293C20.8303 27.1272 20.4993 27.1736 20.1735 27.1736C18.824 27.1736 17.5685 26.3752 17.0173 25.1068C16.9606 24.9793 16.913 24.8466 16.8718 24.7101L14.2474 15.9072C13.7697 14.3066 14.5101 12.6326 15.9305 11.8792C15.9305 11.8792 15.9318 11.8792 15.9318 11.8779C16.1301 11.7724 16.3412 11.6861 16.5653 11.6191C18.3887 11.0757 20.3087 12.1136 20.8534 13.937L23.4778 22.7412C24.0212 24.5646 22.9833 26.4846 21.1586 27.0293Z" fill="#FFCEBF"/>
<path d="M21.159 27.0293C20.8306 27.1272 20.4996 27.1736 20.1738 27.1736C18.8243 27.1736 17.5688 26.3752 17.0176 25.1068C18.1457 26.2992 20.4674 25.4892 20.3812 23.5692C20.3696 23.2949 20.3232 23.0168 20.2408 22.7412L17.6164 13.937C17.3421 13.0163 16.7163 12.2965 15.9308 11.8792C15.9308 11.8792 15.9321 11.8792 15.9321 11.8779C16.1304 11.7724 16.3416 11.6861 16.5656 11.6191C18.3891 11.0757 20.3091 12.1136 20.8538 13.937L23.4781 22.7412C24.0216 24.5646 22.9837 26.4846 21.159 27.0293Z" fill="#FFB09E"/>
<path d="M27.655 47.8272V52.0136H20.5555V35.8138L27.655 31.5431L29.7933 23.4913L31.8897 23.8912C32.8703 24.0781 33.6783 24.7709 34.0127 25.7115L35.6432 30.2977C36.1455 31.7106 35.9538 33.2774 35.1257 34.5275L28.7729 44.1165C28.0438 45.2167 27.655 46.5074 27.655 47.8272Z" fill="#FFCEBF"/>
<path d="M35.6433 30.2977L34.0128 25.7115C33.6784 24.7709 32.8704 24.0781 31.8898 23.8912L30.0152 23.5336C30.2913 23.8183 30.5094 24.1617 30.6467 24.5479L32.4065 30.2977C32.9088 31.7106 32.7171 33.2774 31.8889 34.5275L25.5362 44.1165C24.8072 45.2168 24.4185 46.5074 24.4185 47.8273V52.0137H27.6553V47.8273C27.6553 46.5074 28.044 45.2168 28.773 44.1165L35.1258 34.5275C35.9539 33.2774 36.1456 31.7106 35.6433 30.2977Z" fill="#FFB09E"/>
<path d="M29.7931 23.4907L28.1512 29.6756L27.6554 31.5428L25.9003 30.7225L22.6578 29.2069C20.8112 28.3441 19.9999 26.1576 20.8369 24.2981C21.4331 22.973 22.8419 22.2158 24.2687 22.4399C24.3048 22.445 24.3395 22.4515 24.3756 22.4579L29.7931 23.4907Z" fill="#FFCEBF"/>
<path d="M28.8016 30.5912V30.6066L28.7835 32.1287C28.7771 32.658 28.3457 33.0829 27.8177 33.0829H27.8061C27.34 33.0778 26.955 32.743 26.87 32.3026L21.2349 35.6932C20.6966 36.0125 19.2119 37.0363 18.7444 37.9686C18.5744 38.306 18.2345 38.5017 17.8804 38.5017C17.7348 38.5017 17.5868 38.4682 17.4477 38.3987C16.9712 38.1592 16.7793 37.5784 17.0176 37.1019C17.8237 35.4974 20 34.1788 20.2459 34.0333L25.9003 30.7225L22.6578 29.2069C20.8112 28.3441 20 26.1576 20.837 24.2981C21.4332 22.973 22.842 22.2158 24.2688 22.4399C23.2772 22.2995 22.3127 22.8249 21.8981 23.7469C21.2812 25.1158 21.8865 26.7473 23.2476 27.3835L28.1513 29.6756C28.3567 29.7546 28.756 30.0287 28.7925 30.465C28.8004 30.5128 28.7929 30.4656 28.8016 30.5912Z" fill="#FFB09E"/>
<path d="M5.76975 60.7719C6.29796 60.7719 6.72615 60.3437 6.72615 59.8155C6.72615 59.2873 6.29796 58.8591 5.76975 58.8591C5.24155 58.8591 4.81335 59.2873 4.81335 59.8155C4.81335 60.3437 5.24155 60.7719 5.76975 60.7719Z" fill="#A61B1B"/>
</svg>
