<svg width="64" height="57" viewBox="0 0 64 57" fill="none" xmlns="http://www.w3.org/2000/svg">
<path d="M28.3689 42.9508L22.0154 38.7434C21.1539 38.1729 21.2591 37.471 20.6462 36.6739C19.4221 35.0816 18.7325 33.1095 18.7325 31.0458V29.072H15.6626H15.503H12.433V31.0458C12.433 33.1098 11.7434 35.082 10.519 36.6743C9.90624 37.4711 10.1769 38.1729 9.31562 38.7433L2.93924 42.9659C1.76099 43.7461 1.05249 45.0653 1.05249 46.4784V56.9991H15.5029H15.663H30.2786V46.5058C30.2785 45.0755 29.5614 43.7405 28.3689 42.9508Z" fill="#FED2A4"/>
<path d="M31.1304 46.5058V56.9991H28.6208V47.8636C28.6208 46.4336 28.2627 45.0899 26.7116 44.3079L20.3576 40.1003C17.7758 38.3906 16.0056 34.3389 16.2221 31.0459V29.0721H18.7331V31.0459C18.7331 34.143 20.2854 37.0328 22.8673 38.7436L29.2213 42.9513C30.4142 43.741 31.1304 45.0758 31.1304 46.5058Z" fill="#FFBD86"/>
<path d="M61.7893 11.3228C59.0722 7.99943 54.9402 5.87805 50.3127 5.87805C45.885 5.87805 41.9108 7.8203 39.1957 10.8992C37.6251 12.6803 36.778 14.9853 36.778 17.3602V17.4946V35.1172C36.778 40.7811 41.3695 45.3726 47.0335 45.3726H53.7096C59.3735 45.3726 63.9651 40.7811 63.9651 35.1172V17.4947C63.965 15.2494 63.2105 13.0611 61.7893 11.3228Z" fill="#5A5A5A"/>
<path d="M63.9647 17.494V35.1168C63.9647 40.7815 59.3731 45.3732 53.7097 45.3732H51.124C56.7887 45.3732 61.3804 40.7815 61.3804 35.1168V17.494C61.3804 16.3719 61.191 15.2639 60.8251 14.2192C60.4592 13.173 59.9155 12.1913 59.2044 11.323C56.7424 8.31092 53.1196 6.28692 49.0189 5.93392C49.4452 5.89779 49.8769 5.87854 50.3124 5.87854C54.94 5.87854 59.0716 7.99917 61.7887 11.323C62.4999 12.1914 63.0436 13.173 63.4095 14.2192C63.7766 15.2639 63.9647 16.3719 63.9647 17.494Z" fill="#444444"/>
<path d="M59.5989 43.2999L57.6683 42.0485C56.4328 41.2302 55.7696 40.0174 54.9624 38.8255C53.7268 37.001 53.0388 34.824 53.0388 32.5555V32.5316H50.3689H50.2301H47.5603V32.5555C47.5603 34.7837 46.8965 36.9237 45.7019 38.728C44.8859 39.9606 44.8864 40.7075 43.6173 41.548L40.9718 43.2999C40.4358 43.6547 39.7723 43.8011 39.3325 44.2515C37.7121 45.9107 36.7781 48.155 36.7781 50.5234V56.9997H50.23H50.3693H63.8211V50.5234C63.8211 48.1549 62.887 45.9105 61.2666 44.2512C60.8268 43.801 60.1346 43.6546 59.5989 43.2999Z" fill="#FED2A4"/>
<path d="M63.8204 50.5229V56.9992H61.2653V50.5229C61.2653 47.512 59.3473 45.2794 56.8364 43.6161L55.0817 42.4554C51.9549 40.3837 50.3716 36.4969 50.0753 32.5559V32.5314H53.0384V32.5559C53.0384 36.3061 54.9194 39.8065 58.0462 41.8769L59.8009 43.039C62.3118 44.7022 63.8204 47.5121 63.8204 50.5229Z" fill="#FFBD86"/>
<path d="M59.4782 15.8601L60.5809 19.6815V24.9605C60.5809 25.3084 60.5634 25.6526 60.5294 25.9912C60.2883 28.3989 59.2105 30.5599 57.5908 32.1796C55.7437 34.0267 53.1915 35.1697 50.3717 35.1697C45.0807 35.1697 40.7302 31.1451 40.2139 25.9912C40.1799 25.6526 40.1624 25.3084 40.1624 24.9605V19.6815L41.141 15.8601H59.4782Z" fill="#FED2A4"/>
<path d="M60.5802 19.6817V24.96C60.5802 25.3078 60.5635 25.6531 60.5288 25.9906C60.2879 28.3985 59.2108 30.5603 57.5901 32.1797C55.744 34.0272 53.1917 35.17 50.3716 35.17C49.9349 35.17 49.5046 35.143 49.0833 35.0888C51.3881 34.799 53.4532 33.7412 55.0134 32.1798C56.6341 30.5605 57.7111 28.3986 57.952 25.9907C57.9867 25.6532 58.0035 25.308 58.0035 24.9601V19.6818L56.902 15.8607H59.4786L60.5802 19.6817Z" fill="#FFBD86"/>
<path d="M46.1985 26.2463C45.6807 26.2463 45.261 25.8267 45.261 25.3088V23.7042C45.261 23.1863 45.6807 22.7667 46.1985 22.7667C46.7164 22.7667 47.136 23.1863 47.136 23.7042V25.3088C47.136 25.8266 46.7163 26.2463 46.1985 26.2463Z" fill="#444444"/>
<path d="M54.5444 26.2463C54.0265 26.2463 53.6069 25.8267 53.6069 25.3088V23.7042C53.6069 23.1863 54.0265 22.7667 54.5444 22.7667C55.0622 22.7667 55.4819 23.1863 55.4819 23.7042V25.3088C55.4819 25.8266 55.0622 26.2463 54.5444 26.2463Z" fill="#444444"/>
<path d="M51.3515 15.58H49.3915H40.1622V20.0371C43.8747 19.926 47.565 19.1498 49.5645 17.1418C49.8878 16.8171 50.153 16.5162 50.3715 16.2422C50.59 16.5162 50.8552 16.8172 51.1784 17.1418C53.1779 19.1498 56.8688 19.926 60.5812 20.0371V15.58H51.3515Z" fill="#5A5A5A"/>
<path d="M61.2653 44.252L59.5614 47.6297C58.7493 49.2395 58.3262 51.0175 58.3262 52.8207V56.9995H42.2736V52.8218C42.2736 51.0179 41.8502 49.2393 41.0374 47.629L39.3332 44.2522C39.7719 43.8007 40.2629 43.3937 40.7983 43.0389L42.5534 41.8778C43.8227 41.0359 44.8859 39.9599 45.7012 38.7275L45.7024 38.7288C45.7024 38.7288 46.7721 42.3433 50.2999 42.3433C53.8279 42.3433 54.8976 38.7288 54.8976 38.7288C55.7141 39.9612 56.7773 41.0372 58.0466 41.8778L59.8004 43.0389C60.3357 43.3937 60.8266 43.8005 61.2653 44.252Z" fill="#CF1124"/>
<path d="M61.2656 44.2525L60.0533 46.654C59.2572 45.4726 58.1247 44.469 56.8363 43.6161L55.0816 42.4554C54.4787 42.056 53.9337 41.5909 53.4441 41.0691C54.4992 40.0424 54.887 38.7617 54.8973 38.7295C54.9192 38.7617 54.9411 38.7939 54.9631 38.8249C55.0005 38.8815 55.0391 38.937 55.0777 38.9924C55.2178 39.1932 55.3765 39.3999 55.5338 39.5955C55.9543 40.118 56.4233 40.5979 56.9328 41.0357C57.2913 41.3439 57.6533 41.6187 58.046 41.8782C58.046 41.8782 59.8003 43.0389 59.8007 43.039C60.2562 43.3404 60.6931 43.6894 61.0981 44.0851C61.1548 44.1404 61.2102 44.1957 61.2656 44.2525Z" fill="#A61B1B"/>
<path d="M31.1304 46.5064V56.9997H0.0354004V46.478C0.0354004 45.0647 0.744025 43.7467 1.92153 42.966L8.29878 38.7429C9.1594 38.1721 9.90665 37.4712 10.5185 36.6739C13.7225 38.1812 17.4445 38.1812 20.6473 36.6726C21.2579 37.4701 22.0051 38.1722 22.867 38.743L29.221 42.9506C30.414 43.7404 31.1304 45.0751 31.1304 46.5064Z" fill="#62B0E8"/>
<path d="M31.1304 46.5059V56.9992H28.6208V47.8637C28.6208 46.4337 28.2627 45.09 26.7115 44.308L20.3575 40.1004C19.448 39.4987 18.6402 38.6059 17.9832 37.5585C18.8953 37.3717 19.7894 37.0766 20.6462 36.6721C20.7222 36.7726 20.8008 36.8705 20.8832 36.9671C21.0885 37.2079 21.3004 37.4422 21.5274 37.6629C21.9374 38.065 22.3878 38.4262 22.8672 38.7437C22.8673 38.7439 29.2212 42.9514 29.2212 42.9514C29.4453 43.0995 29.6514 43.267 29.8395 43.45C30.6577 44.2449 31.1304 45.3439 31.1304 46.5059Z" fill="#2680C2"/>
<path d="M7.89091 46.8773V57H5.98816V46.8773C5.98816 46.3522 6.41441 45.9259 6.93953 45.9259C7.46603 45.9259 7.89091 46.3522 7.89091 46.8773Z" fill="#2680C2"/>
<path d="M25.1769 46.8773V57H23.2741V46.8773C23.2741 46.3522 23.7004 45.9259 24.2255 45.9259C24.7506 45.9259 25.1769 46.3522 25.1769 46.8773Z" fill="#2680C2"/>
<path d="M26.147 23.3775H27.9046C29.6662 23.3775 31.0942 21.9494 31.0942 20.1879C31.0942 18.4263 29.6661 16.9983 27.9046 16.9983H26.147V23.3775Z" fill="#F6A96C"/>
<path d="M5.18413 23.3775H3.4265C1.66488 23.3775 0.236877 21.9494 0.236877 20.1879C0.236877 18.4263 1.665 16.9983 3.4265 16.9983H5.18413V23.3775Z" fill="#F6A96C"/>
<path d="M27.3656 9.90209L27.4049 14.2961V20.3662C27.4049 20.7662 27.3848 21.1621 27.3456 21.5515C27.0684 24.3198 25.8291 26.8047 23.9666 28.6672C21.8426 30.7912 18.9081 32.1055 15.6656 32.1055C9.58164 32.1055 4.57927 27.4777 3.98564 21.5513C3.94652 21.162 3.92639 20.7661 3.92639 20.3661V14.296V9.90196L12.8093 7.25684L27.3656 9.90209Z" fill="#FED2A4"/>
<path d="M27.3454 21.551C27.0684 24.3196 25.829 26.8047 23.9661 28.6677C21.843 30.7908 18.9081 32.105 15.6655 32.105C15.2236 32.105 14.7881 32.0805 14.3591 32.0316C17.0775 31.7315 19.5163 30.5011 21.3509 28.6677C23.2138 26.8048 24.4531 24.3196 24.7301 21.551C24.7687 21.1618 24.761 9.42908 24.761 9.42908L27.366 9.90195C27.366 9.90195 27.3852 21.162 27.3454 21.551Z" fill="#FFBD86"/>
<path d="M10.8672 20.3894C10.3494 20.3894 9.92975 19.9698 9.92975 19.4519V17.6068C9.92975 17.0889 10.3494 16.6693 10.8672 16.6693C11.3851 16.6693 11.8047 17.0889 11.8047 17.6068V19.4519C11.8047 19.9698 11.3851 20.3894 10.8672 20.3894Z" fill="#444444"/>
<path d="M20.4639 20.3894C19.946 20.3894 19.5264 19.9698 19.5264 19.4519V17.6068C19.5264 17.0889 19.946 16.6693 20.4639 16.6693C20.9817 16.6693 21.4014 17.0889 21.4014 17.6068V19.4519C21.4014 19.9698 20.9816 20.3894 20.4639 20.3894Z" fill="#444444"/>
<path d="M3.92628 11.9538C3.92628 11.9538 9.1184 12.1197 12.423 9.07444C12.3345 9.18719 15.277 10.5402 15.5485 10.6689C17.3795 11.5369 19.3771 11.8372 21.3834 11.9778C24.4464 12.1924 27.3442 11.6932 29.5953 9.45844L30.4601 8.51832C30.9978 7.93395 30.8548 7.00132 30.1658 6.6067C28.9798 5.92745 27.2585 4.8882 26.0133 3.91007C23.2363 1.72895 20.5401 0.115825 17.0879 0.807699C15.8417 1.05745 14.7438 1.6757 13.8515 2.57795C13.3198 3.1157 12.4632 3.15345 11.8879 2.66245C11.559 2.38182 11.2695 2.13432 11.2129 2.08145C10.4347 1.35395 9.30678 0.865699 8.2144 0.854824C7.24628 0.845199 6.2804 1.16382 5.52478 1.77282C4.52103 2.58195 3.92603 3.82357 3.92603 5.11307V9.90207L3.92628 11.9538Z" fill="#5A5A5A"/>
<path d="M30.4605 8.51834L29.5948 9.45884C27.8929 11.1478 25.8225 11.8448 23.5899 11.9917C24.7713 11.5923 25.8703 10.9495 26.8468 9.98059L27.7125 9.04009C28.2498 8.45647 28.1068 7.52372 27.4175 7.12821C26.2323 6.44921 24.511 5.40959 23.2653 4.43171C20.927 2.59459 18.6454 1.16071 15.9205 1.16709C16.2929 1.00996 16.6833 0.888836 17.0878 0.807586C20.5405 0.11571 23.2369 1.72871 26.0133 3.90984C27.259 4.88771 28.9803 5.92734 30.1655 6.60634C30.8548 7.00071 30.9978 7.93347 30.4605 8.51834Z" fill="#444444"/>
</svg>
