<svg width="64" height="62" viewBox="0 0 64 62" fill="none" xmlns="http://www.w3.org/2000/svg">
<path d="M54.2553 61.8611C39.3426 59.8022 24.6784 56.6035 10.263 52.2652C9.18551 51.941 8.47914 50.9065 8.57651 49.7854C9.55451 38.5209 11.9445 27.5642 15.7463 16.9156C16.1246 15.8559 17.1976 15.2095 18.3123 15.3634C33.2249 17.4224 47.889 20.621 62.3045 24.9592C63.382 25.2835 64.0884 26.318 63.991 27.4391C63.013 38.7037 60.623 49.6602 56.8213 60.3089C56.443 61.3686 55.37 62.015 54.2553 61.8611Z" fill="#DDDAEC"/>
<path d="M32.9118 54.0705C26.1272 52.5907 19.3145 50.8407 12.6165 48.858C13.59 38.8314 15.7426 28.9624 19.0331 19.4412C25.9483 20.4279 32.871 21.674 39.6556 23.1539C46.4402 24.6338 53.253 26.3838 59.951 28.3664C58.9775 38.393 56.8248 48.262 53.5343 57.7833C46.6191 56.7965 39.6966 55.5505 32.9118 54.0705Z" fill="#7BC47F"/>
<path d="M51.9928 37.4712C37.3248 40.8588 22.483 43.0931 7.46779 44.1738C6.34541 44.2546 5.31691 43.5396 5.00866 42.4573C1.91029 31.5832 0.240914 20.4939 0.000538508 9.18948C-0.0233365 8.06448 0.749038 7.07835 1.84541 6.8251C16.5134 3.43747 31.3552 1.20322 46.3704 0.122475C47.4928 0.0417248 48.5213 0.756725 48.8295 1.83897C51.9278 12.7131 53.5972 23.8025 53.8375 35.1068C53.8615 36.2318 53.0892 37.2181 51.9928 37.4712Z" fill="#F6F9F9"/>
<path d="M6.36324 31.2928C4.99312 24.4042 4.19262 17.4112 3.97162 10.3788C10.7852 8.83678 17.6976 7.53603 24.5639 6.5024C31.4315 5.46865 38.4204 4.67665 45.3847 4.14465C47.2437 10.9305 48.5389 17.849 49.2574 24.8358" fill="#CF1124"/>
<path d="M43.9176 28.7316C44.0777 28.9664 44.1864 29.2207 44.2455 29.4814L12.5191 34.2572C12.4989 33.9909 12.5279 33.7157 12.6117 33.4442L13.8726 29.3785C14.0697 28.7395 13.9652 28.0451 13.5889 27.4939L11.1866 23.9782C10.4479 22.8975 10.8165 21.4137 11.9749 20.8026L15.741 18.8207C16.3325 18.5087 16.7505 17.944 16.8731 17.2857L17.66 13.1041C17.9015 11.816 19.2111 11.0282 20.4629 11.4159L24.5285 12.6755C25.1676 12.874 25.862 12.7694 26.4145 12.3916L29.9291 9.99098C31.0112 9.25198 32.4947 9.61935 33.1047 10.7792L35.0877 14.5439C35.3986 15.1369 35.9645 15.5535 36.6216 15.6775L40.8044 16.4629C42.0914 16.7059 42.8805 18.0154 42.4926 19.2657L41.2319 23.3329C41.0345 23.9705 41.139 24.665 41.5156 25.2175L43.9176 28.7316Z" fill="#F6E266"/>
<path d="M36.4676 25.0135C36.781 27.0955 36.3553 29.1173 35.3883 30.8147L21.3767 32.924C19.9528 31.5866 18.9508 29.7796 18.6373 27.6976C17.8961 22.7731 21.2865 18.181 26.211 17.4397C31.1341 16.6985 35.7262 20.089 36.4676 25.0135Z" fill="#FFC250"/>
<path d="M49.2561 24.8359C49.5667 27.8514 49.7706 30.8817 49.8666 33.9175C43.0541 35.458 36.1403 36.759 29.2741 37.7927C22.4078 38.8263 15.4188 39.6182 8.45335 40.1517C7.65135 37.222 6.9541 34.266 6.36322 31.2928C20.2265 26.875 34.7067 24.6953 49.2561 24.8359Z" fill="#62B0E8"/>
<path d="M21.6118 32.0598C21.1418 32.0598 20.7298 31.7161 20.6576 31.2373C20.5781 30.7096 20.9416 30.2175 21.4693 30.138L24.2689 29.7166C24.7948 29.6378 25.2885 30.0005 25.368 30.5283C25.4475 31.0559 25.084 31.548 24.5564 31.6275L21.7568 32.0489C21.7081 32.0563 21.6596 32.0598 21.6118 32.0598Z" fill="#F6F9F9"/>
<path d="M30.7026 32.4861C30.2326 32.4861 29.8206 32.1425 29.7485 31.6636C29.669 31.136 30.0325 30.6439 30.5601 30.5644L35.2442 29.8593C35.7707 29.7804 36.264 30.1432 36.3433 30.6709C36.4228 31.1985 36.0593 31.6906 35.5317 31.7701L30.8476 32.4753C30.799 32.4826 30.7506 32.4861 30.7026 32.4861Z" fill="#F6F9F9"/>
<path d="M23.7467 36.7332C23.2767 36.7332 22.8647 36.3895 22.7926 35.9107C22.7131 35.383 23.0766 34.8909 23.6042 34.8114L28.7101 34.0429C29.2358 33.9642 29.7297 34.3268 29.8092 34.8545C29.8887 35.3822 29.5252 35.8743 28.9976 35.9538L23.8917 36.7223C23.8431 36.7297 23.7947 36.7332 23.7467 36.7332Z" fill="#F6F9F9"/>
</svg>
