<svg width="64" height="62" viewBox="0 0 64 62" fill="none" xmlns="http://www.w3.org/2000/svg">
<path fill-rule="evenodd" clip-rule="evenodd" d="M13.0176 23.5247L35.5931 19.3977L57.3588 23.5247V53.0838C57.3588 54.1825 56.4609 55.0796 55.3614 55.0796H15.0149C13.9154 55.0796 13.0175 54.1825 13.0175 53.0838V23.5247H13.0176Z" fill="#62B0E8"/>
<path fill-rule="evenodd" clip-rule="evenodd" d="M8.6015 17.2958V22.3091C8.6015 22.9792 9.14763 23.5248 9.81463 23.5248H13.0178H26.4678L29.5096 19.3868L26.4678 16.0801H24.0966H18.8963H9.81463C9.14763 16.08 8.6015 16.6293 8.6015 17.2958Z" fill="#62B0E8"/>
<path fill-rule="evenodd" clip-rule="evenodd" d="M32.4854 8.93198C30.609 -6.69352 6.377 0.432608 18.8961 16.08H24.0965C17.8516 8.13361 28.8865 4.77198 30.3158 11.5721C31.5619 11.2682 32.7713 10.9754 32.4854 8.93198Z" fill="#CF1124"/>
<path fill-rule="evenodd" clip-rule="evenodd" d="M51.4768 16.08C63.9996 0.432608 39.7639 -6.69352 37.8912 8.93198C37.7776 11.1072 38.6974 11.6089 40.0608 11.5722C41.4901 4.77198 52.5249 8.13373 46.2801 16.0801H51.4768V16.08Z" fill="#CF1124"/>
<path fill-rule="evenodd" clip-rule="evenodd" d="M43.9086 16.08L41.3873 19.9616L43.9086 23.5247H57.3586H60.558C61.225 23.5247 61.7748 22.9791 61.7748 22.309V17.2957C61.7748 16.6292 61.225 16.08 60.558 16.08H51.4765H46.2798H43.9086Z" fill="#62B0E8"/>
<path fill-rule="evenodd" clip-rule="evenodd" d="M30.3158 11.5723V16.0801L35.3989 18.768L40.0607 16.0801V11.5723V10.9278C40.0607 9.83288 39.1592 8.93201 38.0633 8.93201H37.891H32.4854H32.3132C31.2137 8.93201 30.3158 9.83288 30.3158 10.9278V11.5723Z" fill="#CF1124"/>
<path fill-rule="evenodd" clip-rule="evenodd" d="M27.787 23.5247H42.5894V55.0795H27.787V23.5247Z" fill="#CF1124"/>
<path fill-rule="evenodd" clip-rule="evenodd" d="M9.75214 42.5485L4.87427 50.1946L9.75214 57.6906L19.1708 59.3201L32.0271 61.5503C33.3171 61.8433 35.5674 62.0446 38.1181 61.2829L61.5109 54.2959C65.5973 53.0765 64.3988 47.2284 59.7628 48.3855L57.3586 48.9458L44.8505 51.868C44.0515 52.0548 43.3149 52.0914 42.5893 52.0621C41.5448 52.0145 40.515 51.8314 39.3459 51.7399L30.9974 50.3446C27.6588 49.5573 28.6115 45.4596 31.4921 45.672H34.1491C40.0789 45.672 39.9579 38.5019 34.7319 37.645H31.2796C30.0409 37.645 28.9231 37.678 27.787 37.7769C25.2876 38.0003 22.7221 38.5459 18.6981 39.7873L13.0176 41.5414L9.75214 42.5485Z" fill="#FFCEBF"/>
<path fill-rule="evenodd" clip-rule="evenodd" d="M0.00012207 42.3838V58.0056V58.0166C0.00374707 58.9393 0.762372 59.6937 1.68962 59.6937H8.06275C8.99362 59.6937 9.75225 58.9321 9.75225 58.0056V57.6907V42.5486V42.3838C9.75225 41.4537 8.99362 40.6957 8.06275 40.6957H1.68962C0.762372 40.6957 0.00374707 41.4464 0.00012207 42.3728L0.00012207 42.3838Z" fill="#CF1124"/>
<path fill-rule="evenodd" clip-rule="evenodd" d="M26.4677 23.5247H13.0177V28.8858H27.7871V23.5247H26.4677Z" fill="#2680C2"/>
<path fill-rule="evenodd" clip-rule="evenodd" d="M27.787 23.5247H42.5894V28.8858H27.787V23.5247Z" fill="#A61B1B"/>
<path fill-rule="evenodd" clip-rule="evenodd" d="M57.3587 23.5247H43.9087H42.5893V28.8858H52.0519C52.4294 28.8858 52.3634 29.1678 52.3634 29.5523V50.114L57.3587 48.9459V35.5834V23.5247Z" fill="#2680C2"/>
<path fill-rule="evenodd" clip-rule="evenodd" d="M26.4678 16.08V23.5247H27.7871H42.5894H43.9088V16.08H40.0606H30.3159H26.4678Z" fill="#F24D5E"/>
<path fill-rule="evenodd" clip-rule="evenodd" d="M43.6558 0.754844C49.3217 1.52384 54.0017 7.45247 47.4379 16.0801H51.4766C60.397 4.93672 50.6703 -1.88541 43.6558 0.754844Z" fill="#A61B1B"/>
<path fill-rule="evenodd" clip-rule="evenodd" d="M32.4854 8.93205C31.265 -1.24082 20.5637 -1.77182 16.7009 3.4208C20.8019 1.7583 26.3614 3.08393 28.4102 8.59143C29.3007 9.1773 30.0154 10.1551 30.3159 11.5723V10.9278C30.3159 9.83293 31.2138 8.93205 32.3133 8.93205H32.4854Z" fill="#A61B1B"/>
<path fill-rule="evenodd" clip-rule="evenodd" d="M37.8911 8.93201H34.5634C35.6629 8.93201 36.5607 9.83288 36.5607 10.9278V11.5723V16.0801H40.0606V11.5723V10.9278C40.0606 9.83288 39.1591 8.93201 38.0632 8.93201H37.8911Z" fill="#A61B1B"/>
<path fill-rule="evenodd" clip-rule="evenodd" d="M54.6577 17.2958V22.3091C54.6577 22.5545 54.5845 22.7815 54.4598 22.9756C54.24 23.3052 53.8661 23.5248 53.4447 23.5248H57.3588H60.5582C61.2252 23.5248 61.775 22.9792 61.775 22.3091V17.2958C61.775 16.6293 61.2252 16.0801 60.5582 16.0801H53.4447C54.1117 16.08 54.6577 16.6293 54.6577 17.2958Z" fill="#2680C2"/>
<path fill-rule="evenodd" clip-rule="evenodd" d="M9.7522 52.703V57.6905L19.1708 59.32L32.0272 61.5502C33.3172 61.8432 35.5674 62.0445 38.1182 61.2828L61.5109 54.2958C64.1349 53.5122 64.5784 50.8207 63.3361 49.3009C62.9256 49.8099 62.3246 50.22 61.5109 50.4434L57.3587 51.5933L43.9417 55.8963L37.3047 57.7309C34.7539 58.4376 33.0461 57.6467 31.7561 57.3244C24.3311 55.8743 17.1772 54.1532 9.7522 52.703Z" fill="#FFB09E"/>
<path fill-rule="evenodd" clip-rule="evenodd" d="M9.75225 57.6906V52.7031C9.75225 53.6332 8.99362 54.3913 8.06275 54.3913H7.60825H1.6895C0.76225 54.3913 0.003625 53.6405 0 52.7141V58.0056V58.0166C0.003625 58.9394 0.76225 59.6937 1.6895 59.6937H8.06262C8.9935 59.6937 9.75212 58.9321 9.75212 58.0056V57.6906H9.75225Z" fill="#A61B1B"/>
</svg>
