<svg width="64" height="48" viewBox="0 0 64 48" fill="none" xmlns="http://www.w3.org/2000/svg">
<path d="M33.5982 3.47892H14.1042C13.5787 3.47892 13.1529 3.05305 13.1529 2.52755C13.1529 2.00205 13.5789 1.57617 14.1042 1.57617H33.5982C34.1237 1.57617 34.5497 2.00205 34.5497 2.52755C34.5497 3.05305 34.1239 3.47892 33.5982 3.47892Z" fill="#A61B1B"/>
<path d="M14.9654 10.4528H4.93111C4.40561 10.4528 3.97974 10.0269 3.97974 9.50142C3.97974 8.97592 4.40574 8.55005 4.93111 8.55005H14.9654C15.4909 8.55005 15.9167 8.97592 15.9167 9.50142C15.9167 10.0269 15.4909 10.4528 14.9654 10.4528Z" fill="#A61B1B"/>
<path d="M14.6214 16.9361H10.6576C10.1321 16.9361 9.70624 16.5102 9.70624 15.9847C9.70624 15.4592 10.1322 15.0333 10.6576 15.0333H14.6215C15.147 15.0333 15.5729 15.4592 15.5729 15.9847C15.5729 16.5102 15.1469 16.9361 14.6214 16.9361Z" fill="#A61B1B"/>
<path d="M10.6576 21.6311H0.951375C0.425875 21.6311 0 21.2053 0 20.6798C0 20.1543 0.426 19.7284 0.951375 19.7284H10.6575C11.183 19.7284 11.6089 20.1543 11.6089 20.6798C11.6089 21.2053 11.183 21.6311 10.6576 21.6311Z" fill="#A61B1B"/>
<path d="M34.8669 46.4237H14.1042C13.5787 46.4237 13.1529 45.9979 13.1529 45.4722C13.1529 44.9466 13.5789 44.5209 14.1042 44.5209H34.8669C35.3924 44.5209 35.8182 44.9467 35.8182 45.4722C35.8182 45.9977 35.3924 46.4237 34.8669 46.4237Z" fill="#A61B1B"/>
<path d="M14.9654 39.4499H4.93111C4.40561 39.4499 3.97974 39.024 3.97974 38.4985C3.97974 37.973 4.40574 37.547 4.93111 37.547H14.9654C15.4909 37.547 15.9167 37.9729 15.9167 38.4985C15.9167 39.0241 15.4909 39.4499 14.9654 39.4499Z" fill="#A61B1B"/>
<path d="M14.6214 32.9666H10.6576C10.1321 32.9666 9.70624 32.5407 9.70624 32.0151C9.70624 31.4895 10.1322 31.0637 10.6576 31.0637H14.6215C15.147 31.0637 15.5729 31.4896 15.5729 32.0151C15.5729 32.5406 15.1469 32.9666 14.6214 32.9666Z" fill="#A61B1B"/>
<path d="M10.6576 28.2718H0.951375C0.425875 28.2718 0 27.8459 0 27.3204C0 26.7949 0.426 26.3689 0.951375 26.3689H10.6575C11.183 26.3689 11.6089 26.7948 11.6089 27.3204C11.6089 27.846 11.183 28.2718 10.6576 28.2718Z" fill="#A61B1B"/>
<path d="M40.5348 47.465C53.4942 47.465 63.9999 36.9593 63.9999 23.9999C63.9999 11.0405 53.4942 0.53479 40.5348 0.53479C27.5753 0.53479 17.0696 11.0405 17.0696 23.9999C17.0696 36.9593 27.5753 47.465 40.5348 47.465Z" fill="#CF1124"/>
<path d="M40.5347 0.53479C39.9407 0.53479 39.3521 0.55729 38.7692 0.600665C50.9039 1.50342 60.4688 11.6344 60.4688 23.9999C60.4688 36.3654 50.9039 46.4964 38.7692 47.3992C39.3521 47.4425 39.9407 47.465 40.5347 47.465C53.4942 47.465 63.9999 36.9594 63.9999 23.9999C63.9999 11.0404 53.4942 0.53479 40.5347 0.53479Z" fill="#A61B1B"/>
<path d="M40.5347 42.0179C50.4858 42.0179 58.5527 33.951 58.5527 23.9999C58.5527 14.0489 50.4858 5.98193 40.5347 5.98193C30.5837 5.98193 22.5167 14.0489 22.5167 23.9999C22.5167 33.951 30.5837 42.0179 40.5347 42.0179Z" fill="#F4FBFF"/>
<path d="M40.5347 5.98169C39.9865 5.98169 39.4445 6.00756 38.9087 6.05556C48.0977 6.87769 55.3007 14.5969 55.3007 23.9998C55.3007 33.4027 48.0977 41.1218 38.9087 41.9439C39.4445 41.9918 39.9865 42.0177 40.5347 42.0177C50.4859 42.0177 58.5527 33.9508 58.5527 23.9997C58.5528 14.0487 50.4859 5.98169 40.5347 5.98169Z" fill="#DAF1F4"/>
<path d="M40.5349 12.5612C40.0094 12.5612 39.5834 12.1353 39.5834 11.6098V10.1574C39.5834 9.63193 40.0092 9.20605 40.5349 9.20605C41.0605 9.20605 41.4863 9.63193 41.4863 10.1574V11.6097C41.4863 12.1352 41.0604 12.5612 40.5349 12.5612Z" fill="#365E7D"/>
<path d="M49.2961 16.1901C49.0527 16.1901 48.8091 16.0973 48.6232 15.9115C48.2517 15.5399 48.2517 14.9375 48.6232 14.5659L49.6501 13.539C50.0217 13.1677 50.6241 13.1677 50.9957 13.539C51.3672 13.9107 51.3672 14.513 50.9957 14.8847L49.9689 15.9115C49.7831 16.0973 49.5396 16.1901 49.2961 16.1901Z" fill="#365E7D"/>
<path d="M54.3772 24.9515H52.9251C52.3996 24.9515 51.9736 24.5256 51.9736 24C51.9736 23.4743 52.3994 23.0486 52.9251 23.0486H54.3772C54.9027 23.0486 55.3287 23.4745 55.3287 24C55.3287 24.5255 54.9027 24.9515 54.3772 24.9515Z" fill="#365E7D"/>
<path d="M50.323 34.7395C50.0796 34.7395 49.836 34.6466 49.6501 34.4609L48.6232 33.434C48.2517 33.0623 48.2517 32.46 48.6232 32.0883C48.9949 31.717 49.5972 31.717 49.9689 32.0883L50.9957 33.1152C51.3672 33.4869 51.3672 34.0892 50.9957 34.4609C50.81 34.6466 50.5665 34.7395 50.323 34.7395Z" fill="#365E7D"/>
<path d="M40.5349 38.7938C40.0094 38.7938 39.5834 38.368 39.5834 37.8423V36.3902C39.5834 35.8647 40.0092 35.4388 40.5349 35.4388C41.0605 35.4388 41.4863 35.8647 41.4863 36.3902V37.8423C41.4863 38.368 41.0604 38.7938 40.5349 38.7938Z" fill="#365E7D"/>
<path d="M30.7468 34.7395C30.5033 34.7395 30.2598 34.6466 30.0741 34.4609C29.7024 34.0892 29.7024 33.4869 30.0741 33.1152L31.1009 32.0883C31.4725 31.717 32.075 31.717 32.4465 32.0883C32.8181 32.46 32.8181 33.0623 32.4465 33.434L31.4196 34.4609C31.2338 34.6466 30.9903 34.7395 30.7468 34.7395Z" fill="#365E7D"/>
<path d="M28.1447 24.9515H26.6924C26.1669 24.9515 25.741 24.5256 25.741 24C25.741 23.4743 26.167 23.0486 26.6924 23.0486H28.1447C28.6702 23.0486 29.096 23.4745 29.096 24C29.096 24.5255 28.67 24.9515 28.1447 24.9515Z" fill="#365E7D"/>
<path d="M31.7737 16.1901C31.5302 16.1901 31.2867 16.0973 31.1009 15.9115L30.0741 14.8847C29.7024 14.513 29.7024 13.9107 30.0741 13.539C30.4456 13.1677 31.0481 13.1677 31.4196 13.539L32.4465 14.5659C32.8181 14.9375 32.8181 15.5399 32.4465 15.9115C32.2607 16.0973 32.0172 16.1901 31.7737 16.1901Z" fill="#365E7D"/>
<path d="M44.6996 24.9513H40.5349C40.0094 24.9513 39.5834 24.5254 39.5834 23.9998V15.9845C39.5834 15.459 40.0092 15.0331 40.5349 15.0331C41.0605 15.0331 41.4863 15.459 41.4863 15.9845V23.0483H44.6996C45.2251 23.0483 45.6511 23.4742 45.6511 23.9997C45.6511 24.5252 45.2251 24.9513 44.6996 24.9513Z" fill="#2B4D66"/>
</svg>
