<svg width="64" height="30" viewBox="0 0 64 30" fill="none" xmlns="http://www.w3.org/2000/svg">
<path d="M35.9276 14.9994L35.9264 15.0007L35.6251 18.6169L32.0001 19.0369L28.5835 18.3669L28.0739 15.0007L28.7085 12.0753L32.0001 10.9632L35.0417 11.2419L35.9276 14.9994Z" fill="#CF1124"/>
<path d="M21.7176 21.5331C20.0139 23.2856 17.6314 24.3756 15.0001 24.3756C9.83137 24.3756 5.62512 20.1694 5.62512 15.0006C5.62512 9.83064 9.83137 5.62439 15.0001 5.62439C17.6314 5.62439 20.0139 6.71439 21.7176 8.46564L28.0739 15.0006L32.0001 10.9631L25.7526 4.54064C23.0276 1.73939 19.2176 -0.000610352 15.0001 -0.000610352C6.71637 -0.000610352 0.00012207 6.71564 0.00012207 15.0006C0.00012207 23.2844 6.71637 30.0006 15.0001 30.0006C19.2176 30.0006 23.0276 28.2606 25.7526 25.4594L32.0001 19.0369L28.0739 15.0006L21.7176 21.5331Z" fill="#CF1124"/>
<path d="M32.0001 19.0369L25.7526 25.4594C23.0276 28.2606 19.2176 30.0006 15.0001 30.0006C6.71637 30.0006 0.00012207 23.2844 0.00012207 15.0006H5.62512C5.62512 20.1694 9.83137 24.3756 15.0001 24.3756C17.6314 24.3756 20.0139 23.2856 21.7176 21.5331L28.0739 15.0006L32.0001 19.0369Z" fill="#A61B1B"/>
<path d="M49.0001 -0.000610352C44.7826 -0.000610352 40.9726 1.73939 38.2476 4.54064L32.0001 10.9631L35.9276 14.9994L42.2826 8.46564C43.9864 6.71439 46.3689 5.62439 49.0001 5.62439C54.1689 5.62439 58.3751 9.83064 58.3751 15.0006C58.3751 20.1694 54.1689 24.3756 49.0001 24.3756C46.3689 24.3756 43.9864 23.2856 42.2826 21.5331L35.9289 15.0006L35.9276 14.9994L35.9264 15.0006L32.0001 19.0369L38.2476 25.4594C40.9726 28.2606 44.7826 30.0006 49.0001 30.0006C57.2839 30.0006 64.0001 23.2844 64.0001 15.0006C64.0001 6.71564 57.2839 -0.000610352 49.0001 -0.000610352Z" fill="#A61B1B"/>
<path d="M64.0001 15.0006C64.0001 23.2844 57.2839 30.0006 49.0001 30.0006C44.7826 30.0006 40.9726 28.2606 38.2476 25.4594L32.0001 19.0369L35.9264 15.0006H35.9289L42.2826 21.5331C43.9864 23.2856 46.3689 24.3756 49.0001 24.3756C54.1689 24.3756 58.3751 20.1694 58.3751 15.0006H64.0001Z" fill="#CF1124"/>
</svg>
