<svg width="52" height="64" viewBox="0 0 52 64" fill="none" xmlns="http://www.w3.org/2000/svg">
<path d="M29.9021 62.9545L40.8278 56.6468C47.2671 52.9293 51.234 46.0587 51.234 38.6233V11.6978C51.234 10.3108 50.1512 9.1581 48.766 9.08747C37.058 8.49122 30.7001 3.7231 27.8615 0.787345C26.8463 -0.26253 25.154 -0.26253 24.1388 0.787345C21.3002 3.7231 14.9422 8.49122 3.2342 9.08747C1.84895 9.15797 0.766205 10.3107 0.766205 11.6978V38.6233C0.766205 46.0587 4.73308 52.9292 11.1723 56.6468L22.0981 62.9545C24.5127 64.3485 27.4875 64.3485 29.9021 62.9545Z" fill="#CF1124"/>
<path d="M18.4561 53.7195C13.5389 53.7195 8.86994 52.6573 4.66544 50.7509C6.36294 53.1186 8.56481 55.1415 11.1726 56.647L22.0983 62.9546C24.5129 64.3486 27.4877 64.3486 29.9023 62.9546L40.8281 56.647C47.2674 52.9295 51.2342 46.0589 51.2342 38.6235V26.8779C48.1749 42.1851 34.6632 53.7195 18.4561 53.7195Z" fill="#A61B1B"/>
<path d="M26 58.7971C25.544 58.7971 25.0943 58.6766 24.6993 58.4486L13.7735 52.1409C8.95953 49.3617 5.96902 44.1821 5.96902 38.6233V15.2574C5.96902 14.6038 6.45415 14.0494 7.10265 13.9679C15.7744 12.8768 21.6047 9.65244 25.197 6.81882C25.6681 6.44719 26.3319 6.44719 26.803 6.81882C30.3955 9.65257 36.2257 12.8768 44.8974 13.9679C45.5459 14.0496 46.031 14.6039 46.031 15.2574V38.6234C46.031 44.1822 43.0405 49.3618 38.2265 52.1411L27.3008 58.4487C26.9058 58.6766 26.456 58.7971 26 58.7971Z" fill="#B6E0FE"/>
<path d="M14.0336 49.297C12.6584 49.297 11.3033 49.2121 9.9718 49.0507C11.0552 50.2595 12.3318 51.3085 13.7737 52.1408L24.6994 58.4485C25.0943 58.6765 25.5442 58.797 26.0002 58.797C26.4562 58.797 26.9059 58.6765 27.3009 58.4485L38.2267 52.1408C43.0407 49.3615 46.0312 44.182 46.0312 38.6232V25.5668C41.8743 39.299 29.1224 49.297 14.0336 49.297Z" fill="#9BCBED"/>
<path d="M22.0975 44.3759C21.0987 44.3759 20.1001 43.9951 19.3381 43.233L11.5332 35.4282C10.0092 33.9042 10.0092 31.4332 11.5332 29.9092C13.0572 28.3852 15.5281 28.3852 17.0521 29.9092L22.0976 34.9547L34.948 22.1043C36.472 20.5803 38.9428 20.5803 40.4668 22.1043C41.9908 23.6283 41.9908 26.0993 40.4668 27.6233L24.857 43.2329C24.095 43.9949 23.0963 44.3759 22.0975 44.3759Z" fill="#62B0E8"/>
<path d="M40.4669 22.1042C40.0717 21.7091 39.6127 21.4173 39.1234 21.2271C39.667 22.6254 39.3752 24.2737 38.2464 25.4027L22.6366 41.0124C21.8746 41.7744 20.876 42.1553 19.8772 42.1553C18.8785 42.1553 17.8799 41.7744 17.1179 41.0124L19.3384 43.2329C20.1004 43.9949 21.099 44.3758 22.0977 44.3758C23.0965 44.3758 24.0951 43.9949 24.8571 43.2329L40.4669 27.6232C41.9909 26.0992 41.9909 23.6282 40.4669 22.1042Z" fill="#2680C2"/>
</svg>
