<svg width="64" height="64" viewBox="0 0 64 64" fill="none" xmlns="http://www.w3.org/2000/svg">
<path d="M32.0001 64C49.6732 64 64.0001 49.6731 64.0001 32C64.0001 14.3269 49.6732 0 32.0001 0C14.327 0 0.00012207 14.3269 0.00012207 32C0.00012207 49.6731 14.327 64 32.0001 64Z" fill="#A3D1FF"/>
<path d="M32.0001 3.86328V60.1369C47.5396 60.1369 60.137 47.5396 60.137 32.0001C60.137 16.4606 47.5396 3.86328 32.0001 3.86328Z" fill="#A61B1B"/>
<path d="M56.2739 32.0001C56.2739 16.4606 45.4062 3.86328 32.0002 3.86328C16.4607 3.86328 3.8634 16.4606 3.8634 32.0001C3.8634 47.5396 16.4607 60.1369 32.0002 60.1369C45.4062 60.1369 56.2739 47.5396 56.2739 32.0001Z" fill="#CF1124"/>
<path d="M50.2302 22.8119C49.6383 21.6398 48.0702 21.3934 47.1418 22.3218L46.7426 22.721L32.0018 52.4104C43.2349 52.4095 52.4107 43.2332 52.4107 31.9999C52.4107 28.6948 51.625 25.5735 50.2302 22.8119Z" fill="#E5F2FF"/>
<path d="M48.5474 31.9999C48.5474 28.6585 47.8963 25.5049 46.7424 22.7211L22.3219 47.1415C21.3935 48.07 21.64 49.638 22.8121 50.23C25.5735 51.6246 28.6948 52.4104 31.9997 52.4104C41.1397 52.4092 48.5474 43.2716 48.5474 31.9999Z" fill="white"/>
<path d="M11.5896 32.0001C11.5896 35.3051 12.3754 38.4266 13.7701 41.188C14.3621 42.3601 15.9301 42.6065 16.8586 41.6781L41.6782 16.8585C41.9492 16.5875 42.1172 16.2617 42.1942 15.922C39.3845 13.2078 35.8456 11.5895 32.0001 11.5895C20.7662 11.5895 11.5896 20.7662 11.5896 32.0001Z" fill="white"/>
<path d="M41.1882 13.77C38.4266 12.3752 35.3053 11.5895 32.0002 11.5895L42.1943 15.922C42.3811 15.0975 42.0182 14.1891 41.1882 13.77Z" fill="white"/>
</svg>
