<svg width="1242" height="242" viewBox="0 0 1242 242" fill="none" xmlns="http://www.w3.org/2000/svg">
<path d="M968 17.5C967.2 17.7 963.1 18.4 959 19C934.4 23 909.6 37 893.7 55.8C872.2 81.1 864.1 112.1 870.6 143.5C879.1 184.7 913.3 217.6 956.3 226.1C974.3 229.6 1000.4 228.3 1016.1 223C1061.3 207.7 1091 168.1 1091 122.9C1091 105.4 1087.4 91.3 1078.9 75C1060.5 39.8 1020.6 16.6 979.1 17.1C973.8 17.2 968.8 17.4 968 17.5ZM995 29.5C1007.3 31.4 1013.5 33.2 1024.5 38.5C1038.6 45.3 1051.6 56 1060.9 68.5C1077.1 90.2 1082.7 118.8 1076 144.5C1067.6 176.3 1043.7 200.8 1010 211.8C992.1 217.7 965.8 217.4 947.5 211.1C908.5 197.6 883.1 165.6 881.3 127.9C880 101.1 887.8 79.3 905.8 59.9C927.6 36.2 962.2 24.5 995 29.5Z" fill="#6600FF"/>
<path d="M937.7 66C931 67.7 924.4 71.8 919.5 77.2C912.2 85.3 910.5 89.7 910.5 101C910.5 116.8 910.6 117 947.3 153.7C964.4 170.9 978.9 185 979.5 185C980.1 185 994.8 170.7 1012.2 153.3C1049 116.4 1049.4 115.9 1049.4 101C1049.4 93.6 1049 91.7 1046.4 86C1042.8 78.5 1036.1 71.7 1028.5 68C1024.2 65.8 1022.1 65.5 1013.5 65.5C1004.5 65.5 1003 65.8 998 68.3C991.7 71.6 985 77.7 982.4 82.6C980.2 86.7 979.5 86.8 977.6 83.2C975.1 78.6 966.8 71.2 960.8 68.5C954.4 65.6 943.9 64.5 937.7 66Z" fill="#FF0000"/>
<path d="M191 23.6C182.4 25.4 169.8 31.8 163.2 37.6C152.8 46.8 146.2 57.8 143 71.5C141.2 79.4 141 83.6 141 125.8C141 168.3 141.2 172.1 143 179.5C148.8 202.5 165.5 220.1 187.1 226L194.6 228L491.6 227.8L788.5 227.5L794.8 225.1C808.2 220.1 821.2 209.2 828.3 197.2C829.8 194.6 832.2 188.9 833.7 184.5L836.5 176.5L836.8 129.1C837.2 74.8 836.8 71.4 829.8 57C821.8 40.5 804.7 27.3 786.5 23.5C776.2 21.4 201 21.4 191 23.6ZM392.6 39.8C400.1 43.6 406.6 50.7 410 58.6L412.5 64.5L412.8 121.8C413 171.4 412.9 180 411.5 185.3C406.6 204.6 391.4 215 370.3 213.8C352.5 212.7 341.1 204.5 335.4 188.5C333.9 184.4 333.5 179.1 333 158.5L332.5 133.5H320.5H308.5L308 173L307.5 212.5L297.8 212.8L288 213.1V125V37H298H308V76.5V116H320.5H333V93.2C333 64.1 334.7 56.9 343.7 46.9C351 38.8 359.6 35.9 375 36.3C385.6 36.6 387 36.9 392.6 39.8ZM592.2 39.8C600 43.6 604.2 48 608.2 56.6C612.5 65.9 613.3 78 612.8 133.3C612.4 172.5 612 181.4 610.7 186C607.2 198.2 599.7 207 589.1 211.2C584.5 213 581.6 213.4 572.5 213.4C559.5 213.4 553 211.4 545.6 204.9C539.7 199.7 536.6 194.4 534 184.8C532 177.4 531.9 175.4 532.2 122.3C532.5 68.4 532.6 67.4 534.8 60.8C538.7 49.3 546.9 41.1 558.3 37.4C561.1 36.5 566.4 36.1 574 36.3C584.8 36.5 586 36.7 592.2 39.8ZM267.8 124.7L267.5 212.5L260 212.8C255.9 213 251.5 212.8 250.2 212.5L248 212V133.7L248.1 55.5L231.6 55.2L215.2 55L214.6 72.2C214.2 81.7 213.3 108.8 212.5 132.5C210.9 178.3 209.8 188.6 205.5 197C200.7 206.5 190.6 212.2 178 212.4L172.5 212.5V203.5V194.5L177.1 194C183.2 193.3 186.8 190.7 189.1 185.6C191.3 180.5 192.1 166.5 194.5 90C195.4 62.2 196.3 38.9 196.6 38.2C196.9 37.3 204.9 37 232.5 37H268L267.8 124.7ZM506 46V55H479H452V82.4V109.8L469.8 110.2C486.8 110.5 487.7 110.6 493.8 113.4C502.3 117.3 508.3 124 511.1 132.8C512.9 138.3 513.4 142.7 513.8 156.6C514.6 186.7 510 199.8 496.1 207.3C487.7 211.9 480 213 454.8 213H432V125V37H469H506V46ZM690.1 40.6C702.6 46.5 707 55.1 707.8 75.4C708.4 90.6 707 99.7 703.2 106.3C700.4 111 693.8 117 691.4 117C688.6 117 690.2 118.9 695.5 121.9C702.5 125.9 707.3 132.9 709.6 142.5C712 153.1 711.2 182.3 708.2 190C705.1 197.9 701 203 694.8 206.8C686.3 211.9 678.8 213 652.8 213H630V124.9V36.9L656.8 37.2L683.5 37.5L690.1 40.6ZM749 71.4V105.8L764.3 106.2C782.4 106.8 788.7 108.7 795.8 115.8C805.2 125.1 807.4 134.4 806.8 163C806.4 181.2 806.1 184.1 804.1 189.1C799.8 200.2 792.6 207.4 782.6 210.7C778.6 212 772.2 212.4 753.3 212.8L729 213.2V125.1V37H739H749V71.4Z" fill="#6600FF"/>
<path d="M364.5 55.4C360.7 57.1 357.5 60.2 355.3 64.3C353.6 67.2 353.5 72.2 353.2 123.5L352.9 179.5L355.7 185C359.1 191.5 362.3 194 368.7 195C382.5 197.2 391.2 190.5 393.1 176.3C394.2 167.1 394.2 82.4 393 73.1C391.8 63.9 388.6 58.7 382.7 55.9C377.8 53.7 368.9 53.5 364.5 55.4Z" fill="#6600FF"/>
<path d="M562.5 56.3C558 58.9 554.5 63.6 553 69.1C552.3 71.6 552 92.2 552.2 127.3L552.5 181.7L555.5 186.5C559.4 192.8 564.1 195.2 572.4 195.2C583.3 195.2 588.3 191.5 591.4 181.1C592.8 176.4 593 168.7 593 125.4C593 93.3 592.6 73.3 591.9 70.1C589.7 59.6 582.9 54 572.5 54C568.1 54 565.4 54.6 562.5 56.3Z" fill="#6600FF"/>
<path d="M452 160.4V194H466.8C480.9 194 481.7 193.9 485.3 191.5C487.3 190.1 490 187 491.2 184.7C493.4 180.7 493.5 179.3 493.5 160.5C493.5 141.8 493.4 140.2 491.3 136.4C487.6 129.6 482.6 127.7 465.8 127.2L452 126.7V160.4Z" fill="#6600FF"/>
<path d="M650 83V111.2L662.3 110.8C673.4 110.5 675 110.2 679.2 107.7C686.2 103.6 687.4 100.2 687.8 83.9C688.1 71.6 687.9 69.7 686 65.1C682.4 56.9 679.3 55.6 663.3 55.2L650 54.8V83Z" fill="#6600FF"/>
<path d="M650 161.5V194H664C679.5 194 681.8 193.4 686.3 188C690.2 183.4 691 179 691 162.4C691 144.1 689.7 138.5 684.3 134.1C679.7 130.3 673.7 129 660.5 129H650V161.5Z" fill="#6600FF"/>
<path d="M749.8 123.5C749.3 124 749 140 749 159.2V194H761.5C776.5 194 780.1 192.7 784 185.9C786.4 181.7 786.5 180.7 786.8 161.4C787 148.9 786.7 139.7 786 137.2C784.6 132 780.8 127.3 776.1 125.4C772.2 123.8 751 122.3 749.8 123.5Z" fill="#6600FF"/>
</svg>
