<?xml version="1.0" standalone="no"?>
<!DOCTYPE svg PUBLIC "-//W3C//DTD SVG 20010904//EN"
 "http://www.w3.org/TR/2001/REC-SVG-20010904/DTD/svg10.dtd">
<svg version="1.0" xmlns="http://www.w3.org/2000/svg"
 width="4000.000000pt" height="4000.000000pt" viewBox="0 0 4000.000000 4000.000000"
 preserveAspectRatio="xMidYMid meet">

<g transform="translate(0.000000,4000.000000) scale(0.100000,-0.100000)"
fill="#000000" stroke="none">
<path d="M22495 39621 c-240 -52 -426 -219 -503 -451 -36 -108 -43 -203 -36
-515 6 -281 6 -292 -15 -345 -29 -74 -49 -95 -118 -128 l-58 -27 -6350 0
-6350 0 -56 26 c-55 26 -91 62 -122 125 -23 45 -47 164 -83 409 -32 225 -72
347 -149 465 -68 103 -158 180 -269 230 -341 155 -735 -18 -867 -381 -36 -99
-49 -214 -41 -359 13 -216 -17 -260 -218 -320 -259 -78 -417 -219 -494 -441
-92 -267 -33 -542 159 -735 170 -171 344 -225 612 -190 67 9 141 16 165 16 68
0 134 -27 168 -68 64 -77 60 61 60 -2156 1 -1788 3 -2037 17 -2161 12 -106 17
-274 20 -694 l4 -553 -26 -41 c-15 -22 -43 -58 -64 -81 -36 -41 -55 -68 -68
-96 -4 -8 -15 -21 -25 -28 -17 -13 -18 -68 -18 -1308 0 -1138 2 -1304 16
-1367 15 -71 42 -137 56 -137 3 0 9 -9 13 -19 9 -30 104 -86 170 -101 50 -11
627 -13 3310 -11 1967 1 3289 -2 3350 -8 150 -14 224 -29 247 -51 12 -11 25
-17 29 -14 12 7 59 -48 59 -68 0 -11 8 -18 20 -18 12 0 25 -10 31 -22 19 -43
38 -73 55 -85 9 -6 13 -16 9 -22 -3 -6 -3 -11 2 -11 10 0 43 -57 43 -76 0 -8
9 -14 20 -14 13 0 20 -7 20 -19 0 -11 9 -23 20 -26 11 -3 20 -10 20 -15 0 -5
17 -25 38 -45 71 -68 82 -80 82 -88 0 -4 5 -13 10 -20 6 -7 19 -23 30 -36 12
-14 26 -21 35 -17 9 3 15 0 15 -10 0 -8 10 -26 23 -39 12 -13 27 -30 33 -37 6
-7 21 -20 33 -28 11 -8 21 -25 21 -37 0 -13 5 -23 10 -23 6 0 10 -7 10 -16 0
-10 6 -14 15 -10 10 4 15 -1 15 -15 0 -11 4 -17 10 -14 5 3 26 -10 46 -29 21
-20 40 -36 44 -36 4 0 10 -9 13 -20 3 -11 12 -20 21 -20 9 0 16 -7 16 -15 0
-8 14 -17 35 -21 30 -5 35 -10 29 -27 -6 -18 -3 -19 25 -14 28 6 31 4 31 -17
0 -20 4 -23 22 -18 17 4 20 2 15 -11 -4 -10 -2 -16 5 -14 16 3 23 -34 9 -43
-8 -5 -7 -11 5 -21 12 -9 15 -10 10 -1 -5 8 10 30 41 61 26 28 53 56 59 63 69
81 177 127 204 87 3 -4 17 -9 31 -11 14 -2 38 -11 52 -21 14 -9 43 -17 64 -17
58 0 240 -71 258 -101 3 -4 12 -6 21 -2 16 6 64 -32 64 -51 0 -11 95 -56 118
-56 6 0 12 -4 12 -9 0 -5 15 -12 34 -15 44 -8 52 -20 59 -81 3 -27 10 -51 16
-53 6 -2 11 -10 11 -18 0 -8 10 -14 25 -14 32 0 104 -36 112 -55 3 -9 19 -15
41 -15 82 0 225 -99 264 -183 45 -96 52 -106 79 -116 23 -8 29 -16 29 -38 0
-16 -4 -33 -9 -38 -29 -31 -14 -63 60 -135 20 -19 46 -55 59 -80 12 -25 33
-59 46 -77 13 -17 24 -35 24 -40 0 -4 22 -30 49 -57 27 -26 54 -60 61 -75 6
-14 30 -39 53 -56 73 -52 123 -103 142 -147 11 -24 37 -70 58 -103 62 -95 86
-147 93 -200 4 -28 18 -74 30 -104 13 -29 24 -60 24 -68 0 -8 4 -11 10 -8 6 4
7 -6 4 -25 -5 -22 -3 -30 7 -30 8 0 22 -25 33 -62 11 -35 26 -70 33 -79 7 -8
13 -21 13 -27 0 -7 4 -12 9 -12 5 0 13 -9 16 -20 3 -11 12 -20 19 -20 8 0 19
-14 26 -31 7 -17 20 -38 28 -46 17 -16 30 -83 31 -151 1 -47 -18 -76 -43 -66
-10 4 -16 1 -16 -9 0 -26 11 -47 25 -47 7 0 16 -15 19 -32 5 -23 20 -43 51
-65 51 -38 73 -41 108 -13 14 11 33 20 42 20 28 0 92 -40 106 -67 7 -13 24
-26 38 -29 14 -4 31 -11 36 -18 6 -6 22 -18 37 -26 14 -8 46 -32 70 -52 23
-21 61 -53 83 -72 22 -19 49 -51 60 -71 18 -35 18 -38 2 -67 -9 -16 -17 -35
-17 -42 0 -7 -9 -21 -20 -31 -31 -28 -25 -68 15 -109 34 -36 44 -71 29 -110
-7 -18 -39 -22 -49 -6 -3 5 -18 10 -31 10 -26 0 -63 34 -64 58 0 13 -60 14
-60 0 0 -4 -7 -8 -15 -8 -9 0 -15 -9 -15 -25 0 -20 -5 -25 -25 -25 -14 0 -25
6 -25 13 0 7 -14 17 -31 22 -24 8 -34 19 -45 49 -7 22 -20 43 -28 48 -9 5 -16
17 -16 28 0 10 -15 30 -32 44 -18 14 -43 35 -55 46 -14 13 -36 20 -60 20 -34
0 -40 -4 -57 -40 -19 -39 -36 -52 -36 -28 0 7 -17 -7 -39 -32 -42 -48 -45 -80
-5 -80 13 0 24 4 24 8 0 4 16 8 35 8 19 0 35 -4 35 -8 0 -4 9 -8 20 -8 11 0
20 -4 20 -10 0 -5 9 -10 20 -10 13 0 20 -7 20 -20 0 -11 -4 -20 -8 -20 -4 0
-16 -13 -25 -30 -11 -17 -23 -27 -31 -24 -8 3 -17 -3 -21 -15 -4 -13 -20 -24
-45 -31 -37 -10 -38 -11 -29 -42 5 -18 16 -36 24 -41 8 -4 15 -13 15 -20 0 -7
8 -17 19 -24 10 -6 29 -37 42 -67 12 -31 26 -56 31 -56 4 0 8 -9 8 -19 0 -11
5 -23 10 -26 6 -3 10 -21 11 -38 0 -18 3 -26 6 -19 7 19 23 14 23 -7 0 -10 7
-21 15 -25 8 -3 15 -13 15 -21 0 -9 5 -13 10 -10 6 3 10 1 10 -4 0 -6 9 -11
20 -11 11 0 20 -4 20 -9 0 -5 12 -11 28 -13 23 -2 28 -8 30 -36 2 -19 -3 -51
-11 -71 -14 -35 -13 -46 13 -162 31 -134 66 -238 93 -270 17 -20 25 -119 9
-119 -12 0 -32 -62 -32 -99 0 -18 5 -42 12 -54 21 -38 18 -79 -8 -99 -44 -35
-41 -106 6 -148 9 -8 23 -32 31 -53 14 -39 10 -48 -24 -60 -5 -1 -11 -29 -14
-62 -5 -57 -4 -62 28 -96 19 -20 41 -47 49 -59 24 -37 60 -70 75 -70 8 0 17
-15 21 -36 6 -33 3 -40 -30 -70 -42 -38 -48 -80 -16 -109 11 -10 20 -24 20
-32 0 -7 4 -21 10 -31 5 -9 14 -36 20 -58 6 -25 26 -58 49 -82 21 -22 42 -51
46 -63 10 -35 59 -133 70 -141 6 -5 5 -8 -2 -8 -7 0 -13 -5 -13 -10 0 -17 -51
-60 -78 -67 -36 -9 -74 -49 -76 -80 -1 -15 -4 -33 -8 -39 -9 -13 14 -80 34
-100 15 -16 58 -29 136 -43 23 -4 62 -22 85 -38 23 -17 62 -36 85 -43 24 -6
46 -19 49 -28 4 -9 11 -20 17 -24 6 -4 10 -25 10 -46 -1 -39 -1 -40 39 -45 28
-4 50 -1 68 10 24 15 29 14 50 -1 13 -9 31 -16 40 -16 35 0 95 -76 85 -108
-10 -30 -41 -62 -60 -62 -15 0 -46 -22 -46 -32 0 -8 188 4 207 14 14 7 48 9
93 4 45 -4 70 -2 70 4 0 5 9 10 20 10 13 0 20 7 20 19 0 11 4 23 10 26 5 3 7
18 4 34 -4 20 1 35 21 60 36 42 68 57 140 64 91 9 94 11 128 49 66 73 80 106
81 188 1 72 -27 155 -50 146 -25 -10 -37 114 -13 139 5 5 9 33 9 62 0 55 -21
103 -45 103 -6 0 -17 11 -23 25 -6 14 -16 25 -22 25 -5 0 -10 13 -10 28 0 16
-8 34 -20 42 -22 16 -26 56 -9 93 8 18 25 28 64 37 29 7 60 10 68 7 9 -3 44
-1 79 4 34 5 99 14 143 20 56 7 100 21 147 45 37 19 75 34 85 34 10 0 47 11
83 23 54 19 66 28 74 52 5 17 29 71 53 122 64 135 132 185 182 132 23 -25 33
-64 65 -249 2 -14 13 -50 24 -80 11 -30 25 -77 31 -105 5 -27 20 -77 31 -110
12 -33 24 -68 27 -77 8 -26 -43 -47 -100 -41 -54 6 -70 -3 -96 -56 -39 -78
-53 -181 -49 -375 l3 -182 -64 -84 c-35 -46 -70 -99 -78 -119 -21 -49 -23
-159 -3 -171 33 -21 59 -10 107 46 104 121 138 150 230 197 l91 46 85 -6 c88
-6 129 6 154 46 37 60 64 118 88 187 23 66 28 98 30 199 1 68 9 148 18 185 35
143 19 216 -68 305 -79 81 -155 229 -140 274 11 37 44 32 119 -18 39 -26 111
-64 160 -84 98 -40 157 -77 180 -112 13 -20 14 -43 5 -167 -9 -122 -15 -153
-40 -208 -15 -36 -33 -94 -38 -130 -18 -125 -49 -209 -133 -360 -4 -8 -13 -26
-19 -40 -6 -14 -16 -32 -23 -40 -7 -8 -12 -37 -12 -65 1 -42 5 -51 26 -62 40
-20 90 -16 126 12 18 14 42 25 53 25 16 0 21 -6 21 -25 0 -14 -4 -25 -10 -25
-5 0 -10 -10 -10 -22 0 -25 -53 -88 -73 -88 -16 0 -33 -43 -41 -100 -9 -68
-25 -120 -39 -120 -7 -1 -23 -15 -37 -32 -14 -17 -39 -47 -55 -67 -57 -66 -95
-119 -95 -130 0 -6 -4 -11 -8 -11 -5 0 -27 -17 -49 -37 -75 -70 -197 -153
-225 -153 -9 0 -30 -11 -46 -25 -17 -14 -34 -25 -38 -25 -15 0 -208 -100 -226
-117 -9 -8 -23 -31 -29 -51 -6 -19 -20 -50 -31 -67 -10 -18 -16 -39 -13 -48 7
-17 -29 -90 -39 -80 -4 4 -10 2 -14 -4 -11 -18 -62 -4 -62 18 0 10 -9 25 -21
33 -12 8 -18 19 -14 25 3 6 2 11 -3 11 -4 0 -16 16 -25 35 -14 29 -22 35 -47
35 -16 0 -30 5 -30 10 0 20 -18 10 -24 -14 -5 -21 -14 -24 -96 -35 -49 -7 -90
-17 -90 -22 0 -5 -13 -9 -30 -9 -16 0 -30 -4 -30 -10 0 -5 -7 -10 -15 -10 -9
0 -15 -9 -15 -25 0 -18 -5 -25 -20 -25 -15 0 -20 -7 -20 -25 0 -16 -6 -25 -15
-25 -8 0 -15 -9 -15 -20 0 -16 -7 -20 -35 -20 -29 0 -36 4 -41 27 -5 17 -3 28
4 31 17 5 15 39 -3 46 -18 7 -20 47 -3 64 7 7 27 12 45 12 18 0 33 5 33 10 0
6 7 10 15 10 15 0 20 26 9 54 -3 9 -14 16 -24 16 -10 0 -31 7 -46 15 -63 33
-134 9 -134 -45 0 -11 -4 -20 -10 -20 -5 0 -10 -9 -10 -20 0 -11 -5 -20 -11
-20 -16 0 -39 -26 -39 -44 0 -12 6 -15 25 -10 23 6 25 4 25 -30 l0 -36 -59 0
c-94 0 -119 8 -123 39 -2 15 -12 30 -25 36 -32 14 -29 25 7 25 28 0 30 2 30
39 0 55 -8 71 -36 71 -13 0 -24 5 -24 10 0 6 -11 10 -25 10 -26 0 -34 -15 -12
-23 9 -4 9 -8 -2 -15 -12 -9 -12 -13 2 -27 10 -9 17 -18 17 -21 0 -2 -22 -4
-50 -4 -38 0 -50 4 -50 15 0 10 -10 15 -30 15 -23 0 -30 5 -30 19 0 11 -6 22
-12 25 -10 5 -10 7 0 12 19 9 16 48 -4 40 -9 -3 -34 -6 -56 -6 -38 0 -40 -1
-34 -25 5 -20 3 -25 -14 -25 -11 0 -20 -4 -20 -10 0 -6 -28 -10 -64 -10 -56 0
-66 3 -71 20 -4 14 -15 20 -36 20 -25 0 -30 -5 -35 -30 -5 -21 -12 -30 -25
-30 -13 0 -19 -7 -19 -24 0 -13 -6 -27 -12 -30 -10 -5 -10 -7 0 -12 6 -3 12
-12 12 -20 0 -8 9 -14 20 -14 11 0 23 -8 26 -17 3 -10 11 -28 17 -41 8 -17 7
-32 -3 -59 -9 -27 -10 -38 -1 -41 6 -2 11 -12 11 -23 0 -16 7 -19 54 -19 55 0
66 5 131 68 13 12 29 22 35 22 5 0 10 5 10 10 0 6 20 10 45 10 25 0 45 -4 45
-10 0 -5 9 -10 20 -10 13 0 20 -7 20 -20 0 -11 5 -20 10 -20 6 0 10 -7 10 -15
0 -8 -4 -15 -10 -15 -5 0 -10 -8 -10 -18 0 -10 -9 -24 -20 -32 -16 -12 -20
-26 -20 -72 0 -45 3 -58 15 -58 11 0 15 -11 15 -41 0 -36 -2 -40 -22 -37 -17
2 -25 13 -31 41 -8 31 -13 37 -35 37 -19 0 -31 -8 -39 -25 -6 -14 -7 -25 -2
-25 5 0 9 -9 9 -20 0 -11 5 -40 12 -65 9 -32 17 -45 30 -45 10 0 18 -5 18 -11
0 -7 -11 -9 -27 -6 -31 6 -133 -13 -133 -25 0 -4 -9 -8 -20 -8 -27 0 -25 -23
4 -54 23 -25 66 -36 66 -16 0 20 35 50 59 50 21 0 61 32 61 50 0 4 21 10 48
13 26 4 59 9 75 13 20 5 27 3 27 -9 0 -8 -13 -17 -30 -21 -24 -4 -32 -12 -36
-35 -4 -17 -15 -33 -25 -36 -11 -4 -19 -11 -19 -16 0 -5 -9 -9 -20 -9 -26 0
-43 -43 -35 -90 l6 -35 -56 0 c-46 0 -55 3 -55 18 0 14 -9 17 -45 17 -25 0
-45 5 -45 10 0 6 -9 10 -20 10 -15 0 -20 7 -20 28 0 21 -2 24 -10 12 -12 -19
-27 -4 -32 30 -2 19 -10 26 -30 28 -25 3 -28 0 -28 -27 0 -18 -10 -41 -25 -57
-40 -43 -29 -121 21 -159 25 -19 88 -19 104 0 7 8 19 15 26 15 8 0 14 5 14 10
0 6 28 10 65 10 58 0 65 -2 65 -20 0 -13 5 -18 15 -14 23 9 18 -15 -10 -40
-14 -13 -25 -31 -25 -40 0 -9 -8 -16 -20 -16 -11 0 -23 -7 -26 -15 -4 -9 -19
-15 -35 -15 -16 0 -29 -5 -29 -11 0 -7 -10 -9 -25 -5 -18 5 -25 2 -25 -9 0
-11 -11 -15 -43 -15 -30 0 -52 -7 -67 -20 l-23 -20 21 -19 c12 -10 22 -28 22
-40 0 -11 5 -21 10 -21 13 0 13 -57 0 -65 -5 -3 -10 -14 -10 -23 0 -19 -61
-64 -93 -69 -27 -4 -39 -22 -32 -50 3 -13 1 -23 -5 -23 -5 0 -10 -4 -10 -10 0
-5 7 -10 15 -10 9 0 15 -9 15 -25 0 -20 -5 -25 -25 -25 -14 0 -25 -4 -25 -10
0 -5 7 -10 15 -10 8 0 15 -4 15 -10 0 -5 -11 -10 -25 -10 -16 0 -25 -6 -25
-15 0 -8 -6 -15 -14 -15 -8 0 -28 -8 -45 -17 -26 -15 -31 -24 -31 -55 0 -34 3
-38 25 -38 14 0 25 5 25 10 0 6 9 10 20 10 13 0 20 -7 20 -20 0 -15 7 -20 24
-20 33 0 38 -12 31 -64 -7 -43 -7 -44 -53 -49 -34 -4 -50 -2 -58 9 -6 8 -16
14 -23 14 -6 0 -11 9 -11 20 0 11 -5 20 -11 20 -6 0 -8 9 -4 20 5 15 2 20 -12
18 -35 -3 -82 15 -88 33 -4 11 -11 19 -16 19 -5 0 -9 7 -9 16 0 13 -12 15 -67
12 l-68 -3 2 88 c1 68 -2 89 -13 94 -8 3 -14 11 -14 18 0 16 -56 27 -96 19
-22 -4 -34 -15 -44 -37 -14 -35 -20 -79 -11 -87 12 -11 30 -48 25 -53 -3 -3
-29 -3 -58 0 -48 5 -55 3 -80 -22 -20 -20 -24 -31 -17 -38 6 -6 11 -19 11 -29
0 -14 8 -18 35 -18 19 0 35 5 35 10 0 6 9 10 20 10 11 0 20 6 20 14 0 7 11 16
25 18 19 4 25 1 25 -13 0 -9 6 -20 13 -23 10 -5 10 -7 0 -12 -15 -7 -18 -74
-3 -74 6 0 10 -11 10 -25 0 -14 -4 -25 -10 -25 -5 0 -10 -8 -10 -19 0 -15 -10
-19 -52 -25 -79 -9 -85 -8 -112 19 -16 16 -36 25 -56 25 -27 0 -30 -3 -30 -29
0 -16 -6 -32 -12 -34 -13 -5 -3 -16 27 -32 6 -3 5 -7 -2 -11 -25 -11 -13 -24
22 -24 24 0 35 -5 35 -15 0 -8 9 -15 20 -15 16 0 20 -7 22 -37 0 -21 0 -50 -1
-65 -1 -16 6 -35 18 -47 29 -29 30 -101 1 -101 -13 0 -20 7 -20 20 0 28 -30
60 -56 60 -48 0 -54 -9 -54 -77 0 -35 -4 -62 -9 -59 -5 3 -11 -3 -14 -14 -3
-12 -14 -20 -26 -20 -12 0 -21 -4 -21 -10 0 -5 -11 -10 -25 -10 -15 0 -25 -6
-25 -14 0 -8 -9 -18 -20 -21 -29 -9 -29 -75 0 -75 15 0 20 -7 20 -25 0 -20 5
-25 25 -25 14 0 25 -4 25 -10 0 -5 11 -10 25 -10 14 0 25 -4 25 -10 0 -5 18
-10 40 -10 37 0 41 3 47 30 5 27 9 30 43 30 32 0 39 -4 50 -29 6 -17 22 -32
35 -35 13 -3 26 -15 30 -26 3 -10 15 -22 26 -25 10 -4 19 -15 19 -26 0 -10 5
-19 10 -19 6 0 10 -9 10 -20 0 -11 -7 -20 -15 -20 -8 0 -15 -4 -15 -10 0 -5
-6 -10 -14 -10 -14 0 -26 -49 -26 -107 0 -30 -3 -33 -30 -33 -16 0 -30 -4 -30
-10 0 -5 -11 -10 -24 -10 -14 0 -31 -7 -40 -15 -8 -8 -19 -15 -25 -15 -6 0
-11 -11 -11 -25 0 -18 -5 -25 -20 -25 -11 0 -20 5 -20 11 0 30 -60 57 -82 36
-7 -7 -18 -12 -23 -10 -6 2 -16 -10 -22 -27 -13 -34 -43 -41 -43 -10 0 24 -21
70 -32 70 -4 0 -8 9 -8 20 0 20 -8 34 -41 68 -37 39 -61 52 -95 52 -35 0 -64
18 -64 39 0 6 -16 11 -35 11 -25 0 -35 -4 -35 -16 0 -13 -11 -15 -63 -13 l-63
4 -55 -56 c-64 -66 -85 -79 -133 -79 -45 0 -76 -31 -76 -77 0 -18 5 -33 10
-33 15 0 12 -67 -5 -100 -19 -37 -42 -49 -82 -43 -26 4 -33 2 -33 -11 0 -9 -7
-16 -15 -16 -8 0 -15 -9 -15 -20 0 -17 7 -20 46 -20 29 0 51 -6 62 -17 12 -12
13 -18 4 -21 -6 -2 -12 -8 -12 -13 0 -21 -42 -49 -74 -49 -30 0 -33 3 -29 21
6 20 -13 67 -32 81 -5 4 -22 8 -37 8 -21 0 -32 -9 -49 -39 -12 -22 -35 -45
-51 -52 -15 -6 -28 -15 -28 -20 0 -5 -9 -9 -20 -9 -11 0 -20 4 -20 9 0 5 -7
17 -16 26 -12 12 -13 19 -5 29 6 7 9 21 5 30 -7 18 13 49 27 40 5 -3 9 0 9 6
0 7 12 10 28 8 26 -3 27 0 36 50 7 42 6 55 -6 65 -16 13 -41 85 -44 127 -2 23
10 75 25 110 3 8 5 30 3 47 -3 27 -7 32 -25 30 -19 -2 -23 5 -31 52 -7 43 -6
60 7 85 21 41 38 156 26 179 -7 13 -6 17 6 17 8 0 15 5 15 10 0 6 -13 10 -30
10 -16 0 -30 5 -30 10 0 6 5 10 10 10 6 0 10 5 10 10 0 6 -7 10 -15 10 -8 0
-15 7 -15 15 0 8 -5 15 -11 15 -8 0 -10 12 -6 34 3 20 0 45 -9 61 -17 32 -19
101 -3 111 6 3 9 18 6 33 -5 24 13 80 49 156 14 30 18 166 7 233 -4 26 -10 32
-29 32 -35 0 -64 -34 -64 -75 0 -33 -2 -35 -35 -35 -19 0 -35 5 -35 10 0 6 -8
10 -18 10 -22 0 -42 39 -42 81 0 20 10 39 30 59 17 16 30 33 30 37 0 4 9 19
20 33 27 35 27 113 0 147 -11 14 -20 31 -20 39 0 7 -6 15 -12 17 -10 4 -9 8 2
16 18 12 20 161 3 183 -5 7 -16 49 -22 93 -7 44 -22 105 -33 135 -22 55 -65
129 -77 131 -3 0 -56 1 -116 2 -120 2 -165 18 -165 57 0 11 -4 20 -10 20 -15
0 -12 15 8 37 20 23 61 47 69 39 3 -3 12 1 19 9 16 16 19 75 4 75 -5 0 -10 14
-10 31 0 54 -49 153 -79 157 -24 4 -35 -37 -40 -155 -1 -28 -5 -33 -26 -33
-40 0 -72 27 -80 66 -5 29 1 50 29 108 41 84 45 130 16 162 -16 16 -23 43 -30
105 -6 55 -18 102 -34 136 -14 29 -26 59 -26 66 0 7 -4 17 -10 23 -19 19 -53
171 -66 304 -8 74 -22 171 -30 215 -9 44 -20 109 -24 145 -4 36 -13 91 -20
124 -11 47 -11 76 -1 150 22 158 -1 345 -39 321 -4 -3 -11 1 -14 7 -5 10 -7
10 -12 1 -7 -15 -74 -18 -74 -3 0 6 -9 10 -19 10 -11 0 -21 5 -23 10 -2 6 -45
15 -96 21 -92 11 -162 6 -162 -11 0 -17 -77 -12 -84 5 -11 30 -106 7 -106 -26
0 -20 -22 -39 -87 -75 -29 -16 -53 -35 -53 -41 0 -7 -12 -13 -26 -13 -19 0
-41 -15 -75 -49 -27 -28 -49 -55 -49 -61 0 -6 -13 -30 -28 -53 -52 -76 -50
-87 21 -161 36 -38 71 -66 82 -66 12 0 30 15 44 36 30 44 53 54 113 47 39 -5
48 -2 57 15 6 11 8 34 5 51 -4 18 -2 31 4 31 5 0 12 14 16 32 3 18 16 42 28
55 22 24 48 31 48 13 0 -5 7 -10 15 -10 8 0 15 -7 15 -15 0 -10 11 -15 35 -15
24 0 35 5 35 15 0 8 5 15 10 15 6 0 10 -7 10 -15 0 -8 7 -15 16 -15 11 0 13
-6 9 -19 -3 -11 1 -25 9 -32 66 -60 102 -78 146 -72 21 3 40 1 44 -5 4 -6 13
-9 20 -6 7 3 19 -2 26 -11 7 -8 19 -15 27 -15 12 0 14 -7 9 -32 -8 -39 -8 -39
-48 -47 -29 -6 -33 -11 -36 -41 -2 -19 -8 -39 -13 -45 -5 -5 -9 -17 -9 -26 0
-9 -17 -29 -37 -45 -21 -15 -42 -34 -46 -41 -4 -7 -22 -13 -40 -13 -22 0 -41
-10 -65 -32 -33 -32 -35 -33 -125 -33 -99 1 -164 15 -236 52 -26 13 -52 23
-58 23 -7 0 -13 4 -13 8 0 9 -82 30 -143 37 -17 3 -54 7 -80 11 -47 6 -49 5
-86 -36 -32 -36 -41 -40 -65 -34 -40 10 -59 44 -52 96 4 24 3 66 -2 93 -6 42
-11 49 -27 47 -11 -2 -24 -7 -28 -11 -17 -17 -35 -127 -33 -210 1 -86 1 -86
56 -176 59 -98 202 -249 303 -324 216 -158 456 -217 722 -175 97 15 194 -117
211 -286 l6 -55 -46 -38 c-65 -54 -83 -95 -96 -220 -12 -116 -8 -144 25 -197
22 -35 139 -150 194 -191 16 -12 35 -34 41 -50 10 -24 8 -36 -18 -92 -94 -198
-90 -333 14 -515 30 -51 54 -95 54 -98 0 -3 17 -31 38 -62 20 -31 44 -71 52
-87 8 -17 18 -32 21 -35 3 -3 19 -27 34 -55 16 -27 39 -64 52 -81 13 -17 23
-36 23 -41 0 -6 7 -16 15 -23 8 -6 31 -42 51 -78 21 -37 50 -83 66 -102 15
-19 28 -38 28 -43 0 -10 73 -119 93 -139 20 -19 42 -70 73 -163 23 -70 26 -99
29 -230 2 -107 -1 -154 -10 -165 -7 -8 -25 -48 -40 -88 -17 -47 -42 -88 -70
-118 -68 -74 -79 -125 -97 -447 -6 -125 -16 -217 -21 -217 -5 0 -53 42 -106
93 -132 129 -138 134 -195 162 -100 50 -210 27 -282 -60 -21 -26 -58 -66 -80
-89 -65 -64 -78 -99 -94 -249 -5 -49 -11 -92 -14 -95 -4 -3 -21 5 -38 18 -18
13 -58 36 -89 51 -52 25 -60 34 -98 106 -51 94 -120 167 -178 189 -62 24 -111
7 -174 -58 -27 -27 -49 -55 -49 -62 0 -7 -20 -35 -45 -61 -59 -64 -82 -137
-100 -325 -10 -103 -10 -103 -53 -84 -51 22 -129 22 -172 0 -80 -41 -162 -149
-195 -256 -42 -136 -193 -410 -225 -410 -9 0 -5 85 9 240 27 286 33 405 36
805 4 466 -2 544 -54 765 -17 72 -75 227 -111 300 -41 83 -130 285 -130 296 0
6 -34 90 -160 389 -5 11 -21 58 -35 105 -15 47 -31 93 -36 102 -5 10 -9 29 -9
42 0 14 -4 28 -10 31 -5 3 -10 17 -10 31 0 13 -4 32 -9 42 -9 16 -22 66 -71
273 -19 81 -31 140 -82 379 -26 124 -34 164 -46 230 -6 30 -27 107 -47 170
-21 63 -41 129 -45 145 -4 17 -29 91 -55 165 -49 141 -64 189 -95 305 -10 39
-21 77 -24 85 -7 18 -29 122 -91 429 -25 123 -48 228 -51 233 -3 5 -10 86 -15
181 -10 191 -22 260 -81 487 -52 201 -89 317 -144 448 -41 98 -98 210 -113
222 -3 3 -35 46 -71 95 -53 75 -140 186 -160 205 -5 5 -41 52 -200 261 -66 88
-179 230 -190 239 -3 3 -26 30 -51 60 -89 109 -121 178 -93 201 40 33 -8 126
-101 194 -74 54 -108 98 -119 155 -4 19 -12 47 -18 62 -10 27 -139 137 -253
216 -33 23 -89 74 -125 114 -407 454 -399 446 -515 523 -44 29 -129 99 -190
156 -175 164 -290 227 -366 200 -75 -26 -199 -10 -298 39 -24 12 -69 26 -100
32 -76 13 -145 32 -211 57 -83 31 -172 42 -235 29 -98 -19 -122 -11 -420 147
-60 32 -114 61 -120 65 -23 17 -146 51 -172 48 -46 -5 -43 -47 6 -110 46 -57
47 -60 26 -78 -19 -16 -50 -10 -247 51 -89 28 -196 55 -238 60 -41 6 -104 14
-140 19 -36 5 -108 18 -160 29 -154 32 -208 40 -340 46 -135 6 -298 22 -311
31 -4 2 -43 5 -87 5 -61 0 -89 -4 -125 -21 -57 -27 -94 -63 -102 -100 -9 -39
-41 -48 -153 -39 -52 3 -126 4 -165 2 -40 -2 -103 -6 -142 -7 -137 -6 -275
-19 -275 -27 0 -4 -16 -11 -35 -15 -20 -3 -53 -23 -79 -48 -25 -22 -51 -42
-58 -43 -59 -7 -124 -26 -148 -43 -15 -11 -35 -20 -43 -20 -8 0 -31 -7 -50
-15 -20 -8 -45 -15 -56 -15 -11 0 -44 -11 -73 -24 -29 -13 -82 -32 -118 -42
-59 -15 -85 -18 -202 -23 -29 -1 -38 -5 -38 -18 0 -14 -9 -18 -36 -20 -38 -2
-94 -44 -94 -70 0 -14 -1 -14 -39 -18 -13 -1 -27 -9 -32 -16 -5 -8 -21 -13
-38 -11 -16 2 -32 -1 -36 -7 -3 -6 -17 -11 -31 -11 -20 0 -24 -5 -24 -31 0
-29 -2 -31 -26 -25 -17 5 -23 3 -19 -4 3 -5 -1 -10 -10 -10 -11 0 -15 -5 -12
-14 7 -17 -18 -40 -32 -31 -6 3 -23 -5 -38 -19 -31 -29 -43 -32 -43 -13 -1 8
-4 7 -13 -3 -17 -20 -74 -50 -97 -50 -10 0 -22 -5 -25 -11 -4 -6 -13 -8 -21
-5 -20 8 -92 -37 -149 -91 -58 -56 -89 -77 -127 -87 -19 -4 -25 -11 -22 -21 4
-10 0 -15 -12 -15 -9 0 -37 -11 -61 -25 -23 -14 -43 -22 -43 -18 -1 4 -10 -3
-20 -16 -11 -13 -20 -19 -20 -15 0 5 -4 3 -9 -5 -5 -8 -18 -16 -27 -17 -10 -2
-23 -9 -29 -16 -5 -7 -22 -19 -37 -25 -16 -7 -28 -19 -28 -27 0 -7 -7 -16 -15
-20 -8 -3 -15 -13 -15 -23 0 -10 -11 -35 -25 -55 -14 -20 -25 -42 -25 -48 0
-6 -18 -27 -40 -47 -22 -21 -40 -43 -40 -50 0 -19 -33 -49 -79 -73 -68 -34
-150 -101 -144 -116 3 -8 9 -11 14 -8 5 3 9 0 9 -5 0 -6 6 -11 14 -11 8 0 22
-10 30 -21 11 -17 12 -25 3 -40 -7 -11 -17 -19 -24 -19 -7 0 -24 -10 -39 -22
-24 -22 -63 -45 -111 -67 -13 -6 -23 -18 -23 -27 0 -10 -3 -15 -6 -12 -7 7
-84 -70 -84 -84 0 -5 -11 -28 -24 -51 -17 -30 -25 -64 -30 -122 -6 -78 -32
-200 -56 -260 -6 -16 -25 -74 -41 -128 -25 -82 -62 -167 -116 -262 -6 -11 -28
-55 -47 -99 -20 -43 -50 -94 -66 -113 -29 -33 -95 -140 -95 -155 0 -3 -3 -10
-7 -14 -15 -14 -8 -26 7 -14 22 18 32 4 13 -17 -9 -10 -19 -28 -22 -39 -5 -18
-1 -22 24 -27 39 -8 38 -24 -5 -74 -34 -40 -34 -41 -19 -72 8 -17 22 -31 29
-31 29 0 65 -24 65 -43 0 -32 -46 -113 -104 -185 -31 -38 -63 -86 -72 -107
-24 -59 -113 -140 -176 -160 -60 -20 -64 -24 -72 -75 -3 -21 -24 -73 -47 -116
-22 -44 -56 -117 -76 -164 -62 -148 -111 -249 -133 -272 -12 -13 -26 -32 -31
-43 -5 -11 -13 -27 -18 -35 -21 -34 -52 -122 -58 -165 l-6 -45 31 0 c22 0 35
-7 43 -21 14 -27 4 -48 -68 -145 -94 -128 -97 -136 -100 -249 -1 -90 -5 -106
-32 -157 -42 -78 -74 -278 -60 -369 11 -65 2 -370 -12 -419 -24 -87 -28 -140
-14 -181 19 -53 19 -86 -1 -140 -9 -24 -20 -61 -24 -82 -7 -35 -5 -40 22 -60
48 -35 59 -68 69 -210 5 -72 11 -133 14 -135 2 -3 16 3 31 12 58 39 88 1 114
-147 11 -61 46 -175 61 -202 4 -5 9 -23 13 -39 10 -40 36 -76 55 -76 9 0 25 7
35 15 52 39 95 -4 137 -137 40 -124 55 -141 122 -136 49 3 52 1 74 -31 22 -32
51 -120 114 -336 26 -91 32 -101 71 -121 25 -13 31 -13 55 3 16 10 31 21 34
26 13 19 37 -9 81 -96 58 -114 60 -120 103 -297 39 -155 69 -252 90 -286 12
-18 10 -21 -19 -33 -161 -66 -268 -142 -386 -276 -42 -48 -105 -142 -114 -173
-10 -31 -20 -28 -40 14 -73 154 -298 360 -431 395 -16 4 -72 20 -124 34 -76
20 -116 25 -216 25 -255 0 -436 -73 -611 -245 -171 -168 -253 -365 -254 -607
0 -190 45 -337 153 -498 17 -25 276 -289 577 -587 l547 -542 43 -133 c23 -73
66 -205 95 -293 288 -869 717 -1877 1122 -2639 160 -302 176 -331 266 -491
811 -1447 1833 -2795 3002 -3960 909 -906 1801 -1636 2855 -2335 300 -200 797
-506 1010 -623 30 -17 120 -67 200 -112 241 -136 857 -451 1080 -553 36 -16
100 -46 142 -66 65 -30 172 -78 293 -131 17 -7 50 -22 75 -32 25 -11 74 -33
110 -48 36 -15 83 -35 105 -45 166 -72 675 -268 940 -362 759 -268 1417 -453
2270 -639 137 -29 346 -70 555 -108 99 -18 150 -27 378 -66 52 -9 126 -20 165
-25 40 -6 104 -15 142 -20 113 -17 520 -67 645 -79 496 -49 492 -49 1130 -88
406 -25 1202 -23 1655 5 386 23 566 36 725 52 58 5 134 13 170 16 182 16 609
66 770 90 58 9 135 20 171 24 243 32 879 150 1239 230 238 53 743 178 925 229
401 112 661 193 1005 312 322 111 345 119 515 184 83 31 184 70 225 85 104 40
459 184 550 225 41 18 156 69 255 113 1826 814 3522 1939 5005 3322 202 188
697 683 881 880 1011 1086 1877 2271 2596 3555 224 399 523 994 705 1400 300
669 550 1330 793 2094 208 658 419 1546 550 2326 38 226 57 352 105 690 5 39
18 149 29 245 17 151 26 240 56 550 25 261 53 766 66 1198 14 484 -5 1155 -51
1747 -10 130 -12 156 -31 355 -139 1472 -461 2938 -950 4323 -139 393 -325
866 -469 1192 -10 22 -40 92 -68 155 -92 211 -241 522 -421 875 -497 975
-1067 1880 -1745 2770 -689 904 -1551 1830 -2406 2586 -505 445 -1139 946
-1615 1276 -55 38 -143 98 -195 134 -396 274 -1040 669 -1500 921 -373 204
-859 448 -1215 608 -137 62 -255 117 -262 123 -12 8 -54 80 -113 191 -61 115
-114 213 -137 254 -14 24 -48 87 -75 140 -157 301 -239 454 -258 482 -10 14
-31 54 -49 90 -17 36 -45 89 -61 119 -17 30 -52 93 -77 140 -105 198 -202 295
-388 386 -124 61 -125 61 -210 76 -145 27 -354 10 -461 -35 -238 -102 -372
-224 -477 -431 -60 -120 -78 -194 -84 -347 -6 -133 6 -228 36 -303 53 -133
112 -227 229 -370 18 -23 16 -30 -13 -32 -16 -1 -50 -9 -75 -18 -43 -16 -57
-21 -117 -46 -56 -23 -93 -44 -93 -51 0 -5 -5 -8 -11 -8 -20 0 -132 -86 -193
-148 -65 -66 -91 -105 -136 -202 -16 -36 -34 -73 -40 -82 -5 -10 -10 -27 -10
-37 0 -11 -4 -22 -8 -25 -18 -11 -37 -156 -37 -276 0 -116 8 -165 36 -237 5
-13 13 -33 18 -45 26 -67 68 -148 95 -184 17 -23 40 -54 51 -69 75 -106 243
-217 390 -260 33 -9 69 -21 80 -25 11 -4 45 -13 75 -20 81 -17 331 -2 346 21
3 5 16 9 29 9 13 0 27 5 30 10 3 6 13 10 21 10 21 0 192 87 219 111 5 5 17 9
27 9 10 0 18 5 18 10 0 6 7 10 17 10 9 0 31 11 49 25 18 14 37 25 43 25 6 0
11 5 11 10 0 6 6 10 14 10 15 0 141 65 156 80 3 3 43 25 90 48 110 55 333 176
355 192 11 8 185 101 249 132 45 23 57 21 160 -27 42 -19 78 -35 80 -35 3 0
33 -13 68 -29 35 -16 88 -40 118 -54 180 -81 632 -303 790 -388 52 -27 140
-73 195 -102 55 -28 111 -58 125 -67 14 -9 57 -34 95 -55 160 -86 297 -164
513 -294 24 -14 51 -30 60 -36 10 -5 75 -46 145 -90 69 -44 135 -84 144 -90
10 -5 77 -48 148 -95 275 -179 575 -385 780 -535 186 -136 474 -353 485 -365
3 -3 23 -19 45 -36 22 -16 49 -36 60 -45 153 -125 367 -300 390 -320 17 -15
80 -68 140 -120 61 -51 112 -95 115 -98 3 -4 43 -40 90 -81 47 -41 90 -79 96
-85 29 -26 216 -197 279 -255 91 -84 655 -648 765 -765 169 -180 391 -427 545
-609 28 -32 68 -80 90 -105 22 -26 58 -69 80 -95 22 -27 47 -56 55 -66 8 -10
29 -35 45 -56 17 -21 71 -88 120 -149 183 -226 473 -614 667 -893 37 -54 72
-102 77 -108 47 -57 426 -648 578 -903 58 -97 119 -198 135 -226 17 -27 42
-70 56 -95 30 -54 55 -97 83 -147 26 -45 78 -142 148 -273 66 -123 396 -783
440 -880 19 -41 54 -118 78 -170 52 -112 55 -120 84 -185 11 -27 31 -72 44
-100 12 -27 50 -120 85 -205 34 -85 68 -168 75 -185 7 -16 43 -109 80 -205 37
-96 78 -204 92 -240 67 -173 277 -795 339 -1005 14 -49 30 -99 34 -110 4 -11
13 -40 20 -65 7 -25 18 -65 25 -90 7 -25 16 -56 20 -70 3 -14 11 -40 16 -57
21 -73 28 -102 48 -183 24 -96 40 -153 51 -190 4 -14 16 -61 25 -105 9 -44 20
-91 25 -105 4 -14 13 -50 19 -80 7 -30 16 -71 21 -90 10 -37 46 -203 61 -280
5 -25 13 -65 19 -90 13 -59 20 -97 70 -360 114 -614 201 -1287 244 -1900 43
-605 60 -1184 46 -1637 -24 -835 -74 -1443 -176 -2153 -28 -193 -86 -553 -114
-695 -5 -27 -16 -88 -25 -135 -28 -151 -35 -184 -44 -225 -12 -53 -26 -116
-56 -260 -15 -66 -31 -138 -36 -160 -19 -77 -27 -111 -43 -184 -9 -40 -20 -80
-25 -89 -7 -13 -10 -12 -20 6 -6 11 -17 27 -23 34 -37 40 -110 121 -163 182
-152 176 -248 280 -355 384 -262 256 -569 552 -625 603 -34 30 -72 71 -85 92
-22 34 -143 153 -430 422 -41 39 -111 100 -155 135 -44 35 -98 80 -120 99 -22
20 -65 56 -95 81 -30 25 -70 59 -90 76 -33 29 -254 208 -324 264 -51 40 -278
229 -315 262 -19 17 -82 68 -140 113 -58 46 -115 92 -127 103 -11 10 -47 39
-80 63 -33 24 -102 78 -154 120 -133 106 -160 121 -290 158 -63 18 -227 70
-365 116 -137 45 -295 96 -349 114 -55 17 -120 44 -145 60 -90 56 -240 127
-386 183 -44 16 -93 35 -110 42 -16 7 -109 43 -205 81 -96 37 -185 71 -197 76
-37 14 -64 25 -133 52 -36 13 -105 40 -155 60 -49 19 -106 40 -125 47 -19 7
-44 16 -55 20 -11 5 -69 25 -130 45 -60 20 -119 40 -130 45 -11 5 -56 20 -100
35 -44 14 -89 30 -100 34 -11 5 -38 14 -60 21 -22 7 -112 41 -200 75 -88 34
-195 73 -238 85 -52 16 -83 31 -92 44 -7 12 -23 66 -35 121 -12 55 -26 116
-30 135 -11 51 -86 337 -124 475 -109 391 -166 623 -166 670 0 12 20 67 44
122 24 55 53 131 65 169 12 38 26 77 32 86 5 10 9 24 9 33 0 11 5 13 26 5 26
-10 64 2 64 20 0 6 7 10 15 10 36 0 44 93 21 261 -17 132 -14 206 10 224 16
11 22 11 34 0 24 -21 57 -1 70 42 6 21 13 111 17 201 3 89 10 165 15 168 4 3
8 13 8 23 0 10 12 35 26 56 29 43 28 31 44 445 13 314 14 326 44 345 45 30 59
73 53 166 -4 68 14 350 37 585 5 47 31 141 45 158 24 30 13 202 -24 371 -30
136 -64 341 -71 425 -8 99 -22 144 -63 204 -42 61 -48 92 -23 119 42 47 42 78
3 237 -6 25 -16 109 -21 188 -11 160 -30 232 -107 392 -56 118 -89 210 -98
275 -15 113 -35 203 -54 245 -12 26 -21 67 -21 95 0 62 -31 116 -131 235 -40
48 -85 115 -104 155 -73 157 -95 213 -95 241 0 25 6 32 41 47 34 15 39 21 33
40 -15 50 -37 78 -110 144 -42 37 -118 107 -168 154 -50 47 -108 101 -128 119
-21 17 -38 40 -38 49 0 22 19 41 42 41 25 0 68 21 68 34 0 6 -31 43 -68 83
-54 57 -72 86 -94 145 -16 41 -28 82 -28 90 0 24 -86 105 -164 155 -79 50
-126 91 -126 108 0 7 -14 38 -31 70 l-31 58 24 23 c26 27 100 44 188 44 44 0
61 4 75 20 17 19 17 21 -1 41 -27 30 -88 64 -169 94 -190 70 -265 111 -265
142 0 48 -81 134 -204 220 -114 79 -135 101 -142 145 -5 29 -21 50 -73 100
-36 35 -87 78 -114 95 -26 18 -47 40 -47 50 0 10 -14 27 -30 38 -17 11 -28 25
-26 32 3 6 -2 14 -10 17 -9 3 -12 10 -9 16 3 6 -1 13 -9 16 -8 3 -28 29 -44
57 -31 55 -85 110 -127 129 -13 6 -27 20 -31 31 -12 38 -169 201 -203 212 -12
3 -21 13 -21 20 0 8 -11 26 -25 41 -14 15 -25 37 -25 50 0 12 -4 26 -10 29 -5
3 -10 11 -10 16 0 6 4 8 8 5 4 -2 14 -1 22 5 10 6 11 9 3 9 -7 0 -13 4 -13 9
0 10 56 25 83 23 10 -1 15 3 12 8 -3 6 0 10 8 10 7 0 19 10 24 23 9 19 7 27
-14 47 -13 12 -22 29 -19 37 3 7 -4 23 -15 34 -11 11 -17 24 -14 29 4 6 -1 10
-10 10 -8 0 -18 7 -21 15 -4 8 -11 15 -16 15 -8 0 -100 60 -147 96 -9 7 -11
74 -2 74 5 0 12 8 15 18 4 11 18 25 31 32 16 9 21 16 14 21 -8 5 -8 12 1 29 6
12 10 23 8 24 -10 7 -91 26 -140 31 -36 5 -63 14 -74 26 -9 10 -23 19 -31 19
-20 0 -73 41 -73 57 0 7 -8 13 -17 13 -22 1 -53 23 -53 39 0 6 -9 11 -20 11
-11 0 -20 5 -20 10 0 6 -7 10 -15 10 -20 0 -19 24 0 40 9 7 13 20 10 28 -3 8
3 16 15 19 14 4 19 11 15 22 -3 10 6 29 23 47 16 16 32 43 35 60 9 49 -18 68
-106 70 -40 1 -78 3 -85 3 -7 1 -18 12 -24 26 -8 18 -17 24 -30 19 -10 -3 -18
-1 -18 5 0 13 -68 81 -81 81 -6 0 -8 9 -4 19 4 14 0 21 -13 25 -26 9 -67 46
-75 69 -4 10 -17 17 -32 17 -19 0 -25 5 -25 21 0 17 -4 20 -23 15 -19 -4 -26
0 -35 19 -6 14 -19 25 -28 25 -13 0 -14 3 -4 15 14 17 5 35 -16 35 -14 0 -13
2 0 16 20 19 20 29 1 48 -20 19 -19 26 3 27 13 0 12 2 -5 9 -13 5 -23 16 -23
25 0 8 -9 15 -21 15 -24 0 -122 40 -127 52 -2 4 -21 8 -43 8 -29 0 -47 7 -65
25 -14 14 -35 27 -47 29 -12 3 -35 7 -52 11 -16 3 -82 10 -146 14 -68 5 -128
15 -145 24 -48 25 -150 48 -240 54 -61 4 -84 10 -84 19 0 8 -9 14 -20 14 -11
0 -20 7 -20 15 0 8 -9 15 -20 15 -11 0 -20 4 -20 9 0 6 -22 32 -50 59 -27 27
-50 53 -50 58 0 5 -9 20 -20 34 -11 14 -20 33 -20 43 0 36 -46 64 -127 77 -43
7 -81 17 -85 23 -4 6 -24 10 -45 9 -40 -2 -79 15 -55 25 6 2 12 13 12 24 0 11
-6 19 -12 17 -24 -4 -68 12 -68 26 0 8 -8 12 -23 9 -16 -3 -33 5 -56 26 -18
17 -41 31 -51 31 -10 0 -25 7 -34 15 -8 8 -17 15 -21 15 -4 0 -13 7 -21 15 -9
8 -26 15 -39 15 -14 0 -33 13 -50 34 -22 27 -33 34 -56 31 -17 -3 -35 2 -45
13 -9 9 -28 18 -42 20 -14 2 -38 10 -53 18 -15 7 -37 14 -49 14 -11 0 -20 4
-20 10 0 5 -18 15 -41 21 -34 11 -42 10 -50 -2 -8 -12 -11 -11 -23 4 -8 10
-27 17 -48 17 -22 0 -42 7 -53 20 -15 17 -26 20 -61 14 -34 -5 -44 -3 -53 13
-9 16 -12 16 -21 3 -7 -10 -13 -11 -17 -5 -5 6 -27 17 -50 23 -25 8 -43 19
-43 27 0 11 -12 15 -45 15 -25 0 -45 4 -45 9 0 5 -25 13 -55 16 -30 4 -55 11
-55 16 0 5 -7 9 -15 9 -8 0 -15 5 -15 10 0 6 -14 10 -30 10 -17 0 -44 7 -61
15 -16 9 -57 17 -90 19 -34 2 -64 8 -68 12 -8 12 -64 11 -73 -1 -4 -5 -34 -10
-68 -10 -33 0 -60 -3 -60 -7 0 -4 -9 -12 -21 -19 -19 -10 -20 -8 -14 10 5 18
2 21 -25 21 -42 0 -82 43 -100 107 -12 40 -15 358 -20 1891 l-5 1844 -88 28
c-48 15 -95 34 -103 41 -13 11 -15 73 -11 513 3 399 6 509 17 541 19 53 94
127 145 143 22 7 114 19 205 27 183 17 249 27 316 50 219 74 391 276 440 515
20 99 15 251 -11 340 -23 78 -80 188 -131 254 -71 90 -195 177 -298 208 -58
17 -191 38 -243 38 -62 0 -151 31 -181 63 -33 34 -51 89 -67 195 -29 191 -75
310 -162 415 -129 155 -286 235 -473 242 -52 2 -113 0 -135 -4z m-1850 -2071
c1292 -6 1456 -8 1504 -23 58 -17 113 -62 136 -112 22 -45 35 -225 35 -465 0
-344 -20 -485 -81 -574 -25 -36 -90 -86 -113 -86 -9 0 -16 -4 -16 -10 0 -5 -9
-10 -21 -10 -11 0 -27 -7 -35 -15 -27 -27 -89 -18 -174 25 -127 64 -168 72
-430 82 -547 21 -775 24 -1310 20 -311 -2 -1260 -5 -2110 -6 -1439 -1 -1553
-2 -1668 -19 -102 -15 -134 -17 -190 -7 -37 6 -150 13 -252 17 -181 5 -218 3
-475 -32 -92 -12 -134 -13 -255 -3 -80 7 -314 12 -520 13 -364 0 -376 -1 -422
-22 -64 -29 -85 -69 -70 -134 14 -58 52 -142 103 -225 48 -79 118 -220 147
-294 37 -97 119 -410 153 -585 54 -276 44 -371 -44 -401 -27 -9 -45 -11 -57
-4 -10 6 -25 10 -34 10 -8 0 -49 16 -91 35 -107 50 -157 104 -180 192 -10 37
-26 99 -37 136 -10 37 -26 105 -33 150 -36 206 -51 254 -130 422 -12 28 -28
61 -34 75 -28 63 -81 146 -136 212 -98 117 -156 203 -172 251 -3 9 -9 17 -14
17 -5 0 -9 5 -9 12 0 19 -42 58 -62 58 -10 0 -18 4 -18 8 0 5 -6 9 -12 10 -7
0 -24 3 -38 5 -73 12 -314 37 -450 47 -85 6 -200 15 -255 21 -245 24 -457 27
-2070 28 -940 1 -1735 4 -1765 7 -111 11 -176 45 -208 109 -27 55 -34 167 -30
515 3 293 6 362 19 397 39 103 106 141 269 153 124 9 9777 10 11655 0z m1466
-1671 c16 -17 29 -34 29 -38 0 -4 10 -18 21 -30 27 -28 38 -77 39 -159 l0 -62
-27 6 c-59 15 -116 118 -118 212 -2 47 1 62 12 62 10 0 12 6 8 20 -9 28 2 25
36 -11z m-5522 -2130 c41 -41 55 -96 46 -189 -8 -99 -27 -138 -70 -146 -58
-11 -112 49 -135 149 -8 38 -7 59 5 100 17 58 28 74 65 99 36 24 55 22 89 -13z
m-2705 -140 c113 -95 156 -159 164 -242 4 -50 1 -67 -18 -101 -33 -62 -129
-110 -143 -73 -4 9 -8 9 -15 -2 -8 -11 -14 -9 -35 11 -13 14 -28 34 -31 46 -4
12 -12 22 -17 22 -5 0 -9 9 -9 20 0 11 -4 20 -10 20 -5 0 -10 7 -10 15 0 8 -5
15 -11 15 -6 0 -9 7 -5 15 3 8 -4 36 -14 61 -12 27 -20 68 -20 102 0 49 4 61
28 84 24 25 33 28 78 25 28 -2 59 -10 68 -18z m2878 -1380 c57 -29 95 -72 136
-158 45 -93 57 -209 26 -257 -29 -45 -46 -60 -91 -83 -52 -26 -95 -26 -149 -2
-80 36 -111 129 -93 278 20 165 54 243 106 243 13 0 42 -9 65 -21z m-2606
-620 c67 -62 128 -251 159 -489 8 -63 24 -153 35 -199 19 -80 28 -120 85 -416
35 -185 74 -322 107 -378 15 -26 28 -54 28 -62 0 -7 6 -20 13 -27 20 -23 37
-57 37 -76 0 -22 -22 -72 -32 -72 -5 0 -8 -6 -8 -13 0 -6 -11 -33 -25 -58 -13
-26 -32 -66 -41 -90 -34 -89 -101 -148 -244 -218 -83 -41 -104 -59 -131 -110
-19 -37 -21 -50 -13 -104 15 -116 12 -163 -15 -191 -38 -40 -84 -51 -207 -50
-107 1 -155 10 -219 40 -92 42 -178 170 -254 379 -18 50 -42 113 -52 140 -10
28 -22 64 -25 80 l-6 31 74 -7 c105 -9 213 -34 320 -74 51 -19 109 -35 129
-35 41 0 79 27 79 56 0 37 -48 121 -105 185 -114 128 -169 226 -200 359 -9 41
-22 90 -27 108 -6 19 -10 71 -10 116 -1 71 3 87 24 122 40 63 88 98 221 162
143 70 211 120 255 188 44 70 50 118 21 185 -13 30 -29 61 -36 69 -6 8 -30 40
-52 70 -22 30 -45 61 -51 68 -27 31 -60 120 -60 162 0 59 35 128 80 158 45 30
109 26 146 -9z m-5189 -513 c213 -67 274 -75 674 -86 200 -5 382 -12 404 -15
22 -3 139 -12 260 -20 121 -9 261 -20 310 -26 50 -6 126 -14 170 -19 93 -10
153 -20 360 -61 127 -26 181 -38 325 -74 124 -31 420 -129 525 -174 106 -45
190 -84 300 -139 72 -36 201 -101 289 -144 105 -52 192 -105 260 -156 56 -42
140 -104 186 -137 78 -56 155 -125 190 -171 41 -52 60 -84 60 -99 0 -20 -15
-20 -405 11 -279 22 -460 9 -708 -51 -226 -54 -403 -125 -585 -233 -29 -18
-57 -32 -62 -32 -6 0 -10 -4 -10 -9 0 -5 -10 -12 -22 -15 -20 -5 -189 -123
-228 -159 -32 -29 -88 -56 -145 -68 -44 -10 -123 -13 -290 -10 -453 8 -536 6
-605 -11 -88 -22 -291 -42 -348 -34 -54 7 -132 35 -132 47 0 9 -73 36 -121 44
-35 5 -96 -6 -209 -40 -30 -9 -71 -20 -90 -24 -19 -5 -55 -15 -80 -24 -104
-35 -170 -33 -214 8 -23 21 -26 32 -26 87 0 126 -24 159 -162 228 -170 84
-211 173 -188 414 7 75 10 297 8 581 -3 408 -1 466 14 512 45 140 102 159 295
99z m6417 -775 c31 -29 41 -77 21 -107 -8 -13 -15 -29 -15 -36 0 -19 -117
-126 -162 -149 -47 -24 -143 -28 -178 -8 -58 34 -59 38 -26 103 34 66 145 183
182 192 13 3 24 10 24 14 0 11 43 17 93 15 23 -2 47 -11 61 -24z m6653 -8313
c13 -12 23 -27 23 -34 0 -6 7 -14 15 -18 10 -4 15 -20 15 -51 l0 -45 -38 0
c-27 0 -51 9 -80 30 -46 33 -62 57 -62 95 0 46 86 62 127 23z m-13104 -444
c27 -5 37 -12 37 -25 0 -10 14 -33 30 -51 17 -18 30 -39 30 -48 1 -8 7 -33 15
-55 12 -34 12 -45 0 -81 -8 -23 -11 -50 -9 -61 6 -22 43 -43 74 -43 22 0 27
-16 8 -23 -8 -3 -5 -6 5 -6 23 -1 47 -25 47 -46 0 -9 5 -13 10 -10 6 3 10 1
10 -4 0 -6 9 -11 21 -11 24 0 49 -22 49 -44 0 -9 4 -16 10 -16 5 0 7 -7 4 -15
-4 -8 -1 -15 5 -15 6 0 11 -13 11 -30 0 -16 5 -30 10 -30 6 0 10 -11 10 -24 0
-13 5 -26 11 -28 7 -2 11 -27 10 -61 0 -54 1 -57 24 -57 18 0 25 -5 25 -20 0
-17 7 -20 45 -20 25 0 45 -4 45 -10 0 -5 9 -10 20 -10 16 0 20 -7 20 -33 0
-43 -21 -87 -41 -87 -11 0 -19 -12 -24 -36 -7 -41 -1 -51 35 -56 19 -2 24 -8
22 -25 -2 -14 5 -27 17 -35 14 -9 21 -23 21 -45 0 -23 5 -33 16 -33 29 0 46
-30 51 -90 5 -50 9 -60 24 -60 11 0 19 -6 19 -14 0 -8 11 -17 25 -20 18 -5 25
-13 25 -31 0 -14 5 -25 10 -25 6 0 10 -7 10 -15 0 -8 9 -15 20 -15 11 0 20 -4
20 -10 0 -5 11 -10 25 -10 20 0 25 -5 25 -25 0 -14 -4 -25 -10 -25 -5 0 -10
-13 -10 -30 0 -16 5 -30 11 -30 8 0 10 -17 6 -52 -4 -50 -3 -55 30 -87 29 -28
34 -39 29 -62 -3 -16 -1 -29 4 -29 6 0 10 -7 10 -15 0 -8 5 -15 10 -15 6 0 10
-9 10 -20 0 -14 7 -20 21 -20 15 0 19 -5 15 -15 -3 -8 -1 -15 4 -15 6 0 10
-13 10 -30 0 -16 3 -30 8 -30 16 0 28 -46 19 -79 -5 -18 -6 -44 -3 -57 6 -21
12 -24 55 -24 l49 0 0 -60 c0 -33 -3 -60 -7 -60 -18 0 -31 -57 -31 -135 0 -82
-1 -85 -25 -91 -19 -5 -25 -13 -25 -35 0 -28 2 -29 50 -29 44 0 50 -3 50 -21
0 -11 5 -17 10 -14 6 4 10 -7 10 -24 0 -17 5 -31 10 -31 6 0 10 -11 10 -25 0
-14 -4 -25 -10 -25 -5 0 -10 -7 -10 -15 0 -9 -11 -26 -25 -39 -20 -19 -25 -33
-25 -74 0 -28 4 -53 9 -56 13 -9 22 -66 15 -103 -4 -23 -12 -33 -25 -33 -11 0
-19 -4 -19 -10 0 -5 -11 -12 -25 -16 -15 -4 -25 -13 -25 -24 0 -10 -12 -23
-28 -29 -16 -7 -39 -30 -51 -52 -12 -21 -31 -44 -42 -49 -10 -6 -19 -17 -19
-25 0 -8 -3 -14 -8 -13 -4 2 -19 -7 -32 -20 -14 -13 -32 -21 -41 -19 -10 3
-22 -5 -30 -19 -7 -13 -16 -24 -20 -24 -4 0 -14 -6 -21 -14 -18 -18 -113 -66
-131 -66 -7 0 -22 -8 -33 -18 -10 -10 -46 -30 -79 -46 -33 -15 -71 -33 -85
-40 -14 -6 -29 -21 -34 -32 -5 -11 -23 -27 -40 -34 -17 -7 -33 -16 -36 -20
-12 -16 -124 -70 -145 -70 -27 0 -41 -16 -37 -42 2 -10 -2 -18 -7 -18 -6 0
-11 -11 -11 -25 0 -14 -4 -25 -10 -25 -5 0 -10 -9 -10 -20 0 -11 -4 -20 -10
-20 -12 0 -46 -72 -55 -117 -5 -25 -2 -34 17 -47 29 -21 92 -21 123 0 13 9 53
18 87 21 35 2 74 10 87 16 13 7 47 11 75 10 28 -2 77 -3 109 -3 54 0 57 -1 57
-25 0 -18 -5 -25 -20 -25 -11 0 -20 -4 -20 -10 0 -5 -9 -10 -20 -10 -15 0 -20
-7 -20 -25 0 -13 -11 -35 -24 -48 -12 -13 -26 -41 -30 -62 -4 -21 -20 -50 -34
-65 -51 -50 -113 -130 -123 -158 -5 -15 -22 -36 -38 -45 -22 -13 -30 -26 -34
-59 -5 -35 -15 -50 -60 -92 -104 -97 -234 -196 -255 -196 -4 0 -25 -16 -47
-35 -22 -19 -51 -37 -64 -40 -37 -9 -131 -73 -131 -89 0 -8 -3 -21 -6 -30 -4
-11 -1 -16 10 -16 9 0 16 -4 16 -9 0 -4 46 -11 103 -15 138 -10 140 -10 155
-19 7 -5 12 -29 12 -58 0 -31 5 -51 13 -53 50 -15 49 -15 33 -32 -9 -8 -16
-26 -16 -40 0 -13 -4 -24 -8 -24 -4 0 -16 -15 -27 -32 -19 -33 -28 -46 -52
-73 -7 -7 -13 -21 -13 -30 0 -14 7 -16 43 -10 48 8 93 29 99 46 6 18 68 1 68
-18 0 -9 3 -13 6 -10 4 4 15 -3 25 -14 10 -12 36 -25 58 -30 22 -5 56 -20 75
-33 19 -13 53 -26 76 -30 50 -8 86 -45 94 -98 4 -21 11 -38 16 -38 6 0 10 -6
10 -13 0 -23 49 -38 96 -31 25 3 44 2 44 -3 0 -5 16 -17 35 -26 19 -9 35 -21
35 -27 0 -5 9 -10 20 -10 13 0 20 -7 20 -20 0 -17 7 -20 45 -20 25 0 45 -5 45
-11 0 -5 4 -8 9 -5 5 3 7 16 4 29 -5 18 -3 20 8 10 21 -20 32 -15 25 12 -6 23
-4 25 28 25 26 0 36 -5 41 -20 4 -11 11 -18 16 -15 5 4 9 -5 9 -19 0 -19 5
-26 19 -26 24 0 38 -19 22 -29 -13 -8 -4 -71 10 -71 5 0 18 -8 29 -17 25 -22
29 -103 5 -103 -8 0 -15 -4 -15 -10 0 -5 -10 -10 -23 -10 -16 0 -26 -9 -34
-30 -6 -16 -22 -35 -35 -40 -12 -6 -34 -17 -48 -25 -14 -8 -40 -15 -57 -15
l-33 0 0 -55 c0 -30 4 -55 8 -55 4 0 14 -16 21 -35 10 -28 10 -39 1 -50 -16
-20 -3 -128 15 -121 8 3 16 -2 19 -10 10 -25 7 -64 -4 -64 -18 0 -60 -48 -60
-67 0 -21 20 -55 20 -35 0 23 39 13 46 -12 7 -31 -1 -46 -27 -46 -10 0 -19 -6
-19 -14 0 -18 -22 -26 -69 -26 l-38 0 -7 -52 c-3 -29 -6 -84 -6 -121 0 -37 -7
-83 -15 -103 -8 -19 -12 -41 -9 -48 3 -8 -2 -28 -10 -45 -9 -16 -16 -39 -16
-51 0 -11 -6 -23 -14 -26 -8 -3 -17 -16 -20 -28 -4 -16 -16 -25 -36 -29 -16
-4 -30 -13 -30 -21 0 -7 -7 -16 -15 -20 -8 -3 -15 -17 -15 -31 0 -18 -5 -25
-20 -25 -11 0 -20 -4 -20 -10 0 -5 5 -10 10 -10 6 0 10 -4 10 -10 0 -5 -21
-10 -47 -10 -63 0 -93 -9 -93 -27 0 -23 -47 -63 -75 -63 -14 0 -25 -5 -25 -11
0 -6 7 -9 15 -5 33 12 64 -24 33 -38 -10 -5 -10 -7 0 -12 6 -3 12 -12 12 -20
0 -8 7 -14 15 -14 8 0 15 -4 15 -10 0 -5 5 -10 10 -10 6 0 10 7 10 15 0 8 5
15 10 15 6 0 10 18 10 40 0 38 2 40 29 40 42 0 61 10 61 31 0 14 7 19 25 19
23 0 25 -4 25 -45 0 -39 -3 -45 -21 -45 -22 0 -49 -22 -49 -39 0 -6 5 -11 10
-11 6 0 10 -9 10 -20 0 -11 7 -20 15 -20 8 0 27 -12 42 -27 26 -26 28 -34 28
-99 0 -39 5 -82 12 -95 11 -24 30 -90 40 -141 4 -22 11 -28 33 -28 19 0 30 -7
38 -25 14 -31 15 -140 1 -210 -23 -117 -24 -145 -12 -245 4 -36 5 -99 2 -140
-6 -84 7 -147 33 -156 33 -10 44 -105 16 -140 -4 -6 -6 -19 -2 -28 3 -9 1 -16
-5 -16 -6 0 -11 -13 -11 -30 0 -16 5 -30 10 -30 6 0 10 -11 10 -24 0 -16 7
-27 22 -32 12 -3 32 -17 46 -31 20 -20 23 -30 17 -61 -3 -20 -9 -58 -11 -84
-3 -27 -10 -48 -15 -48 -18 0 -8 -39 11 -45 11 -3 20 -11 20 -16 0 -5 11 -9
25 -9 19 0 25 -5 26 -22 2 -43 -2 -143 -7 -160 -4 -14 1 -18 19 -18 14 0 27
-7 31 -15 3 -8 14 -15 24 -15 13 0 21 -13 30 -45 7 -25 12 -54 12 -65 0 -11 5
-20 10 -20 6 0 10 -7 10 -15 0 -11 -12 -15 -45 -15 -33 0 -45 4 -45 15 0 8 -4
15 -10 15 -5 0 -10 14 -10 30 0 17 -4 30 -10 30 -5 0 -10 7 -10 15 0 8 -7 15
-15 15 -8 0 -15 7 -15 16 0 18 -23 44 -39 44 -6 0 -29 7 -51 16 l-40 16 0 64
c0 36 4 64 10 64 6 0 10 11 10 25 0 22 -4 25 -35 25 -29 0 -35 4 -35 21 0 21
-4 21 -62 16 -41 -4 -65 -1 -73 7 -7 6 -20 45 -29 86 -9 41 -28 95 -42 120
-30 53 -54 123 -54 163 0 31 -37 87 -57 87 -23 0 -50 80 -52 153 -2 72 -12
103 -47 152 -12 17 -24 43 -28 59 -4 16 -7 155 -7 310 -1 154 -4 286 -9 291
-9 12 -27 91 -36 160 -8 65 -45 115 -84 115 -58 0 -65 -22 -75 -235 -4 -78 -2
-132 6 -155 12 -39 23 -86 39 -175 6 -33 18 -90 26 -127 22 -102 44 -230 44
-260 0 -15 6 -31 14 -35 29 -18 40 -59 42 -166 1 -80 5 -112 16 -125 9 -9 16
-31 16 -47 0 -17 2 -37 4 -44 2 -9 -9 -17 -30 -21 -35 -8 -72 -43 -72 -69 0
-33 20 -85 40 -103 11 -10 20 -23 20 -29 0 -5 14 -15 30 -20 22 -8 30 -17 30
-35 0 -13 5 -24 10 -24 6 0 10 -11 10 -24 0 -14 5 -28 10 -31 6 -3 10 -33 10
-65 0 -39 5 -64 15 -74 26 -25 17 -36 -30 -36 -45 0 -45 0 -45 35 0 33 -2 35
-35 35 l-35 0 0 -55 c0 -30 -4 -55 -10 -55 -5 0 -10 -11 -10 -25 0 -22 -4 -25
-35 -25 -22 0 -43 8 -55 20 -27 27 -86 27 -95 0 -3 -11 -11 -20 -16 -20 -5 0
-9 -11 -9 -25 0 -14 -4 -25 -10 -25 -5 0 -10 -13 -10 -30 0 -20 -5 -30 -15
-30 -8 0 -15 -7 -15 -15 0 -8 -7 -15 -16 -15 -23 0 -42 -24 -46 -56 -3 -25 1
-29 26 -32 39 -5 86 -55 86 -92 0 -16 5 -32 10 -35 6 -3 10 -11 10 -16 0 -6
-4 -7 -10 -4 -5 3 -10 2 -10 -4 0 -5 6 -11 12 -13 23 -8 -18 -38 -51 -38 -17
0 -31 -5 -31 -11 0 -5 -4 -7 -10 -4 -5 3 -10 -3 -10 -14 0 -12 6 -21 14 -21
15 0 26 -21 26 -49 0 -10 17 -35 38 -57 82 -84 64 -100 -138 -114 -63 -5 -151
-16 -195 -24 -44 -9 -95 -16 -113 -16 -18 0 -88 -12 -155 -26 -105 -22 -155
-26 -354 -30 -231 -5 -231 -5 -247 18 -11 15 -14 33 -10 60 6 34 4 38 -20 48
-19 7 -35 27 -51 62 -13 29 -36 64 -50 77 -14 13 -38 49 -54 80 -15 31 -40 70
-55 86 -38 41 -136 194 -136 212 0 8 -11 24 -25 34 -13 11 -38 48 -56 84 -17
35 -40 73 -51 84 -11 12 -30 45 -43 74 -12 29 -37 67 -54 85 -17 18 -34 45
-37 61 -3 16 -23 50 -44 75 -26 32 -42 64 -50 99 -8 42 -17 57 -39 70 -16 9
-36 34 -46 54 -10 21 -33 53 -51 72 -19 19 -36 43 -39 55 -12 42 -40 86 -58
92 -23 7 -67 103 -67 144 0 16 -6 35 -13 42 -18 19 -19 108 -1 135 8 14 14 47
14 86 0 78 24 117 70 117 34 0 50 -23 50 -72 0 -18 7 -51 14 -73 21 -59 106
-195 122 -195 7 0 22 -12 31 -27 10 -15 30 -41 46 -57 15 -17 27 -33 27 -37 0
-9 48 -29 70 -29 11 0 20 5 20 11 0 5 5 7 10 4 6 -3 10 0 10 7 0 14 53 48 76
48 10 0 13 7 8 25 -4 15 -2 25 5 25 12 0 16 122 4 134 -4 4 -17 44 -29 89 -12
45 -34 125 -48 177 -14 52 -26 104 -26 114 0 11 -13 43 -29 71 -16 29 -37 79
-47 111 -29 103 -73 170 -143 218 -37 26 -43 27 -76 16 -34 -11 -38 -10 -62
16 -14 15 -32 50 -40 78 -14 46 -14 60 2 148 16 96 16 99 -4 154 -12 31 -35
69 -50 85 -41 41 -73 38 -120 -11 -43 -45 -70 -50 -114 -21 -31 20 -56 18 -96
-8 -15 -9 -56 -17 -112 -19 -97 -5 -94 -2 -144 -87 -45 -74 -48 -85 -32 -131
17 -49 2 -108 -34 -135 -54 -41 -58 -49 -52 -97 2 -26 11 -57 18 -68 8 -12 11
-31 8 -44 -5 -20 -10 -21 -45 -16 -50 8 -83 25 -138 71 -24 20 -57 43 -74 52
-87 45 -254 202 -286 270 -34 73 -31 77 51 73 26 -1 50 3 53 9 11 17 -22 84
-58 117 -18 17 -59 51 -92 75 -67 50 -70 53 -121 129 -20 30 -52 68 -70 84
-18 16 -33 34 -33 41 0 17 -46 65 -63 65 -16 0 -47 42 -47 63 0 9 -11 14 -32
13 -25 -1 -33 -6 -38 -26 -6 -22 -8 -20 -14 17 -4 23 -9 88 -11 145 -4 119 -4
121 -15 88 l-8 -25 -1 27 c-1 14 -6 28 -13 30 -7 3 -10 36 -9 102 2 109 -10
191 -45 316 -28 102 -64 283 -64 326 0 20 11 43 33 68 30 34 40 38 94 43 38 3
75 1 99 -8 21 -7 42 -13 45 -14 11 0 112 -111 135 -147 29 -46 78 -68 148 -68
55 0 165 25 180 41 6 5 28 9 50 9 47 0 86 -31 86 -67 0 -22 -55 -91 -105 -135
-28 -23 -140 -67 -200 -78 -27 -4 -67 -15 -87 -22 -43 -16 -152 -119 -173
-163 -26 -54 -62 -209 -58 -250 6 -69 25 -155 34 -155 5 0 9 -6 9 -14 0 -7 7
-19 15 -26 8 -7 17 -26 20 -44 6 -29 12 -33 68 -49 50 -15 72 -28 114 -71 28
-28 66 -59 85 -68 18 -9 71 -35 117 -58 76 -39 88 -42 138 -37 30 3 77 17 104
31 27 14 58 26 69 26 11 0 29 9 39 19 19 19 19 22 5 50 -8 17 -28 41 -45 53
-58 46 -88 205 -51 274 6 10 13 27 16 37 3 9 15 17 26 17 13 0 20 7 20 19 0
11 14 46 31 78 21 39 32 76 34 111 7 120 23 158 62 150 23 -4 35 -55 33 -143
-1 -92 8 -145 26 -145 8 0 14 9 14 20 0 11 5 20 10 20 6 0 10 18 10 40 0 22 3
40 8 40 9 0 30 46 38 87 5 25 0 44 -23 85 -17 29 -34 68 -38 86 -8 39 3 114
16 106 5 -3 12 8 15 25 4 17 13 36 20 42 8 6 14 17 14 25 0 18 32 34 69 34 17
0 31 4 31 9 0 5 10 12 23 16 12 3 31 10 42 15 11 5 32 11 47 14 17 4 31 17 40
36 7 16 16 30 20 30 5 0 8 9 8 20 0 11 4 20 9 20 4 0 16 25 26 55 13 44 16 73
10 134 -6 64 -4 84 10 112 24 45 31 148 15 215 -8 30 -17 57 -22 60 -4 3 -8
18 -8 34 0 15 -5 30 -11 32 -8 3 -9 17 -1 53 7 31 7 51 1 53 -5 2 -9 14 -9 27
0 13 -6 30 -13 37 -16 15 -26 51 -36 128 -4 31 -19 75 -34 101 -21 36 -26 53
-21 80 8 40 30 69 54 69 14 0 18 13 23 68 13 128 8 190 -19 268 -20 60 -24 81
-16 107 23 75 23 96 -1 102 -19 5 -23 14 -25 49 -1 23 -8 72 -17 110 -9 37
-12 72 -8 78 3 7 8 21 9 32 2 12 10 50 18 86 11 47 13 75 6 100 -6 19 -10 47
-10 63 0 15 -4 27 -10 27 -5 0 -10 6 -10 13 0 7 -9 19 -20 27 -13 9 -18 21
-14 33 5 15 2 18 -13 13 -12 -4 -24 1 -33 14 -8 11 -22 20 -32 20 -11 0 -18 8
-18 20 0 11 -7 23 -15 26 -8 4 -15 14 -15 23 0 10 -7 26 -15 37 -14 19 -11 77
5 99 42 53 1 202 -75 270 -12 12 -27 43 -34 75 -7 30 -18 70 -24 87 -8 24 -8
59 2 135 6 57 14 131 17 166 l4 62 -37 0 c-47 0 -96 34 -73 50 12 8 13 11 1
19 -15 9 -7 71 10 71 5 0 9 16 9 35 0 19 4 35 9 35 5 0 13 9 16 20 4 13 15 20
31 20 53 0 91 80 45 95 -10 3 -21 19 -25 35 -5 28 -26 43 -26 20 0 -5 -4 -10
-10 -10 -5 0 -10 14 -10 30 0 27 -3 30 -31 30 -29 0 -30 -2 -24 -30 7 -30 6
-30 -39 -30 -27 0 -46 5 -46 11 0 7 -10 9 -26 5 -22 -6 -27 -2 -37 23 -6 16
-21 34 -34 40 -27 12 -31 52 -8 75 8 8 15 19 15 24 0 6 7 12 15 16 8 3 15 15
15 26 0 11 7 23 15 26 8 3 17 14 20 25 4 11 10 17 14 14 5 -2 11 13 14 35 8
63 45 130 71 130 33 0 96 86 96 132 0 14 7 31 15 38 8 7 15 17 15 22 0 5 15
24 33 42 17 18 46 50 62 70 68 85 125 137 178 166 31 16 62 30 68 30 31 0 214
117 234 151 4 5 15 9 27 9 11 0 49 14 85 31 54 26 72 30 108 25 37 -6 45 -4
58 14 25 36 111 70 178 70 40 0 70 6 94 20 20 11 42 20 51 20 8 0 31 11 52 24
20 14 62 32 92 41 30 9 78 28 107 41 28 13 57 24 63 24 16 0 72 29 95 50 29
26 190 105 258 126 31 10 57 21 57 25 0 4 26 17 58 29 78 30 210 97 248 125
17 13 44 27 60 31 16 4 34 9 39 13 34 19 150 52 205 58 42 4 78 15 102 30 21
12 42 23 48 23 6 0 18 5 28 10 9 6 58 14 107 19 121 11 144 12 188 5z m13364
-426 c21 -26 21 -74 1 -133 -12 -33 -27 -66 -35 -73 -7 -7 -13 -20 -13 -28 0
-8 -4 -14 -9 -14 -6 0 -18 -13 -28 -30 -24 -41 -53 -40 -53 1 0 17 4 28 10 24
6 -3 10 2 10 12 0 22 34 117 53 146 7 12 19 41 27 65 14 44 21 50 37 30z
m-203 -434 c21 -8 20 -24 -1 -74 -16 -36 -21 -40 -43 -35 -38 10 -46 22 -27
43 9 10 17 26 17 35 0 9 8 21 18 26 21 13 17 12 36 5z m-2130 -1526 c9 -44 -3
-98 -21 -98 -35 0 -69 74 -39 86 9 3 16 15 16 25 0 34 37 23 44 -13z m2306
-214 c0 -67 -63 -92 -74 -29 -8 42 8 64 47 65 24 0 27 -3 27 -36z m-110 -171
c0 -24 9 -33 65 -63 36 -19 65 -39 65 -43 0 -5 24 -7 53 -5 46 3 59 -1 90 -24
19 -16 41 -28 49 -28 15 0 88 -80 88 -97 0 -6 8 -18 19 -25 10 -7 25 -27 35
-45 9 -18 23 -36 32 -41 13 -7 16 -19 12 -56 -3 -27 -1 -46 4 -46 6 0 7 -7 4
-16 -4 -9 -2 -22 4 -29 6 -7 8 -24 5 -38 -5 -19 -15 -27 -41 -31 -31 -6 -34
-10 -34 -41 0 -23 8 -42 28 -62 21 -21 31 -42 36 -82 4 -29 12 -62 18 -74 6
-12 14 -29 19 -37 4 -8 12 -14 18 -12 7 1 14 -5 17 -13 4 -8 15 -15 25 -15 11
0 16 -5 13 -14 -3 -9 5 -15 25 -19 17 -4 39 -16 48 -27 10 -11 24 -20 31 -20
18 0 42 -25 42 -44 0 -9 8 -16 20 -16 11 0 20 -4 20 -10 0 -5 -13 -10 -30 -10
-16 0 -30 5 -30 10 0 6 -4 10 -10 10 -5 0 -10 -16 -10 -35 0 -19 -4 -35 -9
-35 -9 0 -21 -126 -14 -146 11 -31 113 -47 113 -18 0 18 -23 44 -39 44 -6 0
-11 11 -11 25 0 20 5 25 25 25 14 0 25 5 25 10 0 6 6 10 14 10 8 0 16 4 18 10
2 5 37 13 78 16 l76 7 12 -29 c11 -22 15 -25 23 -13 7 11 9 9 9 -8 0 -12 4
-23 9 -25 8 -3 15 -73 12 -126 -1 -19 -5 -22 -21 -17 -14 5 -20 2 -20 -9 0
-10 -9 -16 -25 -16 -33 0 -48 -31 -40 -81 l7 -40 -50 7 -49 6 -7 -33 c-6 -30
-3 -64 10 -126 4 -20 0 -23 -24 -23 -20 0 -32 -8 -45 -30 -10 -16 -22 -30 -28
-30 -5 0 -9 -7 -9 -15 0 -8 7 -15 15 -15 8 0 15 -4 15 -10 0 -5 -7 -10 -15
-10 -8 0 -15 -9 -15 -20 0 -25 18 -26 36 -2 13 16 13 16 14 -3 0 -18 8 -20 65
-22 63 -3 65 -2 65 22 0 20 5 25 25 25 18 0 25 5 25 20 0 15 7 20 25 20 20 0
25 5 25 25 0 18 5 25 20 25 11 0 20 7 20 15 0 8 8 24 17 35 14 16 30 20 80 20
79 0 84 -19 6 -22 -36 -1 -45 -3 -25 -5 17 -2 32 -8 32 -14 0 -5 11 -9 25 -9
20 0 25 -5 25 -25 0 -16 6 -25 15 -25 10 0 15 -10 15 -30 0 -23 4 -30 20 -30
16 0 20 -7 20 -35 0 -19 -4 -35 -10 -35 -5 0 -10 -4 -10 -10 0 -5 25 -10 55
-10 42 0 55 -3 55 -15 0 -10 10 -15 26 -15 25 0 26 -2 20 -37 -12 -63 -17 -73
-38 -73 -23 0 -47 26 -48 53 0 13 -8 17 -34 17 -19 0 -37 6 -40 13 -5 10 -7
10 -12 0 -3 -7 -11 -13 -17 -13 -17 0 -39 -38 -27 -45 6 -3 10 -26 10 -51 0
-31 4 -44 14 -44 22 0 23 -41 2 -87 -13 -28 -26 -43 -38 -43 -10 0 -18 4 -18
10 0 5 -7 7 -15 4 -11 -5 -15 1 -15 20 0 21 -5 26 -24 26 -16 0 -27 7 -31 20
-6 20 -6 20 -45 0 -22 -11 -48 -20 -60 -20 -13 0 -20 -7 -20 -20 0 -13 -7 -20
-20 -20 -11 0 -20 -7 -20 -15 0 -11 11 -15 40 -15 27 0 43 5 46 15 4 8 15 15
25 15 12 0 19 7 19 20 0 11 5 20 10 20 6 0 10 -13 10 -30 0 -25 4 -30 35 -36
31 -6 50 -24 25 -24 -5 0 -10 -11 -10 -25 0 -14 -4 -25 -10 -25 -5 0 -10 -9
-10 -20 0 -15 -7 -20 -25 -20 -14 0 -25 -4 -25 -10 0 -5 -9 -10 -19 -10 -11 0
-23 -4 -26 -10 -3 -5 -15 -10 -26 -10 -21 0 -59 -33 -59 -52 0 -6 -16 -26 -36
-45 -33 -30 -36 -36 -30 -69 4 -19 3 -41 -2 -47 -25 -33 5 -97 44 -94 13 1 20
-5 22 -20 2 -13 8 -23 14 -23 17 0 1 -101 -20 -130 -10 -14 -21 -33 -25 -42
-8 -23 -60 -24 -81 -2 -9 8 -19 26 -22 40 -4 17 -13 24 -30 24 -13 0 -24 5
-24 10 0 6 7 10 15 10 8 0 15 5 15 10 0 6 -9 10 -19 10 -35 0 -51 12 -51 37 0
19 -4 24 -16 19 -9 -3 -20 -6 -25 -6 -5 0 -9 -16 -9 -35 0 -33 -2 -35 -32 -35
-39 0 -49 6 -67 43 -8 15 -18 27 -23 27 -4 0 -8 12 -8 28 0 22 -2 24 -11 12
-8 -11 -9 -7 -4 18 6 28 4 32 -14 32 -23 0 -29 25 -8 34 10 5 10 7 0 12 -15 7
-17 54 -3 54 18 0 11 20 -16 45 -31 29 -91 34 -100 10 -7 -18 -44 -19 -113 -3
-41 9 -51 16 -52 32 0 12 -3 15 -6 9 -6 -17 -23 -17 -23 0 0 8 -12 19 -26 26
-36 16 -104 72 -99 81 7 11 -22 21 -40 14 -8 -4 -15 -12 -15 -20 0 -8 -10 -14
-25 -14 -15 0 -25 6 -25 14 0 8 -9 18 -20 21 -11 3 -20 11 -20 16 0 5 -6 9
-14 9 -9 0 -16 16 -20 43 -6 42 -33 77 -59 77 -18 0 -64 43 -60 57 2 6 -5 17
-16 23 -30 15 -71 56 -71 68 0 26 -33 92 -46 92 -21 0 -64 52 -64 77 0 13 5
23 11 23 8 0 10 18 7 55 -3 30 -1 55 3 55 5 0 6 6 3 14 -3 7 2 20 10 29 19 18
21 47 5 47 -20 0 -3 130 23 186 13 27 29 53 36 57 6 4 12 14 12 21 0 7 11 23
25 36 16 15 23 30 19 42 -3 10 1 25 10 33 16 17 76 21 76 5 0 -5 23 -10 50
-10 43 0 50 3 50 19 0 11 -4 21 -9 23 -4 2 -10 24 -13 51 -4 36 -2 47 8 47 8
0 14 -4 14 -10 0 -5 7 -10 15 -10 8 0 15 9 15 20 0 11 -6 20 -14 20 -9 0 -12
7 -9 20 4 14 0 20 -11 20 -9 0 -16 6 -16 14 0 8 -9 18 -20 21 -23 7 -70 54
-70 70 0 6 -9 27 -20 48 -11 20 -16 37 -10 37 5 0 10 8 10 18 0 11 14 27 35
38 45 24 64 72 67 169 1 71 0 78 -25 99 -15 13 -27 28 -27 35 0 6 -4 11 -10
11 -5 0 -10 8 -10 18 0 10 -5 23 -11 29 -15 15 0 62 24 75 38 20 55 43 63 83
4 22 15 46 25 53 10 7 19 25 21 40 2 16 12 31 26 37 12 5 22 17 22 27 0 9 4
18 9 20 14 5 0 68 -15 68 -8 0 -14 9 -14 21 0 15 -5 19 -15 15 -21 -8 -19 20
3 34 13 9 14 12 3 17 -11 5 -11 7 0 14 25 16 39 9 39 -18z m-10730 -403 c0
-11 5 -20 10 -20 6 0 10 -9 10 -20 0 -11 4 -20 9 -20 5 0 12 -13 16 -29 3 -16
13 -32 21 -35 8 -3 26 -29 39 -57 23 -50 23 -58 18 -208 l-6 -157 46 -49 c35
-38 47 -60 52 -95 11 -77 16 -90 35 -90 24 0 27 -16 29 -122 1 -65 -3 -90 -14
-102 -8 -8 -15 -22 -15 -30 0 -9 -4 -16 -10 -16 -5 0 -10 -9 -10 -20 0 -11 -4
-20 -10 -20 -6 0 -10 -30 -10 -70 0 -57 3 -70 16 -70 18 0 37 -17 47 -42 3
-10 11 -18 17 -18 5 0 10 -6 10 -13 0 -7 9 -23 20 -35 11 -12 20 -24 20 -28 0
-4 11 -16 23 -28 13 -12 28 -29 33 -37 11 -18 87 -78 140 -112 22 -14 48 -33
58 -42 9 -9 22 -18 29 -19 17 -4 101 -86 116 -113 9 -17 21 -23 47 -23 37 0
46 -7 122 -94 27 -31 32 -44 32 -89 0 -31 -6 -62 -15 -74 -18 -26 -11 -96 11
-114 8 -6 14 -20 14 -30 0 -10 9 -23 20 -29 40 -21 53 -66 48 -164 -9 -160
-44 -203 -192 -235 -47 -10 -71 -11 -116 -1 -49 10 -61 10 -88 -4 -19 -10 -56
-16 -99 -16 -102 0 -286 -73 -394 -156 -32 -24 -66 -44 -77 -44 -11 0 -25 -7
-32 -15 -7 -8 -21 -15 -32 -15 -32 0 -133 57 -145 82 -19 36 -41 162 -48 274
-7 97 -6 105 24 190 17 49 38 101 45 116 19 35 6 93 -27 126 -21 20 -41 26
-128 37 -57 7 -121 20 -141 29 -21 9 -49 16 -63 16 -14 0 -28 7 -31 15 -4 8
-12 15 -20 15 -21 0 -54 32 -54 52 0 14 -8 18 -40 18 -28 0 -40 4 -40 14 0 8
-6 16 -12 18 -16 6 14 38 34 38 7 0 30 11 50 25 20 14 42 25 47 25 6 0 11 4
11 9 0 8 60 34 81 36 3 0 22 9 41 19 24 13 34 24 30 34 -3 8 3 22 14 30 10 8
15 16 9 18 -34 14 -40 25 -38 71 1 35 7 52 22 64 19 15 20 22 12 66 -6 26 -21
73 -34 103 -13 30 -27 69 -30 86 -3 17 -18 57 -32 89 -15 31 -34 95 -43 140
-13 72 -14 89 -2 124 7 23 17 41 22 41 4 0 8 6 8 13 0 6 13 21 29 31 16 11 36
32 46 48 9 15 20 28 25 28 5 0 16 12 24 28 8 15 40 54 73 87 87 90 122 153
123 217 0 15 4 29 9 32 5 3 12 23 16 43 4 21 22 54 41 75 19 21 34 44 34 52 0
7 7 19 15 26 10 8 15 30 15 62 0 45 13 77 33 78 4 0 7 -9 7 -20z m5544 -158
c-4 -31 -7 -58 -8 -59 -1 -1 -12 -4 -26 -7 -33 -8 -60 8 -42 26 6 6 12 26 12
43 0 42 28 77 52 64 15 -8 17 -18 12 -67z m2574 -81 c25 -21 28 -46 8 -67 -17
-16 -46 -19 -46 -4 0 6 -8 10 -19 10 -19 0 -34 32 -24 55 2 8 14 16 26 18 12
2 25 5 28 6 3 0 16 -7 27 -18z m-2418 -536 l0 -45 -50 0 c-43 0 -50 3 -50 19
0 11 9 23 20 26 11 3 20 15 20 26 0 14 7 19 30 19 29 0 30 -2 30 -45z m5850
10 c0 -11 -10 -15 -37 -14 -31 2 -33 3 -10 6 15 2 27 9 27 14 0 5 5 9 10 9 6
0 10 -7 10 -15z m-4229 -65 c5 0 9 -7 9 -15 0 -8 9 -15 20 -15 13 0 20 7 20
20 0 14 7 20 21 20 17 0 20 -4 15 -22 -3 -13 -6 -29 -6 -35 0 -7 -7 -13 -15
-13 -8 0 -15 -4 -15 -10 0 -5 -9 -10 -20 -10 -11 0 -20 5 -20 10 0 6 -7 10
-15 10 -9 0 -15 9 -15 25 0 14 -4 25 -10 25 -5 0 -10 5 -10 11 0 6 7 8 16 5 9
-3 20 -6 25 -6z m4663 -266 c9 -4 16 -18 16 -34 0 -16 5 -32 10 -35 24 -15 6
-25 -46 -25 -53 0 -55 1 -48 23 3 12 11 24 15 25 5 2 9 15 9 28 0 24 14 30 44
18z m-4914 -219 c0 -24 -5 -35 -14 -35 -32 0 -46 13 -46 41 0 26 4 29 30 29
28 0 30 -3 30 -35z m-476 -480 c4 -19 11 -35 16 -35 6 0 10 -20 10 -45 0 -25
-4 -45 -10 -45 -5 0 -10 -9 -10 -20 0 -26 -15 -25 -43 0 -12 11 -32 28 -45 38
-21 16 -23 22 -16 70 6 46 9 52 30 52 13 0 24 5 24 10 0 6 8 10 19 10 14 0 21
-10 25 -35z m-934 -110 c0 -25 -4 -35 -16 -35 -10 0 -14 -6 -10 -15 3 -9 0
-15 -9 -15 -8 0 -15 8 -15 18 0 10 -3 22 -7 26 -14 14 -9 31 12 43 34 21 45
15 45 -22z m776 -114 c4 -17 12 -32 20 -35 8 -3 14 -12 14 -20 0 -16 30 -26
83 -26 33 0 37 3 37 25 0 16 6 25 15 25 8 0 15 5 15 10 0 6 20 10 45 10 25 0
45 -4 45 -9 0 -5 10 -11 23 -13 17 -2 23 -11 25 -35 3 -28 0 -32 -35 -44 -44
-15 -69 -20 -100 -21 -13 0 -25 -8 -28 -19 -4 -10 -15 -19 -26 -19 -10 0 -19
-4 -19 -8 0 -4 -24 -14 -52 -20 -105 -25 -108 -25 -108 -8 0 9 -4 16 -10 16
-5 0 -10 14 -10 30 0 17 -3 30 -7 30 -10 0 -16 95 -8 120 4 11 13 20 21 20 8
0 14 5 14 10 0 6 9 10 20 10 15 0 22 -8 26 -29z m-190 -191 c27 0 33 -17 9
-26 -24 -10 -65 5 -65 22 0 11 5 14 16 10 9 -3 27 -6 40 -6z m-13224 -270 c10
-14 23 -54 29 -89 16 -105 84 -291 156 -435 18 -34 11 -31 -67 33 -31 26 -67
54 -81 64 -14 11 -26 30 -27 45 -4 52 -24 137 -37 158 -21 33 -45 124 -45 171
0 81 33 105 72 53z m17894 -204 c16 -17 19 -36 4 -36 -5 0 -10 -9 -10 -20 0
-21 16 -28 22 -9 6 19 48 -9 48 -32 0 -19 7 -30 43 -70 9 -10 17 -30 17 -44 0
-24 -3 -25 -55 -25 -30 0 -55 5 -55 10 0 6 7 10 15 10 8 0 15 5 15 10 0 6 -7
10 -15 10 -10 0 -15 11 -15 35 0 19 -4 35 -10 35 -5 0 -10 7 -10 15 0 10 -11
15 -35 15 -25 0 -35 4 -35 16 0 11 -6 14 -20 9 -16 -5 -20 -2 -20 19 0 14 5
26 10 26 6 0 10 9 10 20 0 17 7 20 41 20 22 0 47 -6 55 -14z m-16526 -206 c0
-29 -4 -40 -15 -40 -16 0 -19 5 -29 53 -6 24 -3 27 19 27 23 0 25 -4 25 -40z
m17660 -75 c0 -22 4 -25 35 -25 24 0 35 5 35 15 0 8 5 15 10 15 6 0 10 -4 10
-10 0 -5 9 -10 20 -10 17 0 19 -3 10 -19 -5 -11 -10 -27 -10 -36 0 -34 -26
-45 -103 -45 l-75 0 -11 31 c-15 43 -14 96 2 102 6 3 27 6 45 6 28 1 32 -2 32
-24z m-11272 -7 c15 -15 -3 -38 -29 -38 -22 0 -33 16 -25 35 7 18 37 20 54 3z
m8278 -43 c161 -16 235 -38 404 -118 120 -56 222 -122 356 -226 338 -265 405
-322 554 -471 91 -91 188 -179 215 -197 28 -17 119 -63 204 -102 165 -75 201
-97 271 -163 53 -50 471 -424 580 -518 41 -36 80 -70 85 -76 6 -6 48 -42 95
-80 93 -75 182 -151 332 -281 53 -46 137 -114 186 -151 148 -110 204 -209 169
-295 -17 -40 -32 -45 -75 -23 -15 7 -63 25 -107 40 -191 65 -217 75 -384 146
-145 61 -154 61 -361 4 -234 -66 -252 -74 -281 -137 -22 -50 -24 -86 -5 -130
33 -78 107 -120 311 -172 193 -50 304 -106 411 -210 12 -11 50 -48 85 -82 79
-75 191 -236 257 -369 76 -151 167 -435 197 -614 9 -52 20 -119 25 -149 18
-99 6 -203 -31 -273 -5 -10 -9 -25 -9 -33 0 -8 -4 -23 -9 -33 -21 -40 -42 -95
-84 -222 -68 -204 -262 -804 -292 -900 -14 -47 -30 -94 -34 -105 -5 -11 -30
-81 -55 -155 -77 -222 -135 -386 -197 -556 -33 -88 -81 -228 -109 -310 -27
-82 -70 -207 -95 -279 -26 -71 -67 -188 -91 -258 -33 -94 -65 -162 -121 -255
-42 -70 -102 -172 -133 -227 -66 -116 -202 -344 -236 -396 -13 -19 -24 -39
-24 -44 0 -5 -6 -16 -14 -24 -14 -16 -20 -26 -96 -164 -23 -43 -48 -81 -54
-83 -7 -3 -43 7 -82 22 -105 39 -192 68 -379 123 -234 70 -336 102 -585 181
-118 38 -258 81 -310 95 -112 31 -323 101 -365 123 -41 20 -44 24 -120 147
-38 61 -78 126 -90 145 -57 90 -285 533 -285 554 0 6 -50 116 -148 327 -57
123 -97 220 -197 474 -47 121 -97 247 -110 280 -60 152 -188 492 -229 610 -50
144 -85 237 -138 365 -20 47 -39 96 -43 110 -4 14 -27 54 -50 90 -54 83 -109
231 -126 340 -7 49 -13 175 -13 295 l-1 210 39 110 c21 60 69 181 107 270 38
88 74 170 79 183 17 39 27 66 45 117 9 28 20 59 25 70 60 146 82 269 120 695
67 735 86 1178 56 1285 -8 28 -24 84 -36 125 -21 74 -108 235 -189 350 -22 30
-79 116 -127 190 -48 74 -100 151 -115 171 -15 19 -51 76 -79 125 -28 49 -63
101 -77 116 -37 39 -27 57 42 79 136 44 238 72 385 109 85 21 184 51 220 66
96 40 288 104 345 116 183 37 379 45 591 23z m-8789 -127 c2 -5 15 -8 28 -8
19 0 23 -4 18 -16 -4 -11 1 -22 13 -31 16 -12 17 -15 4 -24 -11 -8 -12 -12 -2
-16 16 -6 15 -24 -4 -83 -20 -62 -49 -93 -80 -87 -32 6 -58 -24 -50 -56 9 -36
-33 -50 -134 -45 -44 2 -76 2 -70 0 20 -7 9 -23 -12 -18 -13 3 -17 3 -10 0 6
-3 12 -17 12 -31 0 -14 5 -43 12 -65 9 -29 9 -41 0 -50 -7 -7 -12 -19 -12 -28
0 -9 -10 -22 -22 -29 -13 -7 -32 -26 -43 -43 -11 -17 -27 -32 -35 -33 -9 -2
-38 -17 -65 -34 -27 -17 -54 -31 -61 -31 -6 0 -17 -7 -24 -15 -7 -8 -21 -15
-30 -15 -10 0 -31 -13 -47 -30 -15 -16 -32 -30 -38 -30 -5 0 -35 -12 -65 -27
-78 -38 -88 -43 -155 -81 -33 -19 -69 -40 -80 -46 -22 -11 -63 -42 -119 -88
-19 -16 -39 -28 -45 -28 -7 0 -22 -5 -34 -12 -70 -39 -93 -8 -76 103 8 50 18
77 35 96 13 14 24 31 24 38 0 6 16 30 35 52 19 23 35 46 35 52 0 14 60 101 69
101 5 0 19 16 32 35 14 20 36 37 51 40 32 7 252 219 262 253 4 12 31 42 60 67
30 25 66 63 81 85 19 28 35 40 51 40 13 0 24 5 24 10 0 6 9 10 19 10 10 0 21
7 25 15 3 8 10 15 15 15 6 0 32 13 59 29 27 16 63 32 81 36 17 3 31 10 31 15
0 5 15 11 33 13 51 7 198 3 204 -5z m12423 -408 c0 -20 -5 -30 -15 -30 -15 0
-21 40 -8 53 14 15 23 6 23 -23z m-12472 -774 c39 -21 79 -65 120 -137 21 -35
53 -74 72 -87 34 -22 34 -22 42 -3 4 11 12 47 18 81 12 67 36 113 70 137 25
18 172 20 245 3 63 -14 133 -96 205 -242 l60 -122 -20 -40 c-13 -28 -31 -47
-57 -59 -21 -9 -61 -30 -88 -45 -28 -15 -70 -36 -95 -46 -25 -11 -52 -25 -60
-32 -14 -12 -41 -18 -67 -15 -7 0 -27 14 -45 30 -18 15 -42 33 -53 39 -30 15
-93 23 -100 12 -12 -20 -102 -59 -162 -69 -74 -14 -95 -7 -147 49 -55 58 -81
53 -121 -22 -31 -57 -58 -84 -108 -106 -40 -17 -49 -16 -103 21 -57 39 -152
87 -171 87 -8 0 -33 -20 -57 -45 -55 -56 -101 -62 -142 -17 -44 47 -57 82 -58
157 0 94 36 165 83 165 4 0 24 -16 44 -35 42 -41 51 -43 71 -13 12 16 16 47
16 106 0 97 18 145 61 167 34 18 94 19 131 2 33 -15 103 -93 151 -169 56 -89
83 -76 93 43 8 101 20 135 61 172 53 49 71 54 111 33z m1071 -52 c22 -28 28
-88 11 -99 -5 -3 -10 -14 -10 -24 0 -32 -31 -81 -60 -96 -35 -18 -121 -20
-138 -3 -15 15 -16 119 -1 171 16 59 42 77 115 77 56 0 65 -3 83 -26z m2882
-188 c16 -34 4 -73 -33 -109 -25 -25 -33 -45 -45 -111 -7 -45 -14 -114 -14
-155 -1 -50 -6 -79 -15 -88 -17 -17 -16 -20 -16 176 0 74 5 144 10 155 5 12
18 41 28 66 37 92 64 113 85 66z m-9254 -632 c-9 -9 -28 6 -21 18 4 6 10 6 17
-1 6 -6 8 -13 4 -17z m123 -155 c0 -38 -24 -35 -28 4 -2 19 1 27 12 27 11 0
16 -10 16 -31z m2400 -1509 c0 -5 -4 -10 -10 -10 -5 0 -10 5 -10 10 0 6 5 10
10 10 6 0 10 -4 10 -10z m120 -185 c0 -17 -2 -18 -24 -9 -23 9 -20 24 4 24 11
0 20 -7 20 -15z m60 5 c0 -5 -7 -10 -15 -10 -8 0 -15 5 -15 10 0 6 7 10 15 10
8 0 15 -4 15 -10z m-1370 -794 c0 -21 -68 -76 -94 -76 -49 0 -38 57 15 76 47
17 79 17 79 0z m-510 -274 c0 -21 -18 -42 -37 -42 -20 0 -27 28 -13 45 18 21
50 19 50 -3z m550 -17 c0 -25 -30 -61 -78 -92 -18 -12 -25 -13 -37 -3 -24 20
-18 35 30 79 52 48 85 54 85 16z m519 7 c17 -31 -17 -58 -51 -40 -37 18 -19
52 29 57 7 0 17 -7 22 -17z m-1021 -296 c3 -22 -5 -37 -34 -67 -63 -65 -109
-46 -78 32 19 47 49 71 84 67 19 -2 26 -10 28 -32z m-493 -24 c-7 -28 -21 -42
-42 -42 -20 0 -15 38 7 60 26 26 44 16 35 -18z m1133 -124 c16 -16 15 -33 -4
-52 -34 -34 -84 -2 -69 44 7 23 53 28 73 8z m-1048 -198 c0 -16 -11 -38 -26
-54 -50 -49 -88 -23 -58 40 33 68 84 77 84 14z m-442 0 c4 -33 -20 -65 -42
-57 -19 8 -21 39 -3 67 16 27 41 21 45 -10z m900 -52 c20 -20 14 -75 -10 -98
-45 -41 -118 -43 -118 -2 0 19 20 53 53 90 22 24 56 29 75 10z m1960 -129 c5
-25 -41 -74 -61 -66 -17 7 -23 43 -9 63 17 27 65 28 70 3z m-1541 -46 c7 -19
-36 -55 -60 -51 -33 5 -33 34 0 52 31 17 54 17 60 -1z m-751 -26 c42 -36 25
-51 -52 -44 -56 6 -124 29 -124 43 0 11 48 23 97 23 41 1 58 -4 79 -22z
m-1020 -8 c9 -16 -18 -30 -33 -17 -7 6 -10 14 -7 19 7 13 31 11 40 -2z m1265
-89 c34 -18 53 -41 32 -40 -102 5 -202 38 -187 62 10 15 108 2 155 -22z m279
-65 c15 -18 -3 -70 -27 -80 -32 -12 -89 47 -77 79 8 21 87 22 104 1z m-730
-74 c17 -32 11 -68 -15 -98 -24 -27 -26 -27 -40 -9 -13 17 -13 35 1 104 6 28
39 30 54 3z m-487 -84 c20 -15 26 -27 22 -40 -11 -26 -42 -21 -62 11 -9 15
-25 37 -36 49 -12 14 -17 29 -13 39 6 16 10 15 34 -10 15 -15 40 -37 55 -49z
m767 -93 c0 -77 -134 -140 -148 -69 -3 11 17 37 53 71 48 46 59 52 76 44 13
-8 19 -21 19 -46z m175 27 c3 -10 1 -31 -5 -45 -13 -34 -53 -33 -58 1 -7 49
48 89 63 44z m175 -146 c20 -24 -3 -65 -34 -65 -38 0 -52 34 -26 60 24 24 43
25 60 5z m1273 -233 c0 -44 -9 -65 -24 -57 -10 7 -12 75 -3 100 11 27 27 1 27
-43z m1134 -65 c12 -41 17 -47 49 -53 36 -7 40 -20 11 -38 -12 -8 -22 -7 -34
2 -10 6 -28 16 -40 22 -48 20 -65 88 -29 112 19 13 29 3 43 -45z m-1036 -639
c56 -19 63 -45 27 -102 -30 -46 -51 -52 -93 -26 -65 40 -81 84 -45 120 23 23
61 25 111 8z m-1769 -93 c52 -93 16 -127 -58 -54 -44 44 -54 75 -32 97 26 26
62 9 90 -43z m3527 -17 c14 -25 14 -29 -5 -55 -29 -38 -86 -60 -119 -45 -38
18 -32 53 16 96 48 44 85 46 108 4z m-3434 -347 c22 -19 50 -48 63 -63 31 -36
113 -62 147 -46 14 6 25 15 25 19 0 20 54 42 97 40 25 0 61 4 80 11 28 10 36
10 49 -4 22 -22 28 -88 14 -147 -12 -51 -30 -61 -30 -16 0 14 -13 39 -29 57
l-28 32 -59 -14 c-45 -11 -67 -23 -94 -51 -38 -41 -105 -73 -142 -67 -20 3
-24 10 -29 52 -3 33 -11 53 -24 60 -10 6 -40 30 -66 53 -27 23 -58 47 -69 53
-24 13 -26 43 -4 65 21 21 49 12 99 -34z m3088 27 c37 -14 33 -49 -6 -62 -34
-12 -104 10 -121 37 -9 15 -7 21 9 33 21 16 65 13 118 -8z m-395 -14 c12 -8
22 -24 22 -36 0 -17 -4 -19 -27 -13 -36 8 -57 29 -50 49 8 20 26 20 55 0z
m-2793 -179 c17 -14 18 -17 5 -25 -29 -18 -57 -11 -64 15 -12 49 5 52 59 10z
m663 -354 c126 -127 146 -162 101 -174 -16 -4 -30 3 -53 30 -17 19 -54 45 -82
58 -60 27 -94 66 -94 109 0 71 44 63 128 -23z m3222 -90 c13 -25 13 -88 0 -96
-16 -10 -49 14 -56 41 -14 53 32 98 56 55z m-2662 -163 c28 -28 2 -88 -33 -75
-24 10 -31 58 -10 74 23 16 28 16 43 1z m2760 -6 c2 -7 -3 -12 -12 -12 -9 0
-16 7 -16 16 0 17 22 14 28 -4z m-3214 -8 c10 -27 -5 -83 -27 -99 -28 -20 -37
-11 -37 37 0 60 48 105 64 62z m3301 -114 c11 -16 37 -37 58 -46 42 -19 97
-89 97 -123 0 -28 -5 -27 -48 14 -20 19 -40 35 -44 35 -3 0 -17 17 -29 38 -13
20 -36 49 -51 64 -28 26 -39 61 -15 53 6 -3 21 -18 32 -35z m-3450 0 c3 -5 16
-10 28 -10 37 0 51 -16 50 -55 -1 -40 -21 -95 -34 -95 -11 0 -47 38 -70 75
-26 41 -26 95 0 95 11 0 23 -4 26 -10z m3019 -1031 c-22 -24 -75 -15 -59 11
11 18 49 29 63 17 10 -8 9 -13 -4 -28z m-209 -64 c30 -15 60 -57 49 -68 -3 -3
-23 -3 -45 0 -32 5 -47 0 -80 -23 -44 -30 -70 -26 -78 12 -4 24 27 82 48 87
35 10 74 6 106 -8z m173 -315 c94 -60 79 -92 -37 -81 -68 7 -91 24 -91 67 0
66 38 71 128 14z m-599 -156 c33 -37 41 -55 41 -85 0 -49 -14 -56 -53 -27 -63
48 -79 44 -111 -24 -25 -51 -40 -55 -44 -11 -2 23 4 40 26 65 16 18 32 43 36
55 8 26 44 73 56 73 5 0 27 -21 49 -46z m-336 -288 c-2 -30 -28 -66 -48 -66
-6 0 -22 10 -34 21 -22 21 -22 22 -5 32 11 6 25 19 32 29 8 11 23 18 35 16 17
-2 22 -9 20 -32z m1377 -755 c0 -5 9 -13 20 -16 14 -4 20 -15 20 -36 0 -26 -3
-29 -20 -24 -17 5 -20 2 -20 -24 0 -17 -4 -31 -10 -31 -5 0 -10 -14 -10 -31 0
-24 3 -29 13 -21 6 6 25 8 40 5 23 -5 26 -9 21 -27 -6 -18 -5 -19 9 -7 14 11
19 11 32 -2 8 -9 15 -20 15 -26 0 -6 5 -11 11 -11 6 0 8 -8 4 -19 -5 -16 1
-20 35 -26 30 -5 40 -11 40 -26 0 -10 7 -19 15 -19 8 0 15 -4 15 -10 0 -6 32
-10 75 -10 l75 0 0 -66 c0 -61 -1 -66 -20 -61 -11 3 -20 1 -20 -4 0 -5 6 -9
13 -9 6 0 28 -14 47 -31 l35 -31 -32 18 c-18 10 -33 22 -33 26 0 4 -7 8 -16 8
-8 0 -63 28 -121 63 -58 34 -124 73 -146 86 -23 13 -98 61 -167 105 -69 45
-160 104 -203 131 -43 27 -82 54 -88 61 -7 8 10 16 61 28 62 15 72 16 85 2 8
-8 15 -22 15 -30 0 -12 10 -16 35 -16 25 0 35 4 35 16 0 11 6 14 20 9 15 -5
28 2 48 23 34 36 72 53 72 33z m15180 -590 c19 -37 12 -81 -19 -111 -49 -50
-121 -52 -143 -5 -18 41 -2 72 55 105 60 35 92 38 107 11z"/>
<path d="M21440 37224 c-81 -10 -198 -37 -237 -55 -23 -10 -47 -19 -52 -19 -6
0 -11 -3 -11 -8 0 -4 -12 -13 -27 -20 -46 -20 -93 -68 -99 -101 -4 -17 -10
-31 -15 -31 -11 0 -12 -67 -1 -72 4 -1 20 -19 36 -38 89 -107 219 -148 576
-181 218 -19 271 7 278 139 4 74 -19 216 -43 262 -35 68 -146 117 -282 124
-48 2 -104 2 -123 0z"/>
<path d="M9490 20090 c0 -5 4 -10 9 -10 6 0 7 -16 4 -35 -4 -23 -2 -35 6 -35
7 0 11 -8 9 -17 -2 -12 4 -19 20 -21 21 -3 22 0 22 62 l0 66 -35 0 c-19 0 -35
-4 -35 -10z"/>
<path d="M9770 15821 c0 -6 9 -16 20 -24 12 -8 20 -20 18 -28 -2 -7 5 -15 15
-17 20 -4 36 27 18 37 -6 4 -9 15 -5 24 5 14 0 17 -30 17 -20 0 -36 -4 -36 -9z"/>
<path d="M6550 15710 c0 -5 -11 -10 -24 -10 -13 0 -27 -6 -30 -12 -5 -10 -7
-10 -12 0 -7 14 -44 16 -44 2 0 -5 -8 -10 -17 -11 -10 0 -13 -3 -6 -5 8 -4 10
-16 6 -35 -3 -18 -1 -29 5 -29 6 0 9 -6 6 -14 -8 -20 34 -9 60 16 27 24 36 23
36 -7 0 -18 5 -25 20 -25 17 0 20 -7 20 -45 0 -25 -4 -45 -9 -45 -8 0 -13 -47
-13 -127 0 -13 -4 -21 -8 -18 -7 4 -20 -40 -20 -66 0 -16 21 -9 46 16 14 14
35 25 47 25 18 0 25 9 34 43 20 73 23 127 7 127 -10 0 -14 13 -14 45 0 25 -4
45 -10 45 -5 0 -10 9 -10 19 0 11 -5 42 -12 70 -10 43 -15 51 -35 51 -13 0
-23 -4 -23 -10z"/>
<path d="M6760 15265 c0 -18 5 -25 20 -25 15 0 20 7 20 25 0 18 -5 25 -20 25
-15 0 -20 -7 -20 -25z"/>
<path d="M9630 14980 c0 -34 5 -37 26 -16 21 21 17 46 -6 46 -16 0 -20 -7 -20
-30z"/>
<path d="M9630 14910 c0 -5 9 -10 20 -10 11 0 20 5 20 10 0 6 -9 10 -20 10
-11 0 -20 -4 -20 -10z"/>
<path d="M9540 14685 c0 -28 4 -35 19 -35 10 0 21 6 24 14 10 24 -4 56 -24 56
-15 0 -19 -7 -19 -35z"/>
<path d="M6018 14494 c-12 -25 -10 -29 18 -52 36 -29 144 -62 226 -69 l56 -5
7 32 c8 36 2 45 -28 46 -54 2 -137 16 -137 24 0 5 -19 15 -42 24 -84 30 -87
30 -100 0z"/>
<path d="M8773 12383 c-23 -9 -14 -33 12 -33 18 0 25 5 25 20 0 19 -12 24 -37
13z"/>
<path d="M22660 17505 c0 -18 5 -25 20 -25 11 0 20 5 20 10 0 6 7 10 15 10 23
0 18 17 -7 24 -39 10 -48 7 -48 -19z"/>
<path d="M23290 17023 c-10 -12 -11 -18 -2 -21 7 -2 12 -17 12 -33 0 -16 5
-29 13 -29 6 0 22 -3 35 -6 20 -6 22 -3 22 34 0 22 -3 47 -6 56 -8 21 -55 20
-74 -1z"/>
<path d="M18523 24215 c-18 -20 -16 -28 7 -45 12 -8 20 -26 20 -42 0 -26 2
-28 45 -28 38 0 45 3 45 20 0 11 -4 20 -10 20 -5 0 -10 9 -10 20 0 11 -16 30
-37 45 -43 29 -44 29 -60 10z"/>
<path d="M15620 23638 c-24 -95 8 -447 49 -531 11 -24 71 -97 133 -163 159
-169 186 -204 199 -249 21 -75 27 -85 55 -85 19 0 47 -19 98 -68 62 -59 77
-68 110 -69 21 -1 41 -5 45 -11 3 -5 23 -12 44 -16 21 -4 53 -16 72 -28 27
-15 44 -19 73 -14 93 17 118 18 129 4 12 -14 6 -68 -8 -68 -5 0 -9 -8 -9 -17
-1 -33 -25 -52 -76 -58 -47 -7 -52 -5 -81 24 -17 17 -39 31 -48 31 -9 0 -25 4
-35 10 -28 15 -78 1 -86 -23 -10 -31 -83 -105 -129 -132 -22 -13 -58 -28 -81
-34 -79 -21 -117 -99 -74 -154 14 -17 31 -27 49 -27 36 0 67 -23 75 -56 9 -36
62 -84 92 -84 38 0 118 30 136 51 21 24 28 24 78 -2 30 -16 46 -33 61 -68 37
-81 98 -132 181 -150 47 -11 78 -7 78 11 0 17 49 58 70 58 11 0 20 5 20 10 0
6 3 9 8 9 23 -4 29 5 30 46 1 25 -4 58 -12 73 -8 15 -21 53 -29 85 -8 31 -29
74 -46 96 -17 21 -31 46 -31 55 0 9 -9 25 -20 36 -11 11 -20 27 -20 35 0 8 -4
15 -10 15 -5 0 -10 9 -10 20 0 11 -4 20 -10 20 -6 0 -10 30 -10 70 0 39 -4 70
-9 70 -5 0 -11 11 -13 25 -4 17 -1 25 8 25 8 0 14 9 14 20 0 11 3 20 8 20 12
0 42 60 42 86 0 16 -23 47 -75 99 -41 41 -75 82 -75 91 0 29 -40 89 -73 109
-44 28 -116 70 -153 89 -17 9 -48 35 -69 56 -22 22 -43 40 -48 40 -8 0 -75 49
-105 78 -7 6 -17 12 -21 12 -12 0 -124 178 -164 260 -27 57 -50 86 -93 123
-31 26 -62 47 -70 47 -8 0 -14 3 -14 8 0 4 -12 13 -27 20 -16 7 -46 37 -69 66
l-41 54 -13 -50z"/>
<path d="M17468 21614 c-11 -22 -10 -28 7 -40 43 -32 93 -6 81 41 -5 21 -12
25 -41 25 -28 0 -38 -5 -47 -26z"/>
<path d="M15242 21253 c-21 -32 -52 -111 -52 -134 0 -9 -11 -28 -25 -43 -14
-15 -25 -32 -25 -37 0 -6 -10 -31 -21 -57 -20 -44 -33 -127 -22 -145 15 -25
60 52 80 138 8 33 17 71 20 85 7 28 48 82 56 74 7 -8 35 118 29 134 -7 19 -19
14 -40 -15z"/>
<path d="M15001 20421 c-8 -5 -9 -11 -3 -15 5 -3 12 1 16 9 6 17 6 18 -13 6z"/>
<path d="M19560 20021 c0 -88 -9 -121 -32 -121 -18 0 -19 -5 -14 -42 3 -24 9
-67 12 -95 l6 -53 69 0 c67 0 69 1 69 25 0 14 5 25 10 25 6 0 10 7 10 15 0 8
-4 15 -8 15 -5 0 -17 18 -28 40 -14 29 -24 38 -36 34 -12 -3 -18 0 -18 10 0 8
9 18 20 21 11 3 20 11 20 16 0 5 23 9 50 9 49 0 50 1 50 31 0 17 -4 28 -10 24
-14 -9 -60 40 -60 65 0 15 -6 20 -25 20 -14 0 -25 5 -25 10 0 6 -13 10 -30 10
-30 0 -30 0 -30 -59z"/>
<path d="M17808 19169 c-38 -21 -2 -94 43 -87 26 3 35 31 25 74 -7 26 -37 32
-68 13z"/>
<path d="M19380 19041 c0 -50 12 -91 27 -91 7 0 16 -7 19 -15 7 -17 44 -21 44
-5 0 6 9 10 20 10 13 0 20 7 20 20 0 13 -7 20 -19 20 -14 0 -22 10 -26 32 -9
41 -27 58 -59 58 -22 0 -26 -5 -26 -29z"/>
<path d="M19034 18513 c-21 -4 -34 -41 -34 -96 0 -22 55 -47 106 -47 27 0 37
-5 41 -20 3 -10 14 -22 24 -25 10 -4 19 -11 19 -16 0 -14 60 -11 76 5 17 18
18 53 2 58 -7 3 -13 11 -14 19 0 8 -2 22 -2 32 -1 10 -10 17 -22 17 -14 0 -20
7 -20 23 0 14 -10 28 -27 38 -27 15 -105 22 -149 12z"/>
<path d="M18390 17820 c0 -5 -7 -10 -16 -10 -11 0 -14 -5 -10 -17 4 -9 1 -20
-6 -24 -10 -7 -10 -11 0 -21 15 -15 16 -45 1 -50 -6 -2 8 -4 31 -5 24 -1 42 3
45 10 14 47 14 67 -1 82 -9 8 -13 22 -10 30 4 10 -1 15 -14 15 -11 0 -20 -4
-20 -10z"/>
<path d="M18268 17461 c-10 -10 -18 -32 -18 -49 0 -18 -4 -32 -10 -32 -5 0
-10 -9 -10 -20 0 -12 -7 -20 -16 -20 -8 0 -23 -7 -31 -16 -20 -19 -30 -118
-14 -128 6 -4 11 -18 11 -32 0 -19 5 -24 25 -24 23 0 25 4 25 45 0 26 5 45 11
45 7 0 9 11 6 27 -3 14 0 39 5 55 9 26 14 28 64 28 47 0 54 2 54 20 0 11 5 20
10 20 6 0 10 16 10 35 0 19 -4 35 -10 35 -5 0 -10 7 -10 15 0 22 -80 19 -102
-4z"/>
<path d="M17820 17434 c0 -10 -6 -14 -15 -11 -8 4 -17 2 -20 -3 -4 -6 -17 -10
-31 -10 -19 0 -24 -5 -24 -24 0 -13 -4 -26 -9 -28 -5 -1 -11 -19 -13 -38 -3
-31 0 -35 18 -33 19 2 23 -5 34 -63 10 -52 10 -70 0 -89 -13 -25 -49 -45 -81
-45 -11 0 -23 -10 -29 -24 -5 -13 -14 -27 -20 -31 -6 -4 1 -17 21 -36 22 -21
32 -40 36 -71 10 -89 35 -111 126 -110 40 0 109 0 155 0 52 0 82 4 82 11 0 6
9 11 20 11 15 0 20 7 20 25 0 18 5 25 19 25 30 0 51 11 51 26 0 8 4 14 9 14 5
0 8 29 6 65 -2 35 0 67 6 70 18 12 8 25 -35 46 -47 22 -52 32 -61 128 -2 27
-12 51 -25 63 -18 17 -24 18 -50 6 -17 -7 -30 -17 -30 -21 0 -14 -28 -37 -45
-37 -34 0 -44 24 -40 94 4 52 2 66 -9 66 -8 0 -18 9 -21 20 -8 24 -45 27 -45
4z m50 -384 c0 -5 13 -10 29 -10 20 0 32 -6 36 -19 3 -10 19 -21 35 -25 26 -5
30 -10 30 -37 0 -27 3 -31 21 -26 24 6 49 -1 49 -14 0 -5 -18 -9 -41 -9 -23 0
-47 -7 -55 -15 -9 -8 -31 -15 -50 -15 -24 0 -34 5 -34 15 0 8 -9 15 -19 15
-20 0 -31 18 -31 51 0 10 -4 19 -10 19 -5 0 -10 18 -10 40 0 36 3 40 25 40 14
0 25 -4 25 -10z"/>
<path d="M17551 16656 c12 -10 59 -15 59 -6 0 5 -14 10 -32 10 -17 0 -29 -2
-27 -4z"/>
<path d="M17350 16466 c0 -13 -3 -31 -6 -40 -5 -12 0 -16 20 -16 24 0 26 4 26
40 0 33 -3 40 -20 40 -14 0 -20 -7 -20 -24z"/>
</g>
</svg>
