<?xml version="1.0" standalone="no"?>
<!DOCTYPE svg PUBLIC "-//W3C//DTD SVG 20010904//EN"
 "http://www.w3.org/TR/2001/REC-SVG-20010904/DTD/svg10.dtd">
<svg version="1.0" xmlns="http://www.w3.org/2000/svg"
 width="4000.000000pt" height="1500.000000pt" viewBox="0 0 4000.000000 1500.000000"
 preserveAspectRatio="xMidYMid meet">

<g transform="translate(0.000000,1500.000000) scale(0.100000,-0.100000)"
fill="#000000" stroke="none">
<path d="M34659 11890 c-12 -17 -36 -22 -174 -35 -88 -9 -178 -21 -200 -27
-22 -6 -85 -18 -140 -28 -111 -20 -200 -41 -320 -76 -44 -13 -105 -30 -135
-38 -62 -16 -131 -39 -205 -68 -27 -11 -65 -23 -82 -28 -18 -4 -51 -17 -73
-29 -22 -12 -46 -21 -53 -21 -7 0 -39 -14 -72 -30 -33 -16 -66 -30 -73 -30 -7
0 -30 -11 -50 -25 -20 -14 -44 -25 -53 -25 -9 0 -27 -8 -40 -19 -13 -10 -41
-24 -61 -30 -21 -7 -40 -17 -44 -22 -3 -5 -28 -21 -55 -34 -95 -48 -145 -75
-208 -115 -34 -22 -64 -40 -66 -40 -1 0 -31 -19 -65 -42 -34 -24 -76 -52 -93
-63 -18 -10 -37 -24 -44 -30 -6 -5 -46 -35 -88 -65 -139 -99 -377 -304 -519
-445 -181 -180 -486 -552 -543 -663 -8 -15 -22 -36 -32 -47 -21 -24 -71 -102
-71 -111 0 -3 -10 -20 -22 -37 -13 -18 -30 -45 -40 -62 -36 -65 -66 -122 -82
-155 -10 -19 -22 -44 -28 -55 -56 -103 -171 -369 -192 -445 -7 -25 -20 -59
-29 -75 -8 -17 -19 -48 -23 -70 -4 -21 -18 -65 -30 -97 -13 -32 -24 -68 -24
-81 0 -13 -11 -57 -25 -97 -14 -40 -25 -85 -25 -99 0 -14 -11 -71 -24 -126
-14 -55 -27 -131 -31 -170 -3 -38 -13 -110 -21 -160 -36 -226 -36 -732 0 -945
8 -47 17 -121 21 -165 4 -43 16 -112 26 -152 11 -40 23 -99 28 -131 9 -62 40
-182 72 -277 12 -33 26 -82 33 -110 7 -27 18 -61 26 -75 7 -13 19 -45 26 -70
19 -68 87 -229 162 -385 11 -22 27 -56 36 -75 10 -19 22 -44 29 -55 6 -11 22
-40 35 -65 41 -77 56 -104 80 -137 12 -17 22 -35 22 -40 1 -9 138 -210 231
-340 121 -167 383 -457 539 -599 92 -83 302 -257 367 -304 26 -19 50 -37 53
-40 6 -7 98 -71 122 -85 9 -5 44 -29 77 -53 33 -23 63 -42 67 -42 3 0 24 -13
47 -28 23 -16 49 -32 57 -36 8 -4 38 -20 65 -36 108 -63 296 -160 309 -160 6
0 28 -11 48 -25 20 -14 43 -25 50 -25 7 0 40 -14 73 -30 33 -16 65 -30 72 -30
7 0 31 -9 53 -21 22 -12 55 -25 73 -29 17 -5 55 -17 82 -28 85 -34 147 -54
210 -69 33 -8 76 -21 95 -30 19 -8 66 -21 105 -29 38 -8 103 -23 144 -34 41
-11 86 -20 100 -20 14 0 64 -9 111 -20 46 -12 151 -27 232 -35 160 -17 174
-20 182 -41 5 -12 74 -14 444 -14 423 0 440 1 453 19 12 17 38 22 172 36 87 9
195 24 240 35 45 10 108 21 141 25 32 4 77 13 100 21 22 8 73 21 113 29 39 8
84 20 100 28 15 8 46 17 68 21 22 3 69 17 105 30 36 13 85 30 110 38 91 31
116 41 168 64 29 13 58 24 65 24 6 0 39 14 72 30 33 16 65 30 72 30 7 0 29 11
49 25 20 14 42 25 49 25 12 0 108 48 210 105 28 15 70 38 95 52 63 33 110 62
139 84 13 10 28 19 32 19 5 0 40 22 79 50 39 27 73 50 78 50 4 0 37 24 74 53
37 28 83 63 103 77 92 64 356 291 481 415 160 158 420 474 529 644 6 9 31 48
56 86 98 149 105 162 165 275 13 25 28 52 33 60 28 46 181 381 181 396 0 5 9
27 19 49 19 37 29 66 67 185 8 25 22 65 30 90 9 25 24 79 34 120 10 41 22 87
28 101 6 15 18 71 27 125 10 54 22 110 27 124 5 14 14 66 19 115 15 154 29
225 45 225 12 0 14 67 14 430 0 362 -2 430 -14 430 -16 0 -32 77 -42 200 -3
41 -12 98 -19 125 -8 28 -21 88 -29 135 -8 47 -21 106 -30 130 -8 25 -20 72
-26 105 -7 33 -18 72 -26 86 -7 15 -18 49 -24 75 -6 27 -19 67 -29 89 -10 22
-22 56 -26 75 -4 19 -18 55 -31 80 -13 25 -24 50 -24 56 0 23 -189 415 -248
514 -15 25 -36 61 -47 79 -11 19 -44 70 -72 114 -29 44 -53 82 -53 85 0 2 -10
17 -22 32 -13 16 -48 63 -78 105 -99 138 -325 403 -436 510 -167 162 -382 348
-479 415 -20 14 -53 38 -73 54 -38 29 -220 154 -250 171 -9 5 -34 21 -56 34
-60 39 -127 76 -225 126 -27 13 -52 29 -55 34 -4 5 -23 15 -44 22 -20 6 -49
20 -64 30 -14 11 -33 19 -41 19 -8 0 -31 11 -51 25 -20 14 -45 25 -54 25 -9 0
-35 11 -57 25 -22 13 -47 25 -55 25 -8 0 -44 14 -78 30 -35 17 -71 30 -80 30
-10 0 -39 12 -67 25 -27 14 -59 25 -70 25 -11 0 -40 10 -65 21 -25 11 -72 27
-105 34 -55 13 -93 23 -275 75 -36 10 -101 24 -144 30 -43 5 -104 17 -135 25
-31 8 -105 19 -166 24 -216 21 -223 22 -228 42 -5 18 -23 19 -445 19 -427 0
-440 -1 -453 -20z m956 -478 c66 -11 149 -23 185 -26 36 -4 101 -15 145 -26
44 -10 108 -24 142 -30 34 -6 78 -17 97 -25 18 -8 58 -19 87 -24 30 -5 83 -19
119 -31 36 -12 79 -27 95 -32 37 -13 174 -63 235 -87 75 -30 264 -115 290
-132 8 -5 25 -14 38 -19 47 -21 69 -32 117 -60 28 -16 64 -36 80 -44 17 -8 45
-26 64 -40 19 -14 38 -26 42 -26 4 0 35 -19 69 -42 34 -24 70 -48 80 -54 10
-5 65 -44 121 -85 299 -219 624 -538 841 -827 134 -178 184 -255 303 -467 49
-88 155 -303 155 -315 0 -6 11 -32 25 -58 14 -26 25 -52 25 -59 0 -7 11 -36
24 -65 30 -69 53 -136 76 -223 9 -38 24 -87 33 -107 9 -21 19 -59 22 -85 4
-26 16 -79 26 -118 10 -38 23 -110 29 -160 6 -49 19 -128 28 -175 25 -126 25
-778 0 -895 -10 -44 -22 -120 -28 -170 -6 -49 -19 -121 -29 -160 -11 -38 -22
-92 -26 -118 -3 -26 -13 -64 -22 -84 -8 -20 -23 -70 -34 -111 -10 -41 -23 -80
-28 -86 -5 -6 -12 -29 -16 -51 -4 -22 -18 -61 -31 -87 -13 -26 -24 -53 -24
-59 0 -7 -12 -37 -26 -68 -14 -31 -34 -74 -44 -96 -20 -44 -100 -205 -137
-275 -13 -25 -41 -74 -63 -109 -22 -34 -40 -65 -40 -67 0 -2 -19 -32 -42 -65
-24 -34 -51 -75 -61 -91 -10 -17 -37 -55 -60 -84 -23 -29 -58 -74 -77 -101
-19 -26 -37 -50 -41 -53 -3 -3 -38 -43 -79 -90 -139 -162 -487 -494 -590 -563
-14 -9 -43 -30 -65 -46 -59 -44 -172 -123 -210 -146 -19 -12 -42 -28 -52 -36
-10 -8 -29 -21 -43 -27 -14 -7 -50 -28 -80 -46 -30 -19 -95 -55 -145 -80 -49
-26 -97 -51 -105 -56 -38 -21 -168 -80 -179 -80 -6 0 -22 -7 -34 -15 -13 -8
-49 -24 -81 -35 -33 -11 -64 -24 -70 -29 -6 -5 -27 -12 -46 -16 -19 -4 -53
-16 -75 -25 -59 -27 -228 -80 -251 -80 -11 0 -54 -11 -94 -25 -40 -14 -84 -25
-98 -25 -13 0 -70 -11 -126 -25 -55 -13 -145 -29 -199 -35 -54 -5 -117 -14
-140 -20 -167 -37 -760 -38 -1002 -2 -71 11 -157 23 -190 27 -33 3 -106 17
-163 31 -57 13 -115 24 -128 24 -13 0 -57 11 -96 25 -39 14 -81 25 -92 25 -22
0 -146 38 -231 72 -27 11 -66 24 -85 30 -19 5 -53 18 -75 27 -22 10 -61 26
-87 35 -26 10 -50 22 -53 27 -4 5 -13 9 -22 9 -15 0 -145 58 -183 81 -8 5 -26
14 -40 21 -60 29 -298 164 -356 202 -16 11 -51 34 -79 53 -27 18 -68 46 -90
63 -45 33 -98 71 -135 97 -99 69 -434 384 -576 543 -46 51 -159 191 -189 234
-11 16 -29 40 -41 55 -37 48 -140 205 -177 273 -21 36 -44 72 -52 78 -8 7 -15
20 -15 30 0 9 -8 28 -18 41 -22 29 -92 166 -92 181 0 5 -9 22 -19 37 -11 15
-23 40 -27 57 -3 16 -15 45 -25 64 -27 52 -69 159 -81 205 -5 22 -18 58 -28
80 -10 22 -21 60 -25 85 -4 24 -15 62 -25 85 -9 22 -23 72 -29 110 -7 39 -19
94 -28 124 -8 30 -21 102 -29 160 -7 58 -20 151 -28 206 -22 140 -22 640 0
780 8 55 22 152 29 215 8 63 21 135 30 160 8 25 20 77 26 115 7 39 20 88 29
110 10 23 21 61 25 85 4 25 14 61 22 80 8 19 21 55 28 80 14 48 54 148 86 216
10 22 19 47 19 55 0 8 11 31 25 51 14 20 25 41 25 47 0 12 68 148 92 183 10
14 18 32 18 39 0 7 6 20 14 28 8 9 36 53 63 98 52 88 176 275 197 295 6 7 26
33 43 58 133 194 550 605 777 765 31 22 56 43 56 47 0 3 9 10 20 13 11 3 26
12 32 19 18 16 199 136 207 136 4 0 23 12 42 26 19 14 48 32 64 40 17 8 53 28
80 44 28 15 66 35 85 44 19 9 42 20 50 26 8 6 31 17 50 26 77 35 147 67 185
85 22 10 60 26 85 35 25 9 79 28 120 44 41 15 89 32 105 38 17 5 59 20 95 32
36 12 89 26 119 31 29 5 69 17 90 25 20 9 70 22 111 29 41 7 118 23 170 34 52
11 111 21 130 21 19 0 73 7 120 16 141 26 280 33 610 29 254 -3 338 -7 435
-23z"/>
<path d="M36125 9414 c-11 -3 -58 -14 -105 -25 -133 -31 -283 -96 -375 -161
-22 -16 -58 -40 -80 -55 -22 -14 -105 -92 -185 -173 -80 -81 -159 -155 -177
-164 -42 -21 -101 -20 -138 2 -17 11 -93 82 -170 159 -77 77 -160 153 -184
169 -24 16 -62 41 -85 56 -104 70 -265 137 -396 165 -119 25 -382 25 -500 0
-125 -27 -321 -107 -370 -152 -9 -8 -20 -15 -25 -15 -12 0 -192 -147 -234
-191 -154 -161 -251 -340 -322 -594 -34 -122 -38 -321 -9 -439 24 -102 66
-211 117 -311 38 -74 115 -197 145 -230 58 -66 596 -612 898 -911 195 -194
359 -356 363 -361 191 -203 314 -328 507 -513 238 -228 241 -231 287 -251 52
-24 83 -18 138 25 55 43 256 238 519 505 122 123 310 312 419 420 299 295 529
525 654 652 61 63 177 178 257 257 153 150 213 218 262 292 43 65 110 206 129
270 9 30 26 78 37 105 18 43 22 76 26 227 4 176 4 178 -28 285 -60 205 -101
303 -167 402 -13 20 -29 45 -36 55 -20 31 -87 109 -116 135 -114 103 -272 221
-294 221 -3 0 -23 10 -44 23 -64 37 -143 67 -248 94 -83 20 -130 25 -275 28
-96 2 -184 2 -195 -1z"/>
<path d="M2615 11679 c-38 -4 -103 -14 -143 -23 -40 -9 -88 -16 -107 -16 -18
0 -64 -10 -101 -21 -38 -12 -94 -27 -124 -35 -74 -17 -174 -52 -234 -80 -28
-13 -56 -24 -63 -24 -8 0 -31 -11 -51 -25 -20 -14 -43 -25 -52 -26 -24 -1
-261 -135 -355 -201 -22 -16 -51 -36 -65 -45 -14 -10 -39 -29 -56 -43 -17 -14
-48 -38 -69 -55 -43 -33 -274 -261 -321 -315 -45 -53 -156 -200 -185 -245 -60
-94 -79 -125 -79 -132 0 -5 -14 -26 -30 -47 -17 -22 -30 -45 -30 -52 0 -7 -11
-30 -25 -50 -14 -20 -25 -43 -25 -51 0 -8 -9 -27 -19 -42 -18 -25 -28 -50 -77
-186 -10 -27 -25 -68 -34 -90 -10 -22 -20 -58 -24 -80 -4 -22 -16 -68 -26
-102 -10 -34 -24 -99 -30 -145 -16 -124 -21 -148 -30 -143 -4 3 -10 -5 -14
-18 -8 -29 -8 -3955 0 -3984 4 -13 10 -20 15 -17 5 3 9 3 9 0 0 -37 35 -240
49 -283 10 -32 22 -78 26 -103 4 -25 15 -61 25 -80 10 -19 21 -51 25 -70 4
-19 18 -55 30 -80 12 -25 25 -58 29 -74 4 -17 16 -42 27 -57 10 -15 19 -32 19
-37 0 -15 60 -130 88 -169 12 -17 22 -34 22 -37 0 -6 18 -36 79 -131 69 -107
247 -320 357 -425 151 -145 366 -308 509 -386 167 -91 353 -175 436 -199 26
-7 60 -20 75 -28 16 -8 49 -18 74 -22 25 -4 70 -16 101 -26 32 -9 108 -25 170
-34 90 -13 117 -20 128 -36 13 -19 145 -19 12161 -19 12026 0 12148 0 12161
19 11 16 38 23 131 36 64 8 136 22 160 31 24 8 68 20 97 25 30 6 73 19 95 29
23 10 54 21 71 25 16 3 52 17 81 31 28 13 57 24 65 24 8 0 32 11 54 25 22 13
47 25 55 25 9 0 32 11 52 25 20 14 42 25 49 25 7 0 27 11 45 25 18 14 37 25
42 25 5 0 20 9 33 19 14 10 38 27 55 37 149 90 316 225 458 369 85 85 258 295
287 346 8 13 17 26 21 29 13 10 139 225 144 248 4 12 10 22 14 22 5 0 16 21
26 48 10 26 25 58 33 71 14 22 28 56 67 166 9 28 26 71 36 98 10 26 22 66 27
90 5 23 18 76 29 117 20 74 46 220 63 355 11 91 11 3749 0 3840 -17 136 -43
281 -63 355 -11 41 -24 93 -28 115 -3 22 -16 60 -27 85 -11 25 -23 61 -27 80
-3 19 -17 57 -31 84 -14 27 -25 56 -25 64 0 7 -8 26 -19 40 -10 15 -22 38 -26
51 -8 27 -61 131 -86 171 -9 14 -42 66 -73 117 -130 209 -344 454 -517 591
-30 24 -88 70 -129 102 -41 33 -78 60 -83 60 -5 0 -23 11 -41 25 -18 14 -38
25 -43 25 -6 0 -16 6 -22 14 -13 16 -21 20 -215 120 -71 36 -134 66 -138 66
-5 0 -33 11 -61 24 -66 30 -166 65 -237 81 -30 7 -86 22 -124 34 -37 11 -82
21 -100 21 -17 0 -74 10 -126 22 l-95 22 -12065 2 c-6636 1 -12096 -2 -12135
-7z m7650 -575 c33 -9 93 -22 132 -29 40 -8 85 -21 100 -28 16 -8 51 -20 78
-27 28 -7 57 -18 65 -25 8 -7 36 -20 62 -30 26 -10 53 -24 59 -31 6 -8 16 -14
21 -14 28 0 181 -112 276 -204 54 -51 168 -185 187 -218 6 -10 28 -48 51 -85
23 -38 45 -79 49 -93 4 -14 16 -36 26 -49 11 -13 19 -30 19 -39 0 -8 11 -40
24 -71 32 -75 74 -215 82 -271 3 -25 16 -81 28 -125 l21 -80 0 -2260 0 -2260
-21 -80 c-12 -44 -25 -102 -28 -129 -7 -54 -46 -181 -82 -267 -13 -31 -24 -61
-24 -67 0 -14 -95 -197 -128 -247 -78 -118 -235 -286 -332 -357 -92 -67 -117
-82 -212 -130 -106 -53 -179 -81 -273 -105 -33 -8 -94 -25 -135 -37 -70 -20
-97 -21 -430 -21 -333 0 -360 1 -430 21 -41 12 -102 29 -135 37 -106 27 -205
65 -285 109 -8 4 -31 17 -51 27 -183 100 -372 280 -489 466 -47 75 -120 214
-120 229 0 5 -9 29 -20 52 -29 59 -90 264 -90 301 0 13 -10 56 -22 96 -22 72
-22 77 -28 1027 l-5 955 -500 3 c-275 1 -510 0 -522 -3 l-23 -5 0 -1623 c0
-1249 -3 -1626 -12 -1635 -17 -17 -789 -17 -806 0 -15 15 -18 7273 -2 7283 18
11 793 5 807 -6 11 -10 13 -297 13 -1634 0 -1471 1 -1623 16 -1629 9 -3 240
-6 514 -6 397 0 500 3 508 13 8 9 12 297 15 953 3 858 4 945 21 1004 9 36 24
103 32 149 8 47 19 90 24 96 5 6 14 33 20 59 6 27 22 73 35 103 14 29 25 59
25 66 0 7 12 30 25 52 14 22 25 45 25 52 0 12 10 29 95 161 89 139 314 347
460 426 17 9 37 20 45 26 55 35 258 108 335 121 33 6 80 17 105 26 65 23 242
32 510 27 168 -3 252 -9 295 -20z m8290 0 c33 -9 87 -20 120 -26 116 -21 379
-131 479 -201 177 -125 311 -267 431 -462 31 -50 95 -177 95 -189 0 -6 11 -33
25 -61 13 -27 25 -56 25 -63 0 -8 11 -46 24 -85 13 -40 27 -94 31 -122 3 -27
16 -86 28 -130 l22 -80 0 -2260 0 -2260 -22 -80 c-11 -44 -24 -105 -28 -135
-4 -30 -14 -70 -21 -89 -8 -19 -21 -61 -30 -95 -8 -34 -22 -71 -30 -83 -8 -12
-14 -27 -14 -34 0 -11 -77 -172 -102 -214 -124 -205 -284 -372 -461 -481 -26
-16 -64 -39 -83 -52 -19 -12 -40 -22 -47 -22 -7 0 -31 -11 -54 -24 -23 -13
-57 -27 -75 -31 -18 -4 -52 -16 -75 -26 -24 -11 -64 -22 -90 -25 -27 -4 -75
-16 -108 -28 -57 -20 -78 -21 -420 -21 -345 0 -363 1 -432 23 -39 12 -83 22
-98 22 -15 0 -54 11 -88 24 -34 14 -75 28 -92 32 -16 4 -48 17 -71 30 -22 13
-46 24 -52 24 -6 0 -27 10 -46 23 -19 12 -57 35 -83 51 -155 95 -322 262 -424
421 -68 106 -79 125 -79 137 0 7 -8 27 -19 44 -22 37 -91 203 -91 221 0 7 -11
46 -25 87 -14 41 -25 86 -25 101 0 15 -10 63 -22 108 l-23 82 0 2270 0 2270
23 77 c12 43 22 92 22 109 0 17 11 63 24 102 13 40 27 85 31 102 3 16 15 48
26 72 10 23 19 46 19 50 0 7 46 106 71 153 103 196 276 387 469 519 172 117
505 228 730 242 174 12 566 1 635 -17z m-13037 -42 c1 -1 2 -1638 2 -3637 0
-3583 0 -3634 -19 -3645 -13 -6 -155 -10 -393 -10 -322 0 -377 2 -396 16 l-22
15 0 3242 c0 2025 -4 3248 -10 3257 -8 13 -96 15 -672 18 -403 1 -669 -2 -678
-7 -12 -8 -16 -55 -21 -243 -10 -316 -28 -717 -39 -866 -6 -68 -10 -232 -10
-365 0 -229 -18 -719 -40 -1072 -5 -88 -10 -252 -10 -365 0 -193 -18 -676 -39
-1090 -5 -102 -13 -331 -16 -510 -4 -179 -11 -359 -15 -400 -4 -41 -16 -147
-25 -235 -9 -88 -25 -191 -35 -230 -10 -38 -22 -92 -26 -120 -4 -27 -18 -80
-30 -117 -13 -37 -24 -73 -24 -79 0 -12 -11 -38 -66 -156 -19 -39 -34 -73 -34
-76 0 -12 -72 -121 -118 -179 -152 -192 -394 -344 -609 -383 -40 -8 -80 -18
-90 -24 -33 -17 -173 -30 -361 -33 -154 -3 -184 -1 -192 12 -6 9 -10 160 -10
363 0 334 1 348 20 367 13 13 33 20 58 20 41 0 171 16 244 30 72 14 189 74
248 127 49 44 130 155 130 177 0 6 11 33 25 60 14 27 25 59 25 70 0 12 11 71
24 131 22 97 27 160 41 520 9 226 20 500 25 610 5 110 14 398 20 640 6 242 15
492 20 556 4 64 13 287 19 495 16 545 31 947 41 1114 6 80 14 348 20 595 5
248 19 612 30 810 11 198 21 414 22 480 3 115 4 119 26 125 22 5 2954 -2 2960
-8z m9885 4 l27 -5 0 -354 c0 -333 -1 -355 -19 -371 -17 -16 -97 -17 -1118
-16 -941 0 -1101 -2 -1118 -14 -20 -14 -20 -33 -23 -1123 -2 -1034 -1 -1109
15 -1120 13 -10 145 -13 577 -13 314 0 592 -5 631 -10 187 -27 484 -110 575
-161 8 -5 44 -24 80 -44 131 -71 262 -181 362 -305 49 -62 128 -180 128 -194
0 -6 9 -22 20 -36 11 -14 20 -32 20 -40 0 -8 11 -37 24 -65 31 -65 73 -198 81
-255 4 -25 17 -79 28 -120 22 -74 22 -86 22 -880 0 -790 0 -806 -21 -885 -12
-44 -25 -100 -28 -125 -17 -126 -122 -391 -204 -516 -70 -108 -88 -131 -158
-203 -79 -83 -187 -170 -269 -216 -27 -16 -61 -37 -74 -47 -13 -10 -31 -18
-40 -18 -9 0 -36 -11 -61 -24 -25 -13 -61 -27 -80 -31 -19 -4 -53 -15 -75 -25
-22 -10 -73 -23 -114 -29 -40 -6 -81 -16 -91 -21 -50 -27 -208 -32 -1161 -37
l-986 -5 -17 23 c-15 22 -16 305 -16 3641 0 3428 1 3619 18 3636 16 16 102 17
1527 15 831 -1 1522 -5 1538 -7z m7226 -11 c36 -7 93 -19 126 -26 82 -16 241
-65 290 -89 22 -11 56 -26 75 -35 19 -8 44 -20 55 -27 198 -124 268 -189 383
-357 37 -54 116 -211 131 -261 7 -25 19 -61 27 -80 8 -19 21 -71 29 -114 9
-44 23 -107 33 -140 15 -55 17 -120 17 -636 0 -567 0 -576 -22 -653 -13 -42
-23 -90 -23 -105 -1 -15 -10 -52 -21 -82 -11 -30 -24 -69 -28 -87 -15 -55
-105 -225 -154 -288 -98 -129 -223 -238 -332 -292 -22 -11 -53 -27 -70 -36
-16 -9 -45 -21 -63 -28 -27 -10 -33 -16 -30 -38 2 -21 12 -29 53 -42 42 -14
121 -52 210 -103 92 -52 271 -218 335 -311 46 -66 100 -156 100 -165 0 -4 11
-28 25 -51 14 -24 25 -50 25 -57 0 -7 9 -31 19 -53 11 -22 25 -65 31 -96 7
-30 18 -71 27 -90 8 -19 21 -90 29 -157 7 -66 19 -159 26 -206 17 -120 17
-974 0 -1090 -7 -47 -19 -139 -27 -206 -7 -66 -20 -138 -29 -160 -8 -21 -20
-64 -26 -95 -6 -31 -20 -74 -30 -95 -11 -21 -20 -44 -20 -52 0 -12 -65 -149
-93 -197 -111 -186 -246 -329 -417 -440 -122 -79 -363 -176 -488 -196 -31 -5
-82 -16 -112 -25 -85 -24 -430 -33 -1312 -33 -702 -1 -788 1 -802 15 -15 14
-16 359 -16 3644 0 2994 2 3631 13 3642 20 20 1961 14 2056 -7z m2868 3 c11
-9 13 -255 13 -1421 0 -776 3 -1414 7 -1418 5 -4 244 -9 533 -12 445 -4 535
-7 590 -21 36 -9 101 -23 146 -31 44 -8 100 -23 125 -35 24 -11 53 -20 64 -20
20 0 78 -25 190 -82 156 -79 327 -221 426 -355 24 -32 46 -60 49 -63 14 -14
120 -211 120 -223 0 -5 11 -35 24 -66 34 -79 74 -214 86 -293 6 -37 15 -79 20
-93 26 -68 31 -272 27 -1005 -3 -666 -6 -763 -21 -820 -9 -36 -21 -94 -26
-130 -11 -71 -62 -242 -91 -306 -11 -22 -19 -46 -19 -53 0 -7 -8 -25 -19 -39
-10 -15 -22 -38 -26 -52 -4 -14 -19 -43 -33 -65 -14 -22 -37 -58 -51 -80 -25
-39 -37 -54 -116 -150 -114 -137 -387 -317 -538 -354 -27 -6 -59 -18 -70 -26
-12 -7 -47 -17 -77 -20 -30 -4 -84 -16 -120 -27 -95 -29 -376 -37 -1262 -38
-729 0 -748 0 -758 19 -7 14 -10 1167 -10 3650 0 3134 2 3631 14 3638 23 13
787 5 803 -9z"/>
<path d="M9815 10366 c-5 -2 -57 -9 -115 -16 -58 -7 -123 -20 -145 -30 -22
-10 -60 -27 -85 -38 -65 -28 -159 -100 -211 -163 -47 -56 -109 -149 -109 -165
0 -5 -12 -31 -25 -59 -14 -27 -25 -58 -25 -67 0 -9 -12 -54 -27 -100 l-28 -83
0 -2225 0 -2225 22 -60 c12 -33 25 -78 29 -100 6 -38 62 -161 105 -235 49 -84
220 -231 287 -246 15 -4 41 -15 57 -24 38 -23 231 -52 342 -51 111 0 290 28
329 52 17 10 38 19 46 19 8 0 48 22 89 48 80 53 171 145 212 214 40 67 97 189
97 207 0 9 13 52 28 96 l27 80 0 2230 0 2230 -27 80 c-16 44 -28 88 -28 98 0
16 -30 84 -65 147 -8 14 -23 41 -34 62 -43 77 -241 248 -288 248 -8 0 -33 10
-56 22 -23 12 -80 27 -127 34 -92 14 -259 26 -275 20z"/>
<path d="M18060 10360 c-154 -22 -190 -30 -228 -49 -23 -12 -46 -21 -53 -21
-6 0 -42 -20 -80 -45 -113 -74 -221 -200 -263 -306 -10 -24 -22 -49 -27 -55
-4 -6 -16 -41 -24 -78 -9 -37 -22 -84 -30 -104 -31 -78 -35 -365 -35 -2277 0
-1978 4 -2201 39 -2305 11 -30 24 -79 31 -108 7 -28 16 -54 20 -57 5 -3 14
-22 20 -43 18 -53 89 -158 149 -220 61 -61 156 -128 197 -138 16 -4 42 -15 59
-25 38 -23 223 -50 335 -50 111 0 292 27 339 50 20 10 47 22 61 26 72 22 215
148 275 241 41 63 105 200 105 224 0 9 12 55 28 101 l27 84 0 2215 0 2215 -27
84 c-16 46 -28 92 -28 101 0 26 -68 168 -111 231 -64 95 -171 190 -259 230
-97 44 -122 52 -175 60 -205 31 -243 33 -345 19z"/>
<path d="M13162 7298 c-17 -17 -17 -2705 0 -2743 l11 -25 481 0 c514 0 665 10
756 49 70 31 132 60 162 77 30 16 158 142 158 154 0 5 6 15 13 22 17 17 87
155 87 171 0 7 12 48 27 92 l28 80 0 755 0 755 -29 90 c-41 131 -83 212 -145
283 -114 133 -208 180 -446 223 l-160 29 -465 0 c-349 0 -469 -3 -478 -12z"/>
<path d="M21407 10302 c-16 -17 -17 -112 -17 -1155 l0 -1137 25 -6 c13 -3 192
-4 397 -1 339 4 386 7 513 29 77 14 161 35 187 46 26 12 53 22 61 22 8 0 25 8
38 19 13 10 38 25 54 34 93 49 228 232 250 337 3 19 16 60 28 90 21 54 22 65
22 590 l0 535 -27 78 c-16 42 -28 85 -28 95 0 9 -7 28 -14 42 -8 14 -24 45
-35 69 -28 59 -102 144 -168 192 -156 116 -300 138 -889 139 -357 0 -382 -1
-397 -18z"/>
<path d="M21401 7221 c-8 -14 -10 -419 -9 -1348 l3 -1327 21 -11 c28 -14 973
-2 1079 14 44 6 98 20 120 30 22 10 56 24 75 32 84 32 240 171 280 249 9 19
25 49 34 65 9 17 16 36 16 43 0 7 9 30 19 50 11 21 32 108 47 193 25 146 27
175 31 546 6 443 -9 660 -57 868 -13 60 -53 168 -71 196 -8 13 -18 31 -22 40
-22 62 -172 215 -237 242 -14 6 -36 19 -50 28 -14 9 -47 23 -75 32 -27 8 -68
22 -90 30 -78 29 -247 40 -677 44 -418 4 -427 4 -437 -16z"/>
<path d="M25522 7457 c-17 -20 -17 -2893 -1 -2914 9 -10 92 -13 428 -13 445 0
593 11 677 51 22 10 45 19 50 19 16 0 135 77 171 112 19 18 52 56 73 83 38 51
110 194 110 218 0 7 12 51 27 98 l27 84 1 795 c0 579 -3 806 -12 835 -6 22
-21 74 -33 115 -39 133 -100 239 -187 321 -49 47 -138 109 -156 109 -6 0 -33
11 -61 24 -28 13 -107 35 -176 47 -114 21 -161 23 -526 27 -343 3 -402 2 -412
-11z"/>
</g>
</svg>
