<?xml version="1.0" encoding="UTF-8"?>
<svg xmlns="http://www.w3.org/2000/svg" xmlns:xlink="http://www.w3.org/1999/xlink" width="298px" height="58px" viewBox="0 0 297 58" version="1.1">
<g id="surface1">
<path style=" stroke:none;fill-rule:nonzero;fill:rgb(40%,0%,100%);fill-opacity:1;" d="M 231.476562 4.195312 C 231.285156 4.242188 230.304688 4.410156 229.324219 4.554688 C 223.445312 5.511719 217.511719 8.867188 213.710938 13.375 C 208.570312 19.4375 206.632812 26.867188 208.1875 34.390625 C 210.21875 44.265625 218.398438 52.152344 228.679688 54.1875 C 232.984375 55.027344 239.226562 54.714844 242.980469 53.445312 C 253.789062 49.78125 260.890625 40.289062 260.890625 29.457031 C 260.890625 25.261719 260.03125 21.882812 257.996094 17.976562 C 253.597656 9.539062 244.054688 3.976562 234.132812 4.097656 C 232.863281 4.121094 231.667969 4.171875 231.476562 4.195312 Z M 237.933594 7.070312 C 240.875 7.527344 242.359375 7.957031 244.988281 9.226562 C 248.359375 10.855469 251.46875 13.421875 253.695312 16.417969 C 257.566406 21.617188 258.90625 28.472656 257.304688 34.632812 C 255.296875 42.253906 249.582031 48.125 241.523438 50.761719 C 237.242188 52.175781 230.953125 52.105469 226.574219 50.59375 C 217.25 47.359375 211.175781 39.6875 210.746094 30.652344 C 210.433594 24.230469 212.300781 19.003906 216.605469 14.355469 C 221.816406 8.675781 230.089844 5.871094 237.933594 7.070312 Z M 237.933594 7.070312 "/>
<path style=" stroke:none;fill-rule:nonzero;fill:rgb(100%,0%,0%);fill-opacity:1;" d="M 224.234375 15.816406 C 222.628906 16.226562 221.050781 17.207031 219.878906 18.503906 C 218.136719 20.445312 217.726562 21.5 217.726562 24.207031 C 217.726562 27.992188 217.753906 28.042969 226.527344 36.835938 C 230.617188 40.960938 234.085938 44.339844 234.226562 44.339844 C 234.371094 44.339844 237.886719 40.910156 242.046875 36.742188 C 250.847656 27.898438 250.945312 27.777344 250.945312 24.207031 C 250.945312 22.433594 250.847656 21.976562 250.226562 20.613281 C 249.363281 18.8125 247.761719 17.183594 245.945312 16.296875 C 244.917969 15.769531 244.414062 15.699219 242.359375 15.699219 C 240.207031 15.699219 239.847656 15.769531 238.652344 16.371094 C 237.144531 17.160156 235.542969 18.621094 234.921875 19.796875 C 234.394531 20.78125 234.226562 20.804688 233.773438 19.941406 C 233.175781 18.839844 231.191406 17.066406 229.757812 16.417969 C 228.226562 15.722656 225.714844 15.457031 224.234375 15.816406 Z M 224.234375 15.816406 "/>
<path style=" stroke:none;fill-rule:nonzero;fill:rgb(40%,0%,100%);fill-opacity:1;" d="M 45.675781 5.65625 C 43.617188 6.085938 40.605469 7.621094 39.027344 9.011719 C 36.539062 11.214844 34.960938 13.851562 34.195312 17.136719 C 33.765625 19.03125 33.71875 20.035156 33.71875 30.152344 C 33.71875 40.335938 33.765625 41.246094 34.195312 43.019531 C 35.582031 48.53125 39.574219 52.75 44.742188 54.164062 L 46.535156 54.644531 L 117.554688 54.597656 L 188.554688 54.523438 L 190.0625 53.949219 C 193.265625 52.75 196.375 50.140625 198.070312 47.261719 C 198.429688 46.640625 199.003906 45.273438 199.363281 44.21875 L 200.03125 42.300781 L 200.105469 30.941406 C 200.199219 17.925781 200.105469 17.113281 198.429688 13.660156 C 196.515625 9.707031 192.429688 6.542969 188.074219 5.632812 C 185.613281 5.128906 48.066406 5.128906 45.675781 5.65625 Z M 93.882812 9.539062 C 95.675781 10.449219 97.230469 12.152344 98.042969 14.042969 L 98.640625 15.457031 L 98.714844 29.191406 C 98.761719 41.078125 98.738281 43.140625 98.402344 44.410156 C 97.230469 49.035156 93.59375 51.527344 88.550781 51.242188 C 84.292969 50.976562 81.566406 49.011719 80.203125 45.175781 C 79.84375 44.195312 79.75 42.925781 79.628906 37.988281 L 79.511719 31.996094 L 73.773438 31.996094 L 73.652344 41.460938 L 73.53125 50.929688 L 71.214844 51 L 68.871094 51.074219 L 68.871094 8.867188 L 73.652344 8.867188 L 73.652344 27.800781 L 79.628906 27.800781 L 79.628906 22.335938 C 79.628906 15.363281 80.035156 13.636719 82.1875 11.242188 C 83.933594 9.300781 85.992188 8.605469 89.675781 8.699219 C 92.207031 8.773438 92.542969 8.84375 93.882812 9.539062 Z M 141.613281 9.539062 C 143.476562 10.449219 144.484375 11.503906 145.4375 13.566406 C 146.46875 15.792969 146.660156 18.695312 146.539062 31.949219 C 146.445312 41.34375 146.347656 43.476562 146.035156 44.578125 C 145.199219 47.503906 143.40625 49.613281 140.871094 50.617188 C 139.773438 51.050781 139.078125 51.144531 136.902344 51.144531 C 133.792969 51.144531 132.238281 50.667969 130.46875 49.109375 C 129.058594 47.863281 128.316406 46.589844 127.695312 44.289062 C 127.21875 42.515625 127.195312 42.039062 127.265625 29.3125 C 127.335938 16.394531 127.359375 16.152344 127.886719 14.570312 C 128.820312 11.816406 130.78125 9.851562 133.507812 8.964844 C 134.175781 8.746094 135.445312 8.652344 137.261719 8.699219 C 139.84375 8.746094 140.128906 8.796875 141.613281 9.539062 Z M 64.039062 29.886719 L 63.96875 50.929688 L 62.175781 51 C 61.195312 51.050781 60.140625 51 59.832031 50.929688 L 59.304688 50.808594 L 59.304688 32.042969 L 59.328125 13.300781 L 55.382812 13.230469 L 51.460938 13.183594 L 51.316406 17.304688 C 51.222656 19.582031 51.007812 26.074219 50.816406 31.757812 C 50.433594 42.734375 50.167969 45.203125 49.140625 47.214844 C 47.992188 49.492188 45.578125 50.859375 42.566406 50.90625 L 41.25 50.929688 L 41.25 46.617188 L 42.351562 46.496094 C 43.808594 46.328125 44.667969 45.703125 45.21875 44.484375 C 45.746094 43.261719 45.9375 39.90625 46.511719 21.570312 C 46.726562 14.90625 46.941406 9.324219 47.011719 9.15625 C 47.085938 8.941406 48.996094 8.867188 55.597656 8.867188 L 64.085938 8.867188 Z M 121 11.023438 L 121 13.183594 L 108.085938 13.183594 L 108.085938 26.316406 L 112.34375 26.410156 C 116.410156 26.484375 116.625 26.507812 118.082031 27.179688 C 120.113281 28.113281 121.550781 29.71875 122.21875 31.828125 C 122.648438 33.144531 122.769531 34.199219 122.863281 37.53125 C 123.054688 44.746094 121.957031 47.886719 118.632812 49.683594 C 116.625 50.785156 114.78125 51.050781 108.757812 51.050781 L 103.304688 51.050781 L 103.304688 8.867188 L 121 8.867188 Z M 165.023438 9.730469 C 168.011719 11.144531 169.066406 13.207031 169.257812 18.070312 C 169.398438 21.714844 169.066406 23.894531 168.15625 25.476562 C 167.488281 26.601562 165.910156 28.042969 165.335938 28.042969 C 164.664062 28.042969 165.046875 28.496094 166.316406 29.214844 C 167.988281 30.175781 169.136719 31.851562 169.6875 34.152344 C 170.261719 36.695312 170.070312 43.691406 169.351562 45.539062 C 168.609375 47.429688 167.628906 48.652344 166.148438 49.5625 C 164.113281 50.785156 162.320312 51.050781 156.105469 51.050781 L 150.652344 51.050781 L 150.652344 8.84375 L 157.0625 8.914062 L 163.445312 8.988281 Z M 179.109375 17.113281 L 179.109375 25.355469 L 182.765625 25.453125 C 187.09375 25.597656 188.601562 26.050781 190.300781 27.753906 C 192.546875 29.984375 193.074219 32.210938 192.929688 39.066406 C 192.835938 43.429688 192.761719 44.125 192.285156 45.320312 C 191.257812 47.980469 189.535156 49.707031 187.144531 50.5 C 186.1875 50.808594 184.65625 50.90625 180.136719 51 L 174.324219 51.097656 L 174.324219 8.867188 L 179.109375 8.867188 Z M 179.109375 17.113281 "/>
<path style=" stroke:none;fill-rule:nonzero;fill:rgb(40%,0%,100%);fill-opacity:1;" d="M 87.164062 13.277344 C 86.253906 13.683594 85.488281 14.429688 84.964844 15.410156 C 84.554688 16.105469 84.53125 17.304688 84.460938 29.597656 L 84.390625 43.019531 L 85.058594 44.339844 C 85.871094 45.898438 86.636719 46.496094 88.167969 46.734375 C 91.46875 47.261719 93.546875 45.65625 94.003906 42.253906 C 94.265625 40.046875 94.265625 19.75 93.976562 17.519531 C 93.691406 15.316406 92.925781 14.070312 91.515625 13.398438 C 90.34375 12.871094 88.214844 12.824219 87.164062 13.277344 Z M 87.164062 13.277344 "/>
<path style=" stroke:none;fill-rule:nonzero;fill:rgb(40%,0%,100%);fill-opacity:1;" d="M 134.511719 13.492188 C 133.433594 14.117188 132.597656 15.242188 132.238281 16.5625 C 132.070312 17.160156 132 22.097656 132.046875 30.511719 L 132.121094 43.546875 L 132.835938 44.699219 C 133.769531 46.207031 134.894531 46.785156 136.878906 46.785156 C 139.484375 46.785156 140.679688 45.898438 141.421875 43.402344 C 141.757812 42.277344 141.804688 40.433594 141.804688 30.054688 C 141.804688 22.359375 141.707031 17.566406 141.542969 16.800781 C 141.015625 14.285156 139.390625 12.941406 136.902344 12.941406 C 135.851562 12.941406 135.203125 13.085938 134.511719 13.492188 Z M 134.511719 13.492188 "/>
<path style=" stroke:none;fill-rule:nonzero;fill:rgb(40%,0%,100%);fill-opacity:1;" d="M 108.085938 38.441406 L 108.085938 46.496094 L 111.625 46.496094 C 114.996094 46.496094 115.1875 46.472656 116.050781 45.898438 C 116.527344 45.5625 117.175781 44.816406 117.460938 44.265625 C 117.988281 43.308594 118.011719 42.972656 118.011719 38.46875 C 118.011719 33.984375 117.988281 33.601562 117.484375 32.691406 C 116.601562 31.0625 115.40625 30.605469 111.386719 30.484375 L 108.085938 30.367188 Z M 108.085938 38.441406 "/>
<path style=" stroke:none;fill-rule:nonzero;fill:rgb(40%,0%,100%);fill-opacity:1;" d="M 155.433594 19.890625 L 155.433594 26.652344 L 158.375 26.554688 C 161.03125 26.484375 161.414062 26.410156 162.417969 25.8125 C 164.089844 24.828125 164.378906 24.015625 164.472656 20.109375 C 164.546875 17.160156 164.496094 16.703125 164.042969 15.601562 C 163.183594 13.636719 162.441406 13.324219 158.613281 13.230469 L 155.433594 13.132812 Z M 155.433594 19.890625 "/>
<path style=" stroke:none;fill-rule:nonzero;fill:rgb(40%,0%,100%);fill-opacity:1;" d="M 155.433594 38.707031 L 155.433594 46.496094 L 158.78125 46.496094 C 162.488281 46.496094 163.039062 46.351562 164.113281 45.058594 C 165.046875 43.957031 165.238281 42.902344 165.238281 38.921875 C 165.238281 34.535156 164.929688 33.195312 163.636719 32.140625 C 162.535156 31.230469 161.101562 30.917969 157.945312 30.917969 L 155.433594 30.917969 Z M 155.433594 38.707031 "/>
<path style=" stroke:none;fill-rule:nonzero;fill:rgb(40%,0%,100%);fill-opacity:1;" d="M 179.300781 29.597656 C 179.179688 29.71875 179.109375 33.554688 179.109375 38.15625 L 179.109375 46.496094 L 182.097656 46.496094 C 185.683594 46.496094 186.546875 46.183594 187.476562 44.554688 C 188.050781 43.546875 188.074219 43.308594 188.148438 38.683594 C 188.195312 35.6875 188.125 33.480469 187.957031 32.882812 C 187.621094 31.636719 186.714844 30.511719 185.589844 30.054688 C 184.65625 29.671875 179.585938 29.3125 179.300781 29.597656 Z M 179.300781 29.597656 "/>
</g>
</svg>
